<svg width="34" height="49" viewBox="0 0 34 49" fill="none" xmlns="http://www.w3.org/2000/svg">
<g opacity="0.6">
<ellipse cx="17" cy="46.5" rx="9" ry="2.5" fill="url(#paint0_radial_1162_14091)"/>
<circle cx="17.5" cy="16.5" r="11.5" fill="white"/>
<path d="M17 45.0001C17 45.0001 34 29.0074 34 16.8751C34 7.55528 26.3888 8.03241e-05 17 8.03241e-05C7.61116 8.03241e-05 0 7.55528 0 16.8751C0 29.0074 17 45.0001 17 45.0001ZM17 25.3126C12.3056 25.3126 8.5 21.535 8.5 16.8751C8.5 12.2152 12.3056 8.43758 17 8.43758C21.6944 8.43758 25.5 12.2152 25.5 16.8751C25.5 21.535 21.6944 25.3126 17 25.3126Z" fill="url(#paint1_linear_1162_14091)"/>
<path fill-rule="evenodd" clip-rule="evenodd" d="M34 16.875C34 29.0073 17 45 17 45C17 45 0 29.0073 0 16.875C0 7.5552 7.61116 0 17 0C26.3888 0 34 7.5552 34 16.875ZM8.5 16.875C8.5 21.5349 12.3056 25.3125 17 25.3125C21.6944 25.3125 25.5 21.5349 25.5 16.875C25.5 12.2151 21.6944 8.4375 17 8.4375C12.3056 8.4375 8.5 12.2151 8.5 16.875Z" fill="url(#paint2_linear_1162_14091)"/>
</g>
<defs>
<radialGradient id="paint0_radial_1162_14091" cx="0" cy="0" r="1" gradientUnits="userSpaceOnUse" gradientTransform="translate(17 46.5) rotate(90) scale(2.5 9)">
<stop stop-opacity="0.6"/>
<stop offset="1" stop-opacity="0"/>
</radialGradient>
<linearGradient id="paint1_linear_1162_14091" x1="17" y1="45" x2="17" y2="-36" gradientUnits="userSpaceOnUse">
<stop stop-color="#303030"/>
<stop offset="1" stop-color="#303030" stop-opacity="0"/>
</linearGradient>
<linearGradient id="paint2_linear_1162_14091" x1="17" y1="4.5" x2="17" y2="124" gradientUnits="userSpaceOnUse">
<stop/>
<stop offset="1" stop-color="white" stop-opacity="0"/>
</linearGradient>
</defs>
</svg>
