<svg width="68" height="68" viewBox="0 0 68 68" fill="none" xmlns="http://www.w3.org/2000/svg">
<g filter="url(#filter0_d_1162_14078)">
<circle cx="32" cy="32" r="30" fill="white"/>
</g>
<path fill-rule="evenodd" clip-rule="evenodd" d="M32 20.75C32.5178 20.75 32.9375 21.1697 32.9375 21.6875V31.0625H42.3125C42.8303 31.0625 43.25 31.4822 43.25 32C43.25 32.5178 42.8303 32.9375 42.3125 32.9375H32.9375V42.3125C32.9375 42.8303 32.5178 43.25 32 43.25C31.4822 43.25 31.0625 42.8303 31.0625 42.3125V32.9375H21.6875C21.1697 32.9375 20.75 32.5178 20.75 32C20.75 31.4822 21.1697 31.0625 21.6875 31.0625H31.0625V21.6875C31.0625 21.1697 31.4822 20.75 32 20.75Z" fill="black"/>
<defs>
<filter id="filter0_d_1162_14078" x="0" y="0" width="68" height="68" filterUnits="userSpaceOnUse" color-interpolation-filters="sRGB">
<feFlood flood-opacity="0" result="BackgroundImageFix"/>
<feColorMatrix in="SourceAlpha" type="matrix" values="0 0 0 0 0 0 0 0 0 0 0 0 0 0 0 0 0 0 127 0" result="hardAlpha"/>
<feOffset dx="2" dy="2"/>
<feGaussianBlur stdDeviation="2"/>
<feComposite in2="hardAlpha" operator="out"/>
<feColorMatrix type="matrix" values="0 0 0 0 0 0 0 0 0 0 0 0 0 0 0 0 0 0 0.25 0"/>
<feBlend mode="normal" in2="BackgroundImageFix" result="effect1_dropShadow_1162_14078"/>
<feBlend mode="normal" in="SourceGraphic" in2="effect1_dropShadow_1162_14078" result="shape"/>
</filter>
</defs>
</svg>
