<svg width="48" height="48" viewBox="0 0 48 48" fill="none" xmlns="http://www.w3.org/2000/svg">
<g filter="url(#filter0_d_1162_14106)">
<circle cx="22" cy="22" r="20" fill="white"/>
</g>
<path fill-rule="evenodd" clip-rule="evenodd" d="M21.1667 12H22.8333V13.7078C26.7703 14.0987 29.9013 17.2297 30.2922 21.1667H32V22.8333H30.2922C29.9013 26.7703 26.7703 29.9013 22.8333 30.2922V32H21.1667V30.2922C17.2297 29.9013 14.0987 26.7703 13.7078 22.8333H12V21.1667H13.7078C14.0987 17.2297 17.2297 14.0987 21.1667 13.7078V12ZM15.3849 22.8333H17V21.1667H15.3849C15.761 18.1511 18.1511 15.761 21.1667 15.3849V17H22.8333V15.3849C25.8489 15.761 28.239 18.1511 28.6151 21.1667H27V22.8333H28.6151C28.239 25.8489 25.8489 28.239 22.8333 28.6151V27H21.1667V28.6151C18.1511 28.239 15.761 25.8489 15.3849 22.8333Z" fill="#4C505B"/>
<defs>
<filter id="filter0_d_1162_14106" x="0" y="0" width="48" height="48" filterUnits="userSpaceOnUse" color-interpolation-filters="sRGB">
<feFlood flood-opacity="0" result="BackgroundImageFix"/>
<feColorMatrix in="SourceAlpha" type="matrix" values="0 0 0 0 0 0 0 0 0 0 0 0 0 0 0 0 0 0 127 0" result="hardAlpha"/>
<feOffset dx="2" dy="2"/>
<feGaussianBlur stdDeviation="2"/>
<feComposite in2="hardAlpha" operator="out"/>
<feColorMatrix type="matrix" values="0 0 0 0 0 0 0 0 0 0 0 0 0 0 0 0 0 0 0.25 0"/>
<feBlend mode="normal" in2="BackgroundImageFix" result="effect1_dropShadow_1162_14106"/>
<feBlend mode="normal" in="SourceGraphic" in2="effect1_dropShadow_1162_14106" result="shape"/>
</filter>
</defs>
</svg>
