<svg width="150" height="150" viewBox="0 0 150 150" fill="none" xmlns="http://www.w3.org/2000/svg">
<path fill-rule="evenodd" clip-rule="evenodd" d="M18.75 145.312V18.75C18.75 8.39467 27.1447 0 37.5 0H112.5C122.855 0 131.25 8.39466 131.25 18.75V145.312C131.25 146.967 130.378 148.499 128.955 149.343C127.533 150.188 125.77 150.22 124.318 149.428L75 122.527L25.6821 149.428C24.2297 150.22 22.4673 150.188 21.0447 149.343C19.6221 148.499 18.75 146.967 18.75 145.312ZM76.4939 38.4286C75.8828 37.1905 74.1172 37.1905 73.5061 38.4286L67.5541 50.4888C67.3115 50.9804 66.8424 51.3212 66.2998 51.4001L52.9907 53.334C51.6243 53.5325 51.0787 55.2117 52.0674 56.1755L61.698 65.563C62.0906 65.9457 62.2698 66.4971 62.1771 67.0375L59.9036 80.2929C59.6702 81.6538 61.0986 82.6915 62.3207 82.049L74.2248 75.7907C74.7101 75.5355 75.2899 75.5355 75.7752 75.7907L87.6793 82.049C88.9014 82.6915 90.3298 81.6538 90.0964 80.2929L87.8229 67.0375C87.7302 66.4971 87.9094 65.9457 88.302 65.563L97.9326 56.1755C98.9213 55.2117 98.3757 53.5325 97.0093 53.334L83.7002 51.4001C83.1576 51.3212 82.6886 50.9804 82.4459 50.4888L76.4939 38.4286Z" fill="#000"/>
</svg>
