<svg width="15" height="15" viewBox="0 0 15 15" fill="none" xmlns="http://www.w3.org/2000/svg">
<path d="M0 3.91992C0 2.88439 0.839466 2.04492 1.875 2.04492H13.125C14.1605 2.04492 15 2.88439 15 3.91992V11.4199C15 12.4555 14.1605 13.2949 13.125 13.2949H1.875C0.839467 13.2949 0 12.4555 0 11.4199V3.91992ZM8.4375 5.32617C8.4375 5.58506 8.64737 5.79492 8.90625 5.79492H12.6563C12.9151 5.79492 13.125 5.58506 13.125 5.32617C13.125 5.06729 12.9151 4.85742 12.6563 4.85742H8.90625C8.64737 4.85742 8.4375 5.06729 8.4375 5.32617ZM8.4375 7.66992C8.4375 7.92881 8.64737 8.13867 8.90625 8.13867H12.6563C12.9151 8.13867 13.125 7.92881 13.125 7.66992C13.125 7.41104 12.9151 7.20117 12.6563 7.20117H8.90625C8.64737 7.20117 8.4375 7.41104 8.4375 7.66992ZM9.375 10.0137C9.375 10.2726 9.58487 10.4824 9.84375 10.4824H12.6563C12.9151 10.4824 13.125 10.2726 13.125 10.0137C13.125 9.75479 12.9151 9.54492 12.6563 9.54492H9.84375C9.58487 9.54492 9.375 9.75479 9.375 10.0137ZM8.43749 11.8887C8.43749 10.0765 6.75855 8.60742 4.68749 8.60742C2.73157 8.60742 1.12539 9.91767 0.952835 11.5898C1.03275 12.0265 1.41522 12.3574 1.87499 12.3574H8.39951C8.42454 12.2043 8.43749 12.0478 8.43749 11.8887ZM6.56249 5.79492C6.56249 4.75939 5.72302 3.91992 4.68749 3.91992C3.65195 3.91992 2.81249 4.75939 2.81249 5.79492C2.81249 6.83046 3.65195 7.66992 4.68749 7.66992C5.72302 7.66992 6.56249 6.83046 6.56249 5.79492Z" fill="#000"/>
</svg>
