<svg width="150" height="150" viewBox="0 0 150 150" fill="none" xmlns="http://www.w3.org/2000/svg">
<path d="M18.75 0C8.39466 0 0 8.39466 0 18.75V131.25C0 141.605 8.39466 150 18.75 150H131.25C141.605 150 150 141.605 150 131.25V18.75C150 8.39466 141.605 0 131.25 0H18.75ZM112.784 46.5907C115.496 49.3029 115.53 53.6795 112.884 56.4326L75.4572 103.216C75.4031 103.284 75.3454 103.348 75.2843 103.409C72.5384 106.155 68.0865 106.155 65.3406 103.409L40.5301 78.5989C37.7843 75.853 37.7843 71.4011 40.5301 68.6552C43.276 65.9093 47.728 65.9093 50.4738 68.6552L70.1006 88.282L102.654 46.801C102.712 46.7272 102.774 46.657 102.841 46.5907C105.586 43.8448 110.038 43.8448 112.784 46.5907Z" fill="#3454C5"/>
</svg>
