<svg width="39" height="39" viewBox="0 0 39 39" fill="none" xmlns="http://www.w3.org/2000/svg">
<circle cx="19.5" cy="19.5" r="19.5" fill="black" fill-opacity="0.3"/>
<path d="M14.5072 10.6773C15.6397 9.70057 17.217 9 19 9C22.3628 9 25.1541 11.4993 25.4571 14.7237C27.4476 15.0051 29 16.6707 29 18.7159C29 20.9619 27.1279 22.75 24.8594 22.75H21.5C21.1548 22.75 20.875 22.4702 20.875 22.125C20.875 21.7798 21.1548 21.5 21.5 21.5H24.8594C26.4741 21.5 27.75 20.2355 27.75 18.7159C27.75 17.1963 26.4741 15.9318 24.8594 15.9318H24.2344V15.3068C24.2344 12.532 21.9091 10.25 19 10.25C17.547 10.25 16.2532 10.8222 15.3236 11.6239C14.3779 12.4395 13.8828 13.4229 13.8828 14.1932V14.7532L13.3261 14.8144C11.5796 15.0064 10.25 16.4408 10.25 18.1477C10.25 19.9811 11.7882 21.5 13.7266 21.5H16.5C16.8452 21.5 17.125 21.7798 17.125 22.125C17.125 22.4702 16.8452 22.75 16.5 22.75H13.7266C11.1344 22.75 9 20.7075 9 18.1477C9 15.9439 10.5823 14.1189 12.6778 13.6562C12.856 12.5771 13.5498 11.503 14.5072 10.6773Z" fill="white"/>
<path d="M18.5581 28.8169C18.8021 29.061 19.1979 29.061 19.4419 28.8169L23.1919 25.0669C23.436 24.8229 23.436 24.4271 23.1919 24.1831C22.9479 23.939 22.5521 23.939 22.3081 24.1831L19.625 26.8661V15.875C19.625 15.5298 19.3452 15.25 19 15.25C18.6548 15.25 18.375 15.5298 18.375 15.875V26.8661L15.6919 24.1831C15.4479 23.939 15.0521 23.939 14.8081 24.1831C14.564 24.4271 14.564 24.8229 14.8081 25.0669L18.5581 28.8169Z" fill="white"/>
</svg>
