<svg width="147" height="35" viewBox="0 0 147 35" fill="none" xmlns="http://www.w3.org/2000/svg">
<path d="M13.894 28.276C11.8814 28.276 10.0265 27.9693 8.32911 27.3559C6.65601 26.7189 5.18902 25.8224 3.92814 24.6663C2.6915 23.5103 1.72159 22.1537 1.01841 20.5966C0.339469 19.0394 0 17.329 0 15.4651C0 13.6013 0.339469 11.8908 1.01841 10.3337C1.72159 8.77654 2.70363 7.41995 3.96451 6.2639C5.22539 5.10785 6.70451 4.22312 8.40185 3.60971C10.0992 2.9727 11.9663 2.6542 14.0031 2.6542C16.2581 2.6542 18.2828 3.01989 20.0772 3.75126C21.5706 4.35189 22.8679 5.17529 23.9689 6.22144C24.3677 6.60041 24.3293 7.23327 23.92 7.60089L21.5909 9.69274C21.1921 10.051 20.5854 10.026 20.1774 9.6783C19.4525 9.06052 18.6795 8.58299 17.8585 8.2457C16.7673 7.77385 15.5792 7.53792 14.2941 7.53792C13.0574 7.53792 11.9299 7.72666 10.9115 8.10415C9.89309 8.48163 9.00805 9.02427 8.25636 9.73205C7.52893 10.4398 6.95911 11.2774 6.5469 12.2447C6.15893 13.212 5.96495 14.2855 5.96495 15.4651C5.96495 16.6212 6.15893 17.6828 6.5469 18.6502C6.95911 19.6175 7.52893 20.4668 8.25636 21.1982C9.00805 21.906 9.88097 22.4486 10.8751 22.8261C11.8935 23.2036 13.0089 23.3923 14.2213 23.3923C15.3852 23.3923 16.5127 23.2154 17.6039 22.8615C18.4344 22.5804 19.2447 22.162 20.0348 21.6063C20.4921 21.2847 21.1291 21.3424 21.4805 21.7772L24.1872 25.1264C22.805 26.1409 21.1925 26.9194 19.3497 27.4621C17.5311 28.0047 15.7126 28.276 13.894 28.276ZM19.6674 24.5024C19.1726 24.4341 18.8041 24.0112 18.8041 23.5118V16.0758C18.8041 15.5235 19.2519 15.0758 19.8041 15.0758H23.1872C23.7394 15.0758 24.1872 15.5235 24.1872 16.0758V25.1264L19.6674 24.5024Z" fill="#000"/>
<path d="M38.9717 28.1345C36.7409 28.1345 34.7768 27.7098 33.0794 26.8605C31.4064 26.0111 30.1091 24.8551 29.1877 23.3923C28.2663 21.906 27.8056 20.2191 27.8056 18.3316C27.8056 16.4206 28.2541 14.7337 29.1513 13.271C30.0727 11.7846 31.3215 10.6286 32.8976 9.80283C34.4737 8.95349 36.2559 8.52882 38.2442 8.52882C40.1598 8.52882 41.8814 8.9299 43.409 9.73205C44.9609 10.5106 46.1854 11.6431 47.0825 13.1294C47.9797 14.5922 48.4283 16.3498 48.4283 18.4024C48.4283 18.6148 48.4162 18.8625 48.3919 19.1456V19.1456C48.3524 19.568 47.9967 19.8888 47.5724 19.8888H33.4248C32.8725 19.8888 32.4248 19.4411 32.4248 18.8888V17.6684C32.4248 17.1161 32.8725 16.6684 33.4248 16.6684H43.5321C43.9413 16.6684 44.0585 17.228 43.6837 17.3921V17.3921C43.4341 17.5014 43.1536 17.3181 43.1298 17.0467C43.064 16.2948 42.8661 15.626 42.5361 15.0404C42.1239 14.3091 41.554 13.7428 40.8266 13.3418C40.0992 12.9171 39.2505 12.7048 38.2806 12.7048C37.3107 12.7048 36.4499 12.9171 35.6982 13.3418C34.9708 13.7428 34.401 14.3209 33.9887 15.0758C33.5765 15.8072 33.3704 16.6801 33.3704 17.6946V18.544C33.3704 19.5821 33.6008 20.5022 34.0615 21.3043C34.5464 22.0829 35.2133 22.6845 36.0619 23.1092C36.9348 23.5103 37.9532 23.7108 39.1171 23.7108C40.1598 23.7108 41.0691 23.5575 41.845 23.2508C42.344 23.0595 42.8147 22.8086 43.2571 22.4981C43.7073 22.1821 44.3329 22.193 44.7113 22.5922L46.4089 24.3832C46.7684 24.7626 46.7791 25.3602 46.3876 25.7064C45.6158 26.3888 44.7078 26.9386 43.6636 27.3559C42.3057 27.875 40.7417 28.1345 38.9717 28.1345Z" fill="#000"/>
<path d="M61.517 28.1345C59.4317 28.1345 57.5767 27.7098 55.9521 26.8605C54.3517 26.0111 53.0787 24.8551 52.1331 23.3923C51.2117 21.906 50.751 20.2191 50.751 18.3316C50.751 16.4206 51.2117 14.7337 52.1331 13.271C53.0787 11.7846 54.3517 10.6286 55.9521 9.80283C57.5767 8.95349 59.4317 8.52882 61.517 8.52882C63.578 8.52882 65.4209 8.95349 67.0455 9.80283C68.6701 10.6286 69.9431 11.7728 70.8645 13.2356C71.7859 14.6983 72.2466 16.397 72.2466 18.3316C72.2466 20.2191 71.7859 21.906 70.8645 23.3923C69.9431 24.8551 68.6701 26.0111 67.0455 26.8605C65.4209 27.7098 63.578 28.1345 61.517 28.1345ZM61.517 23.6047C62.4626 23.6047 63.3113 23.3923 64.063 22.9676C64.8147 22.543 65.4087 21.9414 65.8452 21.1628C66.2817 20.3606 66.4999 19.4169 66.4999 18.3316C66.4999 17.2228 66.2817 16.2791 65.8452 15.5005C65.4087 14.7219 64.8147 14.1203 64.063 13.6957C63.3113 13.271 62.4626 13.0586 61.517 13.0586C60.5713 13.0586 59.7226 13.271 58.9709 13.6957C58.2193 14.1203 57.6131 14.7219 57.1524 15.5005C56.7159 16.2791 56.4977 17.2228 56.4977 18.3316C56.4977 19.4169 56.7159 20.3606 57.1524 21.1628C57.6131 21.9414 58.2193 22.543 58.9709 22.9676C59.7226 23.3923 60.5713 23.6047 61.517 23.6047Z" fill="#000"/>
<path d="M87.9327 8.52882C89.4846 8.52882 90.8667 8.83553 92.0791 9.44894C93.3157 10.0388 94.2856 10.9589 94.9888 12.2093C95.692 13.4361 96.0436 15.0169 96.0436 16.9515V26.8514C96.0436 27.4036 95.5959 27.8514 95.0436 27.8514H91.3696C90.8173 27.8514 90.3696 27.4036 90.3696 26.8514V17.8008C90.3696 16.2673 90.018 15.1348 89.3148 14.4034C88.6359 13.6721 87.666 13.3064 86.4051 13.3064C85.508 13.3064 84.6956 13.4951 83.9682 13.8726C83.265 14.2265 82.7073 14.7809 82.2951 15.5359C81.9072 16.2909 81.7132 17.2582 81.7132 18.4378V26.8514C81.7132 27.4036 81.2655 27.8514 80.7132 27.8514H77.0392C76.4869 27.8514 76.0392 27.4036 76.0392 26.8514V9.81193C76.0392 9.25965 76.4869 8.81193 77.0392 8.81193H80.4586C81.0109 8.81193 81.4586 9.25965 81.4586 9.81193V12.4747C81.4586 12.9452 80.8446 13.1248 80.5911 12.7284V12.7284C80.4981 12.583 80.4911 12.3977 80.5799 12.2497C81.2744 11.0934 82.234 10.1952 83.459 9.55511C84.7684 8.87091 86.2596 8.52882 87.9327 8.52882Z" fill="#000"/>
<path d="M102.187 27.8514C101.634 27.8514 101.187 27.4036 101.187 26.8514V9.81193C101.187 9.25965 101.634 8.81193 102.187 8.81193H105.861C106.413 8.81193 106.861 9.25965 106.861 9.81193V26.8514C106.861 27.4036 106.413 27.8514 105.861 27.8514H102.187ZM104.024 6.15774C102.981 6.15774 102.132 5.86282 101.478 5.273C100.823 4.68318 100.496 3.9518 100.496 3.07887C100.496 2.20593 100.823 1.47455 101.478 0.884733C102.132 0.294911 102.981 0 104.024 0C105.066 0 105.915 0.283115 106.57 0.849344C107.224 1.39198 107.552 2.09977 107.552 2.9727C107.552 3.89282 107.224 4.65959 106.57 5.273C105.939 5.86282 105.091 6.15774 104.024 6.15774Z" fill="#000"/>
<path d="M120.128 28.1345C117.825 28.1345 116.031 27.5682 114.745 26.4358C113.46 25.2797 112.818 23.5693 112.818 21.3043V5.60061C112.818 5.04832 113.265 4.60061 113.818 4.60061H117.492C118.044 4.60061 118.492 5.04832 118.492 5.60061V21.2336C118.492 22.0357 118.71 22.6609 119.146 23.1092C119.583 23.5339 120.177 23.7462 120.929 23.7462C121.327 23.7462 121.7 23.6996 122.046 23.6064C122.683 23.4347 123.458 23.6454 123.699 24.2601L124.458 26.1927C124.628 26.6253 124.48 27.1254 124.064 27.3318C123.638 27.5432 123.162 27.7163 122.638 27.8514C121.838 28.0401 121.001 28.1345 120.128 28.1345ZM110.799 13.4833C110.247 13.4833 109.799 13.0356 109.799 12.4833V10.2366C109.799 9.68432 110.247 9.2366 110.799 9.2366H122.366C122.918 9.2366 123.366 9.68432 123.366 10.2366V12.4833C123.366 13.0356 122.918 13.4833 122.366 13.4833H110.799Z" fill="#000"/>
<path d="M130.051 35C129.032 35 128.026 34.8466 127.032 34.5399C126.347 34.3286 125.748 34.0613 125.236 33.7381C124.842 33.4892 124.749 32.9735 124.967 32.5611L126.081 30.4502C126.381 29.8812 127.137 29.7457 127.715 30.0293C127.858 30.0999 128.007 30.1643 128.159 30.2224C128.741 30.4348 129.311 30.5409 129.869 30.5409C130.669 30.5409 131.3 30.3522 131.76 29.9747C132.245 29.6208 132.682 29.0192 133.07 28.1699L134.045 25.9338C134.074 25.8676 134.109 25.8047 134.152 25.7462L134.459 25.3234C134.502 25.263 134.539 25.1979 134.569 25.1293L141.285 9.41885C141.442 9.05072 141.804 8.81193 142.204 8.81193H145.471C146.192 8.81193 146.676 9.55198 146.387 10.2127L138.162 29.0192C137.531 30.5527 136.804 31.756 135.979 32.6289C135.179 33.5019 134.282 34.1153 133.288 34.4692C132.318 34.8231 131.239 35 130.051 35ZM134.429 27.5715C133.931 28.065 133.093 27.9063 132.81 27.2649L125.287 10.2156C124.996 9.55461 125.48 8.81193 126.202 8.81193H129.862C130.263 8.81193 130.626 9.05169 130.782 9.42094L137.024 24.1131C137.184 24.4899 137.098 24.9262 136.807 25.2144L134.429 27.5715Z" fill="#000"/>
</svg>
