<svg width="150" height="150" viewBox="0 0 150 150" fill="none" xmlns="http://www.w3.org/2000/svg">
<path d="M75 25.763L68.2804 18.8562C52.4897 2.62563 23.5701 8.22839 13.1284 28.6204C8.21751 38.2109 7.11328 52.0544 16.0715 69.7273C24.6991 86.7481 42.6344 107.123 75 129.324C107.366 107.123 125.301 86.7481 133.929 69.7273C142.887 52.0544 141.782 38.2109 136.872 28.6204C126.43 8.22839 97.5103 2.62563 81.7196 18.8562L75 25.763ZM75 140.625C-68.7481 45.6413 30.7383 -28.5081 73.353 10.7164C73.912 11.231 74.4612 11.765 75 12.3188C75.5387 11.765 76.088 11.231 76.6469 10.7165C119.262 -28.5082 218.748 45.6413 75 140.625Z" fill="black"/>
</svg>
