<svg width="24" height="24" viewBox="0 0 24 24" fill="none" xmlns="http://www.w3.org/2000/svg">
<path d="M13.0294 1.99989C12.4436 1.4141 11.4939 1.4141 10.9081 1.99989L0.93842 11.9696C0.645527 12.2624 0.645527 12.7373 0.93842 13.0302C1.23131 13.3231 1.70619 13.3231 1.99908 13.0302L2.96875 12.0605V19.9999C2.96875 21.2425 3.97611 22.2499 5.21875 22.2499H18.7188C19.9614 22.2499 20.9688 21.2425 20.9688 19.9999V12.0605L21.9384 13.0302C22.2313 13.3231 22.7062 13.3231 22.9991 13.0302C23.292 12.7373 23.292 12.2624 22.9991 11.9696L19.4688 8.43923V3.49989C19.4688 3.08567 19.133 2.74989 18.7188 2.74989H17.2188C16.8045 2.74989 16.4688 3.08567 16.4688 3.49989V5.43923L13.0294 1.99989ZM19.4688 10.5605V19.9999C19.4688 20.4141 19.133 20.7499 18.7188 20.7499H5.21875C4.80454 20.7499 4.46875 20.4141 4.46875 19.9999V10.5605L11.9688 3.06055L19.4688 10.5605Z" fill="#000"/>
</svg>
