<svg width="27" height="27" viewBox="0 0 27 27" fill="none" xmlns="http://www.w3.org/2000/svg">
<path fill-rule="evenodd" clip-rule="evenodd" d="M20.5393 8.9349C23.4358 9.3962 25.3125 10.135 25.3125 10.9678C25.3125 12.3658 20.0239 13.499 13.5 13.499C6.97614 13.499 1.6875 12.3658 1.6875 10.9678C1.6875 10.135 3.56416 9.3962 6.46068 8.9349L8.17361 2.65416C8.31922 2.12022 8.8704 1.80397 9.40931 1.92994C10.4755 2.17918 12.207 2.53029 13.5 2.53029C14.793 2.53029 16.5245 2.17918 17.5907 1.92994C18.1296 1.80397 18.6808 2.12022 18.8264 2.65416L20.5393 8.9349ZM8.18878 9.86248C8.20277 9.72512 8.32546 9.6251 8.46282 9.63908C9.98814 9.79435 11.6961 9.88139 13.5 9.88139C15.3039 9.88139 17.0119 9.79435 18.5372 9.63908C18.6745 9.6251 18.7972 9.72512 18.8112 9.86248C18.8252 9.99984 18.7252 10.1225 18.5878 10.1365C17.0444 10.2936 15.3195 10.3814 13.5 10.3814C11.6805 10.3814 9.95559 10.2936 8.41218 10.1365C8.27482 10.1225 8.1748 9.99984 8.18878 9.86248ZM3.375 16.6865C3.375 16.6338 3.37772 16.5817 3.38304 16.5303H3.375C3.09886 16.5303 2.875 16.3064 2.875 16.0303C2.875 15.7542 3.09886 15.5303 3.375 15.5303H3.91938C4.17888 15.3156 4.51187 15.1865 4.875 15.1865H10.3125C11.1409 15.1865 11.8125 15.8581 11.8125 16.6865V17.7532L12.3932 17.5597C13.1116 17.3202 13.8884 17.3202 14.6068 17.5597L15.1875 17.7532V16.6865C15.1875 15.8581 15.8591 15.1865 16.6875 15.1865H22.125C22.4881 15.1865 22.8211 15.3156 23.0806 15.5303H23.625C23.9011 15.5303 24.125 15.7542 24.125 16.0303C24.125 16.3064 23.9011 16.5303 23.625 16.5303H23.617C23.6223 16.5817 23.625 16.6338 23.625 16.6865V20.624C23.625 22.2809 22.2819 23.624 20.625 23.624H18.1875C16.5306 23.624 15.1875 22.2809 15.1875 20.624V18.8073L14.2906 18.5084C13.7774 18.3373 13.2226 18.3373 12.7094 18.5084L11.8125 18.8073V20.624C11.8125 22.2809 10.4694 23.624 8.8125 23.624H6.375C4.71815 23.624 3.375 22.2809 3.375 20.624V16.6865ZM10.8125 18.0866L10.8106 18.0872L10.8125 18.0928V20.624C10.8125 21.7286 9.91707 22.624 8.8125 22.624H6.375C5.27043 22.624 4.375 21.7286 4.375 20.624V16.6865C4.375 16.632 4.38374 16.5795 4.3999 16.5303H5.90625C6.12783 16.5303 6.31574 16.3862 6.38135 16.1865H10.3125C10.5886 16.1865 10.8125 16.4104 10.8125 16.6865V18.0866ZM16.1875 18.0928V20.624C16.1875 21.7286 17.0829 22.624 18.1875 22.624H20.625C21.7296 22.624 22.625 21.7286 22.625 20.624V16.6865C22.625 16.632 22.6163 16.5795 22.6001 16.5303H21.0938C20.8722 16.5303 20.6843 16.3862 20.6186 16.1865H16.6875C16.4114 16.1865 16.1875 16.4104 16.1875 16.6865V18.0866L16.1894 18.0872L16.1875 18.0928Z" fill="#0065FF"/>
</svg>
