<svg width="15" height="15" viewBox="0 0 15 15" fill="none" xmlns="http://www.w3.org/2000/svg">
<path d="M7.5 0.9375C8.53553 0.9375 9.375 1.77697 9.375 2.8125V6.5625H5.625V2.8125C5.625 1.77697 6.46447 0.9375 7.5 0.9375ZM10.3125 6.5625V2.8125C10.3125 1.2592 9.0533 0 7.5 0C5.9467 0 4.6875 1.2592 4.6875 2.8125V6.5625C3.65197 6.5625 2.8125 7.40197 2.8125 8.4375V13.125C2.8125 14.1605 3.65197 15 4.6875 15H10.3125C11.348 15 12.1875 14.1605 12.1875 13.125V8.4375C12.1875 7.40197 11.348 6.5625 10.3125 6.5625Z" fill="#000"/>
</svg>
