<svg width="150" height="150" viewBox="0 0 150 150" fill="none" xmlns="http://www.w3.org/2000/svg">
<path d="M89.0623 25.046C89.0623 27.6348 91.161 29.7335 93.7498 29.7335C96.3386 29.7335 98.4373 27.6348 98.4373 25.046V7.90448C98.4373 5.31564 96.3386 3.21698 93.7498 3.21698C91.161 3.21698 89.0623 5.31565 89.0623 7.90448V25.046Z" fill="#3454C5"/>
<path d="M131.25 25.3791C133.08 23.5485 133.08 20.5806 131.25 18.75C129.419 16.9194 126.451 16.9194 124.621 18.75L112.5 30.8709C110.669 32.7014 110.669 35.6694 112.5 37.5C114.33 39.3306 117.298 39.3306 119.129 37.5L131.25 25.3791Z" fill="#000"/>
<path d="M68.3707 37.5C70.2013 39.3306 73.1692 39.3306 74.9998 37.5C76.8304 35.6694 76.8304 32.7015 74.9998 30.8709L62.8789 18.75C61.0483 16.9194 58.0804 16.9194 56.2498 18.75C54.4192 20.5806 54.4192 23.5485 56.2498 25.3791L68.3707 37.5Z" fill="#000"/>
<path d="M62.5458 60.9375C65.1346 60.9375 67.2333 58.8388 67.2333 56.25C67.2333 53.6611 65.1346 51.5625 62.5458 51.5625H45.4043C42.8155 51.5625 40.7168 53.6611 40.7168 56.25C40.7168 58.8388 42.8155 60.9375 45.4043 60.9375H62.5458Z" fill="#000"/>
<path d="M142.095 60.9375C144.684 60.9375 146.783 58.8388 146.783 56.25C146.783 53.6611 144.684 51.5625 142.095 51.5625H124.954C122.365 51.5625 120.266 53.6611 120.266 56.25C120.266 58.8388 122.365 60.9375 124.954 60.9375H142.095Z" fill="#000"/>
<path d="M124.621 93.75C126.451 95.5806 129.419 95.5806 131.25 93.75C133.08 91.9194 133.08 88.9514 131.25 87.1209L119.129 75C117.298 73.1694 114.33 73.1694 112.5 75C110.669 76.8306 110.669 79.7985 112.5 81.6291L124.621 93.75Z" fill="#000"/>
<path d="M89.0623 104.595C89.0623 107.184 91.161 109.283 93.7498 109.283C96.3386 109.283 98.4373 107.184 98.4373 104.595V87.454C98.4373 84.8651 96.3386 82.7665 93.7498 82.7665C91.161 82.7665 89.0623 84.8651 89.0623 87.454V104.595Z" fill="#000"/>
<path d="M106.44 56.8186C108.27 54.9881 108.27 52.0201 106.44 50.1895L99.8104 43.5604C97.9798 41.7298 95.0119 41.7298 93.1813 43.5604L81.0604 55.6813C79.2298 57.5119 79.2298 60.4798 81.0604 62.3104L87.6895 68.9395C89.5201 70.7701 92.4881 70.7701 94.3187 68.9395L106.44 56.8186Z" fill="#000"/>
<path d="M78.3146 84.9436C80.1451 83.1131 80.1451 80.1451 78.3146 78.3145L71.6854 71.6854C69.8549 69.8548 66.8869 69.8548 65.0563 71.6854L6.06043 130.681C4.22985 132.512 4.22986 135.48 6.06044 137.31L12.6896 143.94C14.5201 145.77 17.4881 145.77 19.3187 143.94L78.3146 84.9436Z" fill="#000"/>
</svg>
