<svg width="150" height="150" viewBox="0 0 150 150" fill="none" xmlns="http://www.w3.org/2000/svg">
<path d="M145.327 18.1813C147.158 20.0119 147.158 22.9799 145.327 24.8104L135.55 34.5875L116.8 15.8375L126.577 6.06044C128.408 4.22985 131.376 4.22986 133.207 6.06044L145.327 18.1813Z" fill="#000"/>
<path d="M128.921 41.2166L110.171 22.4666L46.2995 86.3384C45.7849 86.853 45.3972 87.4803 45.1671 88.1707L37.6243 110.799C37.0136 112.631 38.7567 114.374 40.589 113.764L63.2172 106.221C63.9076 105.991 64.5349 105.603 65.0495 105.088L128.921 41.2166Z" fill="#000"/>
<path fill-rule="evenodd" clip-rule="evenodd" d="M9.375 126.562C9.375 134.329 15.671 140.625 23.4375 140.625H126.562C134.329 140.625 140.625 134.329 140.625 126.562V70.3125C140.625 67.7237 138.526 65.625 135.938 65.625C133.349 65.625 131.25 67.7237 131.25 70.3125V126.562C131.25 129.151 129.151 131.25 126.562 131.25H23.4375C20.8487 131.25 18.75 129.151 18.75 126.562V23.4375C18.75 20.8487 20.8487 18.75 23.4375 18.75H84.375C86.9638 18.75 89.0625 16.6513 89.0625 14.0625C89.0625 11.4737 86.9638 9.375 84.375 9.375H23.4375C15.671 9.375 9.375 15.671 9.375 23.4375V126.562Z" fill="#000"/>
</svg>
