<svg width="39" height="39" viewBox="0 0 39 39" fill="none" xmlns="http://www.w3.org/2000/svg">
<circle cx="19.5" cy="19.5" r="19.5" fill="black" fill-opacity="0.3"/>
<path d="M28.377 11.4242C28.6211 11.6683 28.6211 12.064 28.377 12.3081L27.0734 13.6117L24.5734 11.1117L25.877 9.80806C26.1211 9.56398 26.5168 9.56398 26.7609 9.80806L28.377 11.4242Z" fill="white"/>
<path d="M26.1895 14.4955L23.6895 11.9955L15.1733 20.5118C15.1047 20.5804 15.053 20.664 15.0223 20.7561L14.0166 23.7732C13.9351 24.0175 14.1676 24.2499 14.4119 24.1685L17.429 23.1628C17.521 23.1321 17.6047 23.0804 17.6733 23.0118L26.1895 14.4955Z" fill="white"/>
<path fill-rule="evenodd" clip-rule="evenodd" d="M10.25 25.875C10.25 26.9105 11.0895 27.75 12.125 27.75H25.875C26.9105 27.75 27.75 26.9105 27.75 25.875V18.375C27.75 18.0298 27.4702 17.75 27.125 17.75C26.7798 17.75 26.5 18.0298 26.5 18.375V25.875C26.5 26.2202 26.2202 26.5 25.875 26.5H12.125C11.7798 26.5 11.5 26.2202 11.5 25.875V12.125C11.5 11.7798 11.7798 11.5 12.125 11.5H20.25C20.5952 11.5 20.875 11.2202 20.875 10.875C20.875 10.5298 20.5952 10.25 20.25 10.25H12.125C11.0895 10.25 10.25 11.0895 10.25 12.125V25.875Z" fill="white"/>
</svg>
