<svg width="150" height="150" viewBox="0 0 150 150" fill="none"
    xmlns="http://www.w3.org/2000/svg">
    <path d="M140.625 131.25C140.625 131.25 150 131.25 150 121.875C150 112.5 140.625 84.375 103.125 84.375C65.625 84.375 56.25 112.5 56.25 121.875C56.25 131.25 65.625 131.25 65.625 131.25H140.625ZM65.8345 121.875C65.802 121.871 65.7566 121.865 65.7014 121.856C65.6754 121.852 65.65 121.847 65.6251 121.842C65.6387 119.367 67.1894 112.19 72.743 105.711C77.9376 99.6502 87.0252 93.75 103.125 93.75C119.225 93.75 128.312 99.6502 133.507 105.711C139.061 112.19 140.611 119.367 140.625 121.842C140.6 121.847 140.575 121.852 140.549 121.856C140.493 121.865 140.448 121.871 140.416 121.875H65.8345Z" fill="#000000"/>
    <path d="M103.125 65.625C113.48 65.625 121.875 57.2303 121.875 46.875C121.875 36.5197 113.48 28.125 103.125 28.125C92.7697 28.125 84.375 36.5197 84.375 46.875C84.375 57.2303 92.7697 65.625 103.125 65.625ZM131.25 46.875C131.25 62.408 118.658 75 103.125 75C87.592 75 75 62.408 75 46.875C75 31.342 87.592 18.75 103.125 18.75C118.658 18.75 131.25 31.342 131.25 46.875Z" fill="#000000"/>
    <path d="M65.0244 86.9997C61.5762 85.8967 57.7457 85.0949 53.4964 84.6849C51.3933 84.482 49.1876 84.375 46.875 84.375C9.375 84.375 0 112.5 0 121.875C0 128.125 3.125 131.25 9.375 131.25H48.9034C47.5834 128.587 46.875 125.429 46.875 121.875C46.875 112.404 50.4117 102.731 57.092 94.6518C59.3744 91.8914 62.0237 89.3168 65.0244 86.9997ZM46.1254 93.7543C40.524 102.315 37.5 112.075 37.5 121.875H9.375C9.375 119.431 10.9148 112.218 16.493 105.711C21.6064 99.7449 30.4921 93.9344 46.1254 93.7543Z" fill="#000000"/>
    <path d="M14.0625 51.5625C14.0625 36.0295 26.6545 23.4375 42.1875 23.4375C57.7205 23.4375 70.3125 36.0295 70.3125 51.5625C70.3125 67.0955 57.7205 79.6875 42.1875 79.6875C26.6545 79.6875 14.0625 67.0955 14.0625 51.5625ZM42.1875 32.8125C31.8322 32.8125 23.4375 41.2072 23.4375 51.5625C23.4375 61.9178 31.8322 70.3125 42.1875 70.3125C52.5428 70.3125 60.9375 61.9178 60.9375 51.5625C60.9375 41.2072 52.5428 32.8125 42.1875 32.8125Z" fill="#000000"/>
</svg>
