<svg width="150" height="150" viewBox="0 0 150 150" fill="none" xmlns="http://www.w3.org/2000/svg">
<path d="M65.625 131.25C65.625 131.25 56.25 131.25 56.25 121.875C56.25 112.5 65.625 84.375 103.125 84.375C140.625 84.375 150 112.5 150 121.875C150 131.25 140.625 131.25 140.625 131.25H65.625Z" fill="#000"/>
<path d="M103.125 75C118.658 75 131.25 62.408 131.25 46.875C131.25 31.342 118.658 18.75 103.125 18.75C87.592 18.75 75 31.342 75 46.875C75 62.408 87.592 75 103.125 75Z" fill="#000"/>
<path d="M48.9034 131.25C47.5834 128.587 46.875 125.429 46.875 121.875C46.875 109.168 53.2411 96.0989 65.0243 86.9997C59.8696 85.3509 53.8603 84.375 46.875 84.375C9.375 84.375 0 112.5 0 121.875C0 131.25 9.375 131.25 9.375 131.25H48.9034Z" fill="#000"/>
<path d="M42.1875 75C55.1317 75 65.625 64.5067 65.625 51.5625C65.625 38.6183 55.1317 28.125 42.1875 28.125C29.2433 28.125 18.75 38.6183 18.75 51.5625C18.75 64.5067 29.2433 75 42.1875 75Z" fill="#000"/>
</svg>
