<svg width="150" height="150" viewBox="0 0 150 150" fill="none" xmlns="http://www.w3.org/2000/svg">
<path fill-rule="evenodd" clip-rule="evenodd" d="M107.812 11.6848C115.614 3.66563 135.119 17.6991 107.812 35.7422C80.5062 17.6991 100.011 3.66563 107.812 11.6848ZM84.375 46.875C84.375 62.408 71.783 75 56.25 75C40.717 75 28.125 62.408 28.125 46.875C28.125 31.342 40.717 18.75 56.25 18.75C71.783 18.75 84.375 31.342 84.375 46.875ZM0 121.875C0 131.25 9.375 131.25 9.375 131.25H103.125C103.125 131.25 112.5 131.25 112.5 121.875C112.5 112.5 103.125 84.375 56.25 84.375C9.375 84.375 0 112.5 0 121.875ZM126.562 46.0371C139.566 32.6719 172.073 56.061 126.562 86.1328C81.0519 56.061 113.559 32.6719 126.562 46.0371ZM140.625 20.2898C145.826 14.9438 158.829 24.2994 140.625 36.3281C122.421 24.2994 135.424 14.9438 140.625 20.2898Z" fill="#3454C5"/>
</svg>
