<svg width="150" height="150" viewBox="0 0 150 150" fill="none"
    xmlns="http://www.w3.org/2000/svg">
    <path fill-rule="evenodd" clip-rule="evenodd" d="M75 18.75C77.5888 18.75 79.6875 20.8487 79.6875 23.4375V70.3125H126.562C129.151 70.3125 131.25 72.4112 131.25 75C131.25 77.5888 129.151 79.6875 126.562 79.6875H79.6875V126.562C79.6875 129.151 77.5888 131.25 75 131.25C72.4112 131.25 70.3125 129.151 70.3125 126.562V79.6875H23.4375C20.8487 79.6875 18.75 77.5888 18.75 75C18.75 72.4112 20.8487 70.3125 23.4375 70.3125H70.3125V23.4375C70.3125 20.8487 72.4112 18.75 75 18.75Z" fill="#000"/>
</svg>
