<svg width="27" height="27" viewBox="0 0 27 27" fill="none" xmlns="http://www.w3.org/2000/svg">
<path fill-rule="evenodd" clip-rule="evenodd" d="M13.125 0C13.7291 0 14.2188 0.489689 14.2188 1.09375V12.0312H25.1562C25.7603 12.0312 26.25 12.5209 26.25 13.125C26.25 13.7291 25.7603 14.2188 25.1562 14.2188H14.2187V25.1562C14.2187 25.7603 13.7291 26.25 13.125 26.25C12.5209 26.25 12.0312 25.7603 12.0312 25.1562V14.2188H1.09375C0.489689 14.2188 0 13.7291 0 13.125C0 12.5209 0.489689 12.0312 1.09375 12.0312H12.0312V1.09375C12.0312 0.489689 12.5209 0 13.125 0Z" fill="#000000"/>
</svg>
