<svg width="150" height="150" viewBox="0 0 150 150" fill="none" xmlns="http://www.w3.org/2000/svg">
<path d="M110.083 96.9739C117.496 86.881 121.875 74.4206 121.875 60.9375C121.875 27.2826 94.5924 0 60.9375 0C27.2826 0 0 27.2826 0 60.9375C0 94.5924 27.2826 121.875 60.9375 121.875C74.4242 121.875 86.8876 117.494 96.9821 110.077L96.9739 110.083C97.2504 110.458 97.5584 110.817 97.8978 111.156L133.996 147.254C137.657 150.915 143.593 150.915 147.254 147.254C150.915 143.593 150.915 137.657 147.254 133.996L111.156 97.8978C110.817 97.5584 110.458 97.2504 110.083 96.9739ZM112.5 60.9375C112.5 89.4147 89.4147 112.5 60.9375 112.5C32.4603 112.5 9.375 89.4147 9.375 60.9375C9.375 32.4603 32.4603 9.375 60.9375 9.375C89.4147 9.375 112.5 32.4603 112.5 60.9375Z" fill="black"/>
</svg>
