<svg width="150" height="150" viewBox="0 0 150 150" fill="none" xmlns="http://www.w3.org/2000/svg">
<path d="M126.562 9.375C118.796 9.375 112.5 15.671 112.5 23.4375C112.5 31.204 118.796 37.5 126.562 37.5C134.329 37.5 140.625 31.204 140.625 23.4375C140.625 15.671 134.329 9.375 126.562 9.375ZM103.125 23.4375C103.125 10.4933 113.618 0 126.562 0C139.507 0 150 10.4933 150 23.4375C150 36.3817 139.507 46.875 126.562 46.875C119.447 46.875 113.073 43.7045 108.774 38.6993L45.7967 67.9519C46.4973 70.1764 46.875 72.5441 46.875 75C46.875 77.4559 46.4973 79.8236 45.7967 82.0481L108.774 111.301C113.073 106.295 119.447 103.125 126.562 103.125C139.507 103.125 150 113.618 150 126.562C150 139.507 139.507 150 126.562 150C113.618 150 103.125 139.507 103.125 126.562C103.125 124.107 103.503 121.739 104.203 119.514L41.2255 90.2618C36.9271 95.267 30.5526 98.4375 23.4375 98.4375C10.4933 98.4375 0 87.9442 0 75C0 62.0558 10.4933 51.5625 23.4375 51.5625C30.5526 51.5625 36.9271 54.733 41.2255 59.7382L104.203 30.4856C103.503 28.2611 103.125 25.8934 103.125 23.4375ZM23.4375 60.9375C15.671 60.9375 9.375 67.2335 9.375 75C9.375 82.7665 15.671 89.0625 23.4375 89.0625C31.204 89.0625 37.5 82.7665 37.5 75C37.5 67.2335 31.204 60.9375 23.4375 60.9375ZM126.562 112.5C118.796 112.5 112.5 118.796 112.5 126.562C112.5 134.329 118.796 140.625 126.562 140.625C134.329 140.625 140.625 134.329 140.625 126.562C140.625 118.796 134.329 112.5 126.562 112.5Z" fill="black"/>
</svg>
