<svg width="150" height="150" viewBox="0 0 150 150" fill="none" xmlns="http://www.w3.org/2000/svg">
<path d="M131.25 9.375C136.428 9.375 140.625 13.5723 140.625 18.75V131.25C140.625 136.428 136.428 140.625 131.25 140.625H18.75C13.5723 140.625 9.375 136.428 9.375 131.25V18.75C9.375 13.5723 13.5723 9.375 18.75 9.375H131.25ZM18.75 0C8.39466 0 0 8.39466 0 18.75V131.25C0 141.605 8.39466 150 18.75 150H131.25C141.605 150 150 141.605 150 131.25V18.75C150 8.39466 141.605 0 131.25 0H18.75Z" fill="black"/>
</svg>
