<svg width="150" height="150" viewBox="0 0 150 150" fill="none"
    xmlns="http://www.w3.org/2000/svg">
    <path d="M71.7865 58.5662C72.816 55.4779 77.1844 55.4779 78.2138 58.5663L84.2651 76.7203C86.9625 84.8125 93.3124 91.1624 101.405 93.8598L119.559 99.9112C122.647 100.941 122.647 105.309 119.559 106.338L101.405 112.39C93.3124 115.087 86.9625 121.437 84.2651 129.529L78.2138 147.684C77.1844 150.772 72.816 150.772 71.7865 147.684L65.735 129.529C63.0376 121.437 56.6877 115.087 48.5956 112.39L30.4413 106.338C27.3529 105.309 27.3529 100.941 30.4413 99.9112L48.5956 93.8597C56.6877 91.1624 63.0376 84.8125 65.735 76.7205L71.7865 58.5662Z" fill="#000"/>
    <path d="M35.572 10.7647C36.1896 8.91174 38.8107 8.91176 39.4283 10.7648L43.0591 21.6572C44.6775 26.5125 48.4875 30.3225 53.3428 31.9409L64.2353 35.5718C66.0884 36.1894 66.0884 38.8105 64.2353 39.4282L53.3428 43.059C48.4875 44.6774 44.6775 48.4874 43.0591 53.3427L39.4283 64.2352C38.8107 66.0882 36.1896 66.0883 35.572 64.2353L31.941 53.3426C30.3226 48.4874 26.5126 44.6774 21.6574 43.059L10.7648 39.4282C8.91175 38.8105 8.91175 36.1894 10.7648 35.5718L21.6574 31.9409C26.5126 30.3225 30.3226 26.5126 31.941 21.6573L35.572 10.7647Z" fill="#000"/>
    <path d="M101.84 0.926498C102.251 -0.30884 103.999 -0.30883 104.411 0.926512L106.831 8.18813C107.91 11.425 110.45 13.965 113.687 15.0439L120.949 17.4645C122.184 17.8763 122.184 19.6237 120.949 20.0354L113.687 22.456C110.45 23.5349 107.91 26.0749 106.831 29.3118L104.411 36.5735C103.999 37.8088 102.251 37.8088 101.84 36.5735L99.4191 29.3117C98.3401 26.0749 95.8001 23.535 92.5633 22.456L85.3016 20.0354C84.0662 19.6237 84.0662 17.8763 85.3016 17.4645L92.5633 15.0439C95.8001 13.965 98.3401 11.425 99.4191 8.1882L101.84 0.926498Z" fill="#000"/>
</svg>
