<svg width="150" height="150" viewBox="0 0 150 150" fill="none" xmlns="http://www.w3.org/2000/svg">
<path d="M89.0625 121.875C89.0625 129.642 82.7665 135.938 75 135.938C67.2335 135.938 60.9375 129.642 60.9375 121.875C60.9375 114.108 67.2335 107.812 75 107.812C82.7665 107.812 89.0625 114.108 89.0625 121.875ZM89.0625 75C89.0625 82.7665 82.7665 89.0625 75 89.0625C67.2335 89.0625 60.9375 82.7665 60.9375 75C60.9375 67.2335 67.2335 60.9375 75 60.9375C82.7665 60.9375 89.0625 67.2335 89.0625 75ZM89.0625 28.125C89.0625 35.8915 82.7665 42.1875 75 42.1875C67.2335 42.1875 60.9375 35.8915 60.9375 28.125C60.9375 20.3585 67.2335 14.0625 75 14.0625C82.7665 14.0625 89.0625 20.3585 89.0625 28.125Z" fill="#000"/>
</svg>
