<svg width="150" height="150" viewBox="0 0 150 150" fill="none" xmlns="http://www.w3.org/2000/svg">
<path fill-rule="evenodd" clip-rule="evenodd" d="M75 0C61.6274 0 49.7977 5.25427 41.304 12.5795C34.1236 18.7722 28.92 26.8285 27.5834 34.9219C11.8675 38.3917 0 52.0792 0 68.608C0 87.8061 16.0082 103.125 35.4492 103.125H70.3125V51.5625C70.3125 48.9737 72.4112 46.875 75 46.875C77.5888 46.875 79.6875 48.9737 79.6875 51.5625V103.125H118.945C135.959 103.125 150 89.714 150 72.8693C150 57.5303 138.357 45.0385 123.428 42.928C121.156 18.7447 100.221 0 75 0Z" fill="#000"/>
<path fill-rule="evenodd" clip-rule="evenodd" d="M71.6854 148.627C73.516 150.458 76.484 150.458 78.3146 148.627L106.44 120.502C108.27 118.671 108.27 115.704 106.44 113.873C104.609 112.042 101.641 112.042 99.8104 113.873L79.6875 133.996V103.125H70.3125V133.996L50.1896 113.873C48.359 112.042 45.391 112.042 43.5604 113.873C41.7299 115.704 41.7299 118.671 43.5604 120.502L71.6854 148.627Z" fill="#000"/>
</svg>
