<svg width="15" height="15" viewBox="0 0 15 15" fill="none" xmlns="http://www.w3.org/2000/svg">
<path d="M7.5 0C3.35786 0 0 3.35786 0 7.5C0 11.6421 3.35786 15 7.5 15C11.6421 15 15 11.6421 15 7.5C15 3.35786 11.6421 0 7.5 0ZM3.43864 2.34487L3.16892 2.95014C2.97795 3.37871 3.19813 3.87854 3.64324 4.02691C3.98302 4.14017 4.35658 4.01201 4.55525 3.71399L4.78507 3.36927C4.99712 3.05119 5.41284 2.94079 5.75476 3.11175C5.96816 3.21845 6.21934 3.21845 6.43274 3.11175L6.67785 2.9892C6.90383 2.87621 7.16584 2.85921 7.40452 2.94206L8.32679 3.26217C8.40031 3.28769 8.4771 3.30328 8.55438 3.31243C9.28996 3.3995 9.3563 3.6654 9.20573 4.06323C9.06006 4.44815 8.62823 4.6417 8.23511 4.51985L8.22555 4.51689C7.75678 4.37155 7.2639 4.21875 5.625 4.21875C4.5 4.21875 3.28125 5.26808 3.28125 6.5625C3.28125 8.40008 4.05548 8.59292 4.87081 8.79599C5.30339 8.90373 5.74752 9.01435 6.09375 9.375C6.51422 9.81299 6.46217 10.4823 6.41142 11.1348C6.33245 12.1502 6.25663 13.125 7.96875 13.125C9.60938 13.125 10.7812 9.84375 10.7812 8.90625C10.7812 8.66022 10.9766 8.46735 11.1975 8.24936C11.5691 7.88253 12.0128 7.44457 11.7188 6.5625C11.6277 6.28931 11.3479 6.03 11.1175 5.85365C10.9545 5.72885 10.9239 5.48239 11.069 5.33721C11.1743 5.23199 11.3391 5.21566 11.4629 5.29821L12.4798 5.97615C12.5824 6.04453 12.719 6.031 12.8062 5.94383C12.9474 5.8026 13.1949 5.86621 13.2644 6.05345C13.4139 6.45605 13.682 7.0384 14.0602 7.32593C14.0617 7.38377 14.0625 7.4418 14.0625 7.5C14.0625 11.1244 11.1244 14.0625 7.5 14.0625C3.87563 14.0625 0.9375 11.1244 0.9375 7.5C0.9375 5.40912 1.91533 3.54663 3.43864 2.34487Z" fill="#000"/>
</svg>
