<svg width="60" height="60" viewBox="0 0 60 60" fill="none" xmlns="http://www.w3.org/2000/svg">
<path d="M30 56.25C15.5025 56.25 3.75 44.4975 3.75 30C3.75 15.5025 15.5025 3.75 30 3.75C44.4975 3.75 56.25 15.5025 56.25 30C56.25 44.4975 44.4975 56.25 30 56.25ZM30 60C46.5685 60 60 46.5685 60 30C60 13.4315 46.5685 0 30 0C13.4315 0 0 13.4315 0 30C0 46.5685 13.4315 60 30 60Z" fill="#FF8A00"/>
<path d="M17.4242 17.4242C18.1564 16.6919 19.3436 16.6919 20.0758 17.4242L30 27.3484L39.9242 17.4242C40.6564 16.6919 41.8436 16.6919 42.5758 17.4242C43.3081 18.1564 43.3081 19.3436 42.5758 20.0758L32.6516 30L42.5758 39.9242C43.3081 40.6564 43.3081 41.8436 42.5758 42.5758C41.8436 43.3081 40.6564 43.3081 39.9242 42.5758L30 32.6516L20.0758 42.5758C19.3436 43.3081 18.1564 43.3081 17.4242 42.5758C16.6919 41.8436 16.6919 40.6564 17.4242 39.9242L27.3484 30L17.4242 20.0758C16.6919 19.3436 16.6919 18.1564 17.4242 17.4242Z" fill="#FF8A00"/>
</svg>
