<svg width="150" height="150" viewBox="0 0 150 150" fill="none" xmlns="http://www.w3.org/2000/svg">
<rect width="150" height="150" rx="75" fill="url(#paint0_radial_785_15819)"/>
<path d="M75.012 38.1114C87.0362 38.1114 88.4477 38.165 93.2002 38.3794C97.5954 38.576 99.9716 39.3085 101.562 39.9338C103.67 40.7557 105.171 41.7205 106.743 43.2927C108.315 44.865 109.298 46.3658 110.102 48.4741C110.709 50.0642 111.46 52.4404 111.656 56.8356C111.871 61.5881 111.924 62.9996 111.924 75.0238C111.924 87.048 111.871 88.4595 111.656 93.212C111.46 97.6072 110.727 99.9835 110.102 101.574C109.28 103.682 108.315 105.183 106.743 106.755C105.171 108.327 103.67 109.31 101.562 110.114C99.9716 110.721 97.5954 111.472 93.2002 111.668C88.4477 111.883 87.0362 111.936 75.012 111.936C62.9877 111.936 61.5763 111.883 56.8238 111.668C52.4286 111.472 50.0523 110.739 48.4622 110.114C46.3539 109.292 44.8531 108.327 43.2809 106.755C41.7086 105.183 40.7259 103.682 39.9219 101.574C39.3145 99.9835 38.5641 97.6072 38.3676 93.212C38.1532 88.4595 38.0996 87.048 38.0996 75.0238C38.0996 62.9996 38.1532 61.5881 38.3676 56.8356C38.5641 52.4404 39.2966 50.0642 39.9219 48.4741C40.7438 46.3658 41.7086 44.865 43.2809 43.2927C44.8531 41.7205 46.3539 40.7378 48.4622 39.9338C50.0523 39.3264 52.4286 38.576 56.8238 38.3794C61.5763 38.1472 63.0056 38.1114 75.012 38.1114ZM75.012 30C62.7912 30 61.2547 30.0536 56.4486 30.268C51.6603 30.4824 48.3907 31.2507 45.5321 32.3584C42.5662 33.5019 40.0649 35.0562 37.5636 37.5576C35.0622 40.0589 33.5257 42.5781 32.3644 45.5261C31.2566 48.3847 30.4884 51.6543 30.274 56.4604C30.0596 61.2487 30.006 62.7852 30.006 75.006C30.006 87.2267 30.0596 88.7632 30.274 93.5693C30.4884 98.3576 31.2566 101.627 32.3644 104.504C33.5078 107.47 35.0622 109.971 37.5636 112.472C40.0649 114.974 42.5841 116.51 45.5321 117.671C48.3907 118.779 51.6603 119.547 56.4664 119.762C61.2725 119.976 62.7912 120.03 75.0298 120.03C87.2685 120.03 88.7871 119.976 93.5932 119.762C98.3815 119.547 101.651 118.779 104.528 117.671C107.493 116.528 109.995 114.974 112.496 112.472C114.997 109.971 116.534 107.452 117.695 104.504C118.803 101.645 119.571 98.3755 119.786 93.5693C120 88.7632 120.054 87.2446 120.054 75.006C120.054 62.7673 120 61.2487 119.786 56.4426C119.571 51.6543 118.803 48.3847 117.695 45.5082C116.552 42.5424 114.997 40.041 112.496 37.5397C109.995 35.0384 107.476 33.5019 104.528 32.3405C101.669 31.2328 98.3994 30.4645 93.5932 30.2501C88.7693 30.0536 87.2327 30 75.012 30Z" fill="white"/>
<path d="M75.012 51.9043C62.2552 51.9043 51.8926 62.2491 51.8926 75.0237C51.8926 87.7983 62.2373 98.143 75.012 98.143C87.7866 98.143 98.1313 87.7983 98.1313 75.0237C98.1313 62.2491 87.7866 51.9043 75.012 51.9043ZM75.012 90.0137C66.7219 90.0137 60.004 83.2959 60.004 75.0058C60.004 66.7157 66.7219 59.9979 75.012 59.9979C83.3021 59.9979 90.0199 66.7157 90.0199 75.0058C90.0199 83.2959 83.3021 90.0137 75.012 90.0137Z" fill="white"/>
<path d="M99.0426 56.3715C102.023 56.3715 104.438 53.9558 104.438 50.9758C104.438 47.9958 102.023 45.5801 99.0426 45.5801C96.0626 45.5801 93.6469 47.9958 93.6469 50.9758C93.6469 53.9558 96.0626 56.3715 99.0426 56.3715Z" fill="white"/>
<defs>
<radialGradient id="paint0_radial_785_15819" cx="0" cy="0" r="1" gradientUnits="userSpaceOnUse" gradientTransform="translate(45 142.5) rotate(-135.674) scale(112.703 170.396)">
<stop offset="0.0989789" stop-color="#FFD157"/>
<stop offset="0.430452" stop-color="#EA3B55"/>
<stop offset="0.716608" stop-color="#AC30BC"/>
<stop offset="1" stop-color="#4863D3"/>
</radialGradient>
</defs>
</svg>
