<svg width="150" height="150" viewBox="0 0 150 150" fill="none" xmlns="http://www.w3.org/2000/svg">
<rect width="150" height="150" rx="75" fill="url(#paint0_linear_785_15823)"/>
<path fill-rule="evenodd" clip-rule="evenodd" d="M33.9504 74.2087C55.8144 64.6829 70.3939 58.4029 77.6887 55.3687C98.517 46.7055 102.845 45.2006 105.666 45.1509C106.286 45.14 107.674 45.2938 108.572 46.0229C109.331 46.6386 109.54 47.4703 109.64 48.054C109.739 48.6377 109.864 49.9675 109.765 51.0065C108.636 62.8657 103.752 91.645 101.268 104.928C100.216 110.548 98.1464 112.432 96.1423 112.617C91.7869 113.018 88.4796 109.739 84.2612 106.973C77.6602 102.646 73.9311 99.9527 67.5237 95.7303C60.1188 90.8507 64.9191 88.1687 69.1391 83.7856C70.2435 82.6386 89.4334 65.1838 89.8048 63.6004C89.8513 63.4024 89.8944 62.6642 89.4559 62.2744C89.0173 61.8847 88.3701 62.0179 87.903 62.124C87.241 62.2742 76.6958 69.2442 56.2676 83.0338C53.2744 85.0891 50.5632 86.0906 48.1341 86.0381C45.4562 85.9802 40.3051 84.524 36.4757 83.2792C31.7788 81.7524 28.0458 80.9452 28.3709 78.3523C28.5402 77.0017 30.4 75.6205 33.9504 74.2087Z" fill="white"/>
<defs>
<linearGradient id="paint0_linear_785_15823" x1="75" y1="0" x2="75" y2="148.888" gradientUnits="userSpaceOnUse">
<stop stop-color="#2AABEE"/>
<stop offset="1" stop-color="#229ED9"/>
</linearGradient>
</defs>
</svg>
