<svg width="150" height="150" viewBox="0 0 150 150" fill="none" xmlns="http://www.w3.org/2000/svg">
<rect width="150" height="150" rx="75" fill="#1D9BF0"/>
<path d="M61.275 114.563C94.5374 114.563 112.725 87 112.725 63.1125C112.725 62.325 112.725 61.5375 112.687 60.7875C116.212 58.2375 119.287 55.05 121.725 51.4125C118.5 52.8375 115.012 53.8125 111.337 54.2625C115.087 52.0125 117.937 48.4875 119.287 44.25C115.8 46.3125 111.937 47.8125 107.812 48.6375C104.512 45.1125 99.825 42.9375 94.6125 42.9375C84.6375 42.9375 76.5375 51.0375 76.5375 61.0125C76.5375 62.4375 76.6875 63.825 77.025 65.1375C61.9875 64.3875 48.675 57.1875 39.75 46.2375C38.2125 48.9 37.3125 52.0125 37.3125 55.3125C37.3125 61.575 40.5 67.125 45.375 70.35C42.4125 70.275 39.6375 69.45 37.2 68.1C37.2 68.175 37.2 68.25 37.2 68.325C37.2 77.1 43.4249 84.375 51.7125 86.0625C50.2125 86.475 48.6 86.7 46.95 86.7C45.7875 86.7 44.6625 86.5875 43.5375 86.3625C45.825 93.5625 52.5 98.775 60.4125 98.925C54.225 103.763 46.425 106.65 37.95 106.65C36.4875 106.65 35.0625 106.575 33.6375 106.388C41.55 111.563 51.0749 114.563 61.275 114.563Z" fill="white"/>
</svg>
