<svg width="150" height="150" viewBox="0 0 150 150" fill="none" xmlns="http://www.w3.org/2000/svg">
<rect width="150" height="150" rx="75" fill="url(#paint0_linear_785_15822)"/>
<path d="M29.5061 118.634L35.9369 95.2818C31.9611 88.4275 29.8754 80.665 29.8972 72.7295C29.8972 47.8636 50.2325 27.6465 75.1955 27.6465C87.3184 27.6465 98.7028 32.3386 107.241 40.8579C115.801 49.3772 120.515 60.7074 120.494 72.7511C120.494 97.6171 100.158 117.834 75.1737 117.834H75.152C67.5697 117.834 60.1177 115.931 53.4914 112.342L29.5061 118.634ZM54.6428 104.19L56.0116 105.012C61.7906 108.428 68.417 110.223 75.1737 110.245H75.1955C95.9436 110.245 112.846 93.4439 112.846 72.7728C112.846 62.7615 108.936 53.3557 101.831 46.2635C94.7269 39.1713 85.2545 35.2792 75.1955 35.2792C54.4473 35.2576 37.5446 52.0583 37.5446 72.7295C37.5446 79.8001 39.5217 86.6977 43.302 92.6655L44.1927 94.0926L40.3907 107.909L54.6428 104.19Z" fill="white"/>
<path d="M31.0922 117.055L37.3057 94.5031C33.4603 87.9082 31.4398 80.4052 31.4398 72.7508C31.4615 48.7498 51.0799 29.2246 75.1955 29.2246C86.9057 29.2246 97.8773 33.7653 106.133 41.9819C114.389 50.1985 118.93 61.1395 118.93 72.7724C118.93 96.7735 99.2894 116.299 75.1955 116.299H75.1738C67.8522 116.299 60.661 114.461 54.2736 111.001L31.0922 117.055Z" fill="url(#paint1_linear_785_15822)"/>
<path d="M29.5061 118.634L35.9369 95.2818C31.9611 88.4275 29.8754 80.665 29.8972 72.7295C29.8972 47.8636 50.2325 27.6465 75.1955 27.6465C87.3184 27.6465 98.7028 32.3386 107.241 40.8579C115.801 49.3772 120.515 60.7074 120.494 72.7511C120.494 97.6171 100.158 117.834 75.1737 117.834H75.152C67.5697 117.834 60.1177 115.931 53.4914 112.342L29.5061 118.634ZM54.6428 104.19L56.0116 105.012C61.7906 108.428 68.417 110.223 75.1737 110.245H75.1955C95.9436 110.245 112.846 93.4439 112.846 72.7728C112.846 62.7615 108.936 53.3557 101.831 46.2635C94.7269 39.1713 85.2545 35.2792 75.1955 35.2792C54.4473 35.2576 37.5446 52.0583 37.5446 72.7295C37.5446 79.8001 39.5217 86.6977 43.302 92.6655L44.1927 94.0926L40.3907 107.909L54.6428 104.19Z" fill="url(#paint2_linear_785_15822)"/>
<path fill-rule="evenodd" clip-rule="evenodd" d="M63.876 53.8749C63.0287 51.9937 62.1379 51.9505 61.3341 51.9289C60.6823 51.9072 59.9219 51.9072 59.1615 51.9072C58.4011 51.9072 57.1844 52.1883 56.1416 53.3127C55.0988 54.4371 52.1875 57.1615 52.1875 62.7185C52.1875 68.2539 56.2502 73.6163 56.8151 74.3731C57.38 75.1299 64.6581 86.8709 76.1511 91.39C85.7104 95.1523 87.6657 94.3955 89.7297 94.2009C91.7936 94.0063 96.4212 91.4765 97.3772 88.8385C98.3114 86.2006 98.3114 83.9519 98.0289 83.4762C97.7465 83.0005 96.9861 82.7194 95.8564 82.1572C94.7266 81.595 89.1648 78.8706 88.122 78.4813C87.0791 78.1138 86.3187 77.9192 85.5801 79.0435C84.8196 80.1679 82.6471 82.6977 81.9953 83.4545C81.3435 84.2113 80.67 84.2978 79.5403 83.7356C78.4105 83.1734 74.7606 81.9842 70.4372 78.1354C67.0697 75.1515 64.7885 71.454 64.1367 70.3296C63.4849 69.2053 64.0715 68.5998 64.6364 68.0377C65.1361 67.5403 65.7661 66.7187 66.331 66.07C66.8959 65.4213 67.0914 64.9456 67.4607 64.1888C67.8301 63.432 67.6563 62.7834 67.3738 62.2212C67.0914 61.6806 64.8754 56.102 63.876 53.8749Z" fill="white"/>
<defs>
<linearGradient id="paint0_linear_785_15822" x1="74.9961" y1="149.993" x2="74.9961" y2="-0.00524811" gradientUnits="userSpaceOnUse">
<stop stop-color="#20B038"/>
<stop offset="1" stop-color="#60D66A"/>
</linearGradient>
<linearGradient id="paint1_linear_785_15822" x1="75.0086" y1="117.051" x2="75.0086" y2="29.2215" gradientUnits="userSpaceOnUse">
<stop stop-color="#20B038"/>
<stop offset="1" stop-color="#60D66A"/>
</linearGradient>
<linearGradient id="paint2_linear_785_15822" x1="75.0088" y1="118.626" x2="75.0088" y2="27.6465" gradientUnits="userSpaceOnUse">
<stop stop-color="#F9F9F9"/>
<stop offset="1" stop-color="white"/>
</linearGradient>
</defs>
</svg>
