<svg width="90" height="90" viewBox="0 0 90 90" fill="none" xmlns="http://www.w3.org/2000/svg">
<g filter="url(#filter0_d_1035_11551)">
<path d="M71.0242 43.586C70.7786 44.5071 70.6196 45.4644 70.2692 46.3459C69.5901 48.0545 68.4594 49.42 66.794 50.2906C64.2473 51.62 61.3645 50.6699 60.1002 48.0871C58.4096 44.6336 59.8834 39.6159 63.1708 37.6182C66.2558 35.747 69.7093 37.1486 70.7208 40.6888C70.84 41.1078 70.923 41.5377 71.0206 41.9604C71.0242 42.5058 71.0242 43.0441 71.0242 43.586ZM62.4483 44.4602C62.4447 45.562 62.5603 46.3025 62.9757 46.9744C63.4417 47.7294 64.1967 48.0365 65.0239 47.7294C65.4249 47.5813 65.8259 47.3465 66.1402 47.0575C67.4262 45.8618 67.9861 44.3446 67.9536 42.607C67.9464 42.2421 67.8741 41.8664 67.7694 41.516C67.2384 39.699 65.6995 39.2763 64.3087 40.5587C63.0768 41.6966 62.4988 43.1308 62.4483 44.4602Z" fill="#000"/>
<path d="M19 41.9645C19.1842 41.2998 19.2962 40.6099 19.5599 39.9813C20.9616 36.6001 24.7257 35.7403 27.5868 38.1642C29.7073 39.9596 30.6248 42.3149 30.6176 45.0604C30.614 46.1983 30.372 47.2712 29.8301 48.2718C28.3743 50.9667 25.1917 51.7073 22.6161 49.9372C20.5389 48.5103 19.4805 46.462 19.1011 44.02C19.0795 43.8755 19.0325 43.7346 19 43.5901C19 43.0446 19 42.5064 19 41.9645ZM27.594 44.8617C27.5723 44.5908 27.5687 44.3198 27.529 44.0561C27.2905 42.5281 26.6511 41.2095 25.3687 40.2956C24.0935 39.3852 22.8292 39.826 22.3198 41.2998C21.8863 42.557 22.0128 43.7996 22.4932 45.0098C22.9051 46.0502 23.5155 46.9569 24.5162 47.5277C25.618 48.1599 26.6475 47.8709 27.1713 46.7221C27.4314 46.155 27.6229 44.8725 27.594 44.8617Z" fill="#000"/>
<path d="M55.3331 67.7323C53.1114 67.3855 50.8717 67.1362 48.679 66.6666C46.0058 66.0958 43.3903 66.2439 40.728 66.7352C38.5714 67.1326 36.3858 67.3963 34.2003 67.5986C32.8493 67.7214 31.491 67.5011 30.2628 66.8436C28.3807 65.8357 27.6293 64.1451 27.5534 62.1185C27.4595 59.6368 28.005 57.2562 28.9298 54.9623C30.3061 51.5522 32.3652 48.6044 35.1757 46.2274C38.3076 43.5759 41.8695 42.0623 46.0672 42.3693C48.7729 42.568 51.2004 43.5506 53.386 45.104C57.468 48.0047 60.1882 51.9134 61.691 56.6638C62.3087 58.6217 62.6736 60.6411 62.4099 62.7038C62.0558 65.4673 60.311 67.1651 57.5331 67.5083C56.8142 67.5986 56.0845 67.6094 55.3584 67.6564C55.3475 67.6781 55.3403 67.707 55.3331 67.7323ZM44.9943 45.3785C42.4656 45.3857 40.2259 46.2563 38.2065 47.7157C35.2335 49.8615 33.1491 52.7118 31.7727 56.0822C30.9997 57.9715 30.5373 59.9402 30.5951 61.9993C30.6421 63.5418 31.3176 64.286 32.8456 64.4883C33.2791 64.5461 33.7307 64.6147 34.1606 64.5606C36.2738 64.3005 38.3835 64.0331 40.486 63.7044C42.5595 63.3793 44.6258 62.9675 46.7355 63.2926C48.5742 63.578 50.4021 63.9175 52.2372 64.2138C53.8411 64.4739 55.4487 64.7159 57.0815 64.4883C58.6963 64.2643 59.4332 63.4804 59.4224 61.8548C59.4151 60.9662 59.3573 60.0558 59.1695 59.1889C58.1291 54.3699 55.6293 50.4612 51.6195 47.5749C49.6652 46.1696 47.4507 45.3677 44.9943 45.3785Z" fill="#000"/>
<path d="M44.0906 32.4488C44.0075 35.0678 43.397 37.6109 41.5077 39.6772C38.8923 42.5383 34.9836 42.3613 32.5994 39.2871C30.7534 36.9065 30.1971 34.1574 30.4283 31.2241C30.5945 29.1145 31.2231 27.1529 32.5633 25.4731C33.8927 23.8042 35.5833 22.7963 37.7869 23.0347C39.8351 23.2551 41.2801 24.4689 42.3674 26.1414C43.5884 28.0271 44.04 30.1332 44.0906 32.4488ZM33.4158 32.4668C33.4411 32.7739 33.4519 33.2001 33.5134 33.6156C33.7554 35.2665 34.2611 36.8017 35.5399 37.9722C36.5623 38.9078 37.888 38.8933 38.9212 37.9577C39.5895 37.3544 40.041 36.6103 40.3698 35.7903C41.132 33.8757 41.2078 31.9069 40.7057 29.9309C40.3914 28.6918 39.8496 27.5503 38.8453 26.6869C37.87 25.8488 36.6381 25.8163 35.6555 26.64C35.3846 26.8675 35.1317 27.124 34.9222 27.4058C33.8312 28.8724 33.4736 30.5667 33.4158 32.4668Z" fill="#000"/>
<path d="M59.6502 32.4579C59.5996 34.9071 59.0324 37.2949 57.3924 39.3071C55.8752 41.1711 53.9389 42.1356 51.4933 41.5359C49.5895 41.0663 48.2385 39.7911 47.3787 38.0969C45.3305 34.0726 45.3521 30.0267 47.6858 26.1253C48.8779 24.1312 50.6696 22.8777 53.1225 23.0186C55.2755 23.1414 56.7819 24.3841 57.9162 26.1144C59.1589 28.0074 59.6213 30.1279 59.6502 32.4579ZM56.594 32.3062C56.5435 30.5108 56.1714 28.766 55.001 27.2813C53.9317 25.9266 52.5012 25.6376 51.3343 26.5696C50.8828 26.9308 50.4818 27.3969 50.1747 27.8881C49.0585 29.6908 48.8201 31.6812 49.091 33.7403C49.268 35.0733 49.6979 36.3413 50.5613 37.4069C51.2657 38.2739 52.1255 38.8916 53.3248 38.599C54.2712 38.3678 54.8818 37.6851 55.3767 36.894C56.2509 35.5068 56.5615 33.9643 56.594 32.3062Z" fill="#000"/>
</g>
<defs>
<filter id="filter0_d_1035_11551" x="18" y="22" width="56.0234" height="48.7324" filterUnits="userSpaceOnUse" color-interpolation-filters="sRGB">
<feFlood flood-opacity="0" result="BackgroundImageFix"/>
<feColorMatrix in="SourceAlpha" type="matrix" values="0 0 0 0 0 0 0 0 0 0 0 0 0 0 0 0 0 0 127 0" result="hardAlpha"/>
<feOffset dx="1" dy="1"/>
<feGaussianBlur stdDeviation="1"/>
<feComposite in2="hardAlpha" operator="out"/>
<feColorMatrix type="matrix" values="0 0 0 0 0 0 0 0 0 0 0 0 0 0 0 0 0 0 0.3 0"/>
<feBlend mode="normal" in2="BackgroundImageFix" result="effect1_dropShadow_1035_11551"/>
<feBlend mode="normal" in="SourceGraphic" in2="effect1_dropShadow_1035_11551" result="shape"/>
</filter>
</defs>
</svg>
