<svg width="90" height="90" viewBox="0 0 90 90" fill="none" xmlns="http://www.w3.org/2000/svg">
<g filter="url(#filter0_d_1035_11545)">
<path d="M14.0088 67.7866C14.2966 67.2903 14.7282 67.1582 15.2891 67.1611C18.8481 67.1817 22.41 67.1699 25.9689 67.1699C26.1892 67.1699 26.4094 67.1699 26.6766 67.1699C26.6942 66.9585 26.7177 66.7823 26.7177 66.6091C26.7207 64.1278 26.7295 61.6465 26.703 59.1622C26.7001 58.8774 26.5503 58.5338 26.3536 58.3254C25.4874 57.4092 24.5947 56.5165 23.6785 55.6503C23.4847 55.4653 23.1646 55.3272 22.8945 55.3155C18.6543 55.1334 14.8751 51.2015 14.9837 47.067C15.0131 45.9747 15.2774 45.7016 16.358 45.6546C20.4102 45.4726 24.5301 49.3105 24.6182 53.3745C24.627 53.815 24.7386 54.1351 25.0645 54.4375C25.5813 54.922 26.0512 55.4594 26.659 56.0966C26.659 51.827 26.659 47.7395 26.659 43.6402C26.1392 43.514 25.5989 43.4229 25.0821 43.2555C22.1046 42.2953 19.8347 39.2796 19.87 36.3578C19.8846 35.2097 20.1695 34.9131 21.3059 34.8691C25.0997 34.7252 28.8173 38.6512 28.6 42.4304C28.4737 44.6357 28.5765 46.8527 28.5765 49.2195C29.293 48.5 29.9361 47.8687 30.5527 47.2139C30.6408 47.1199 30.6203 46.9055 30.6261 46.747C30.7788 42.6976 34.2291 39.1122 38.2697 38.8039C38.3901 38.7951 38.5134 38.7863 38.6338 38.7863C39.9992 38.7833 40.2782 39.0623 40.2811 40.4219C40.29 44.4683 36.6018 48.2269 32.4174 48.4619C32.1296 48.4765 31.789 48.6204 31.5805 48.8172C30.6496 49.6981 29.7511 50.6113 28.8584 51.5304C28.7057 51.689 28.5559 51.9357 28.5559 52.1441C28.5413 57.0686 28.5442 61.99 28.5471 66.9144C28.5471 66.9732 28.5706 67.029 28.5912 67.1288C32.5466 67.1288 36.5049 67.1288 40.5278 67.1288C40.7715 65.1878 41.0153 63.238 41.2707 61.2089C41.0123 61.1972 40.8009 61.1796 40.5895 61.1796C39.3092 61.1766 38.026 61.1825 36.7457 61.1766C35.7943 61.1737 35.4742 60.8066 35.5505 59.8464C35.8442 56.217 38.5633 53.583 42.1928 53.4949C43.6522 53.4597 45.141 53.4098 46.571 53.6388C49.6778 54.1351 51.9652 56.9393 52.0298 60.0843C52.0445 60.7978 51.6922 61.1649 50.9463 61.1737C49.6455 61.1854 48.3417 61.1766 47.0408 61.1766C46.8206 61.1766 46.6033 61.1766 46.295 61.1766C46.5475 63.2087 46.7912 65.1731 47.0408 67.1699C47.3051 67.1699 47.5077 67.1699 47.7074 67.1699C52.347 67.1699 56.9836 67.1611 61.6232 67.1846C62.1195 67.1875 62.3338 67.0319 62.4924 66.5768C62.7978 65.6958 63.1766 64.8384 63.5436 63.9193C59.6646 62.8974 57.6972 60.3456 57.5092 56.2875C57.2215 56.2875 56.9249 56.2992 56.6312 56.2845C55.9617 56.2552 55.5859 55.8999 55.6035 55.3331C55.6182 54.784 55.9764 54.4786 56.6283 54.4581C56.69 54.4551 56.7516 54.4493 56.8104 54.4581C57.6737 54.599 58.1787 54.3553 58.5957 53.4567C59.324 51.8858 61.1857 51.1986 62.8477 51.6391C64.5596 52.0942 65.7371 53.5801 65.7313 55.3478C65.7283 55.7648 65.8487 56.0232 66.1659 56.2669C66.7473 56.7132 67.3081 57.1831 67.8661 57.6559C68.3535 58.0699 68.4299 58.5661 68.098 58.9949C67.7545 59.4412 67.223 59.4794 66.7032 59.0624C65.8781 58.4017 65.0764 57.7116 64.2454 57.0539C63.8226 56.7191 63.7257 56.3198 63.8285 55.8118C64.0692 54.6049 63.3586 53.5331 62.2281 53.3716C61.0154 53.1983 60.0287 53.9706 59.8848 55.2039C59.8643 55.383 59.8672 55.6092 59.7615 55.7295C59.0802 56.5048 59.3944 57.3563 59.6176 58.1462C60.7012 61.9636 65.2115 63.3966 68.5561 60.9946C69.0465 60.6422 69.4694 60.19 69.901 59.7613C70.3738 59.2914 70.8877 59.2092 71.2929 59.5704C71.7128 59.9433 71.7187 60.4543 71.2753 60.974C69.904 62.5803 68.2008 63.6139 66.0836 63.884C65.6461 63.9398 65.4083 64.1013 65.2585 64.5271C64.959 65.3846 64.5978 66.2185 64.2219 67.1641C64.5273 67.1641 64.7388 67.1641 64.9502 67.1641C68.3476 67.1641 71.7451 67.1641 75.1426 67.1641C75.3246 67.1641 75.5126 67.1494 75.6917 67.1758C76.1733 67.2521 76.464 67.5487 76.4875 68.0332C76.5109 68.5236 76.2349 68.8408 75.768 68.9582C75.5742 69.0081 75.3628 68.9905 75.1602 68.9905C55.2247 68.9905 35.2863 68.9905 15.3508 68.9993C14.7811 68.9993 14.3083 68.8995 14 68.3856C14.0088 68.1918 14.0088 67.9892 14.0088 67.7866ZM37.5209 59.3179C41.6994 59.3179 45.878 59.3179 50.0595 59.3179C49.8598 57.3123 47.8513 55.4388 45.7312 55.339C44.4333 55.2773 43.1295 55.2744 41.8316 55.339C39.7085 55.4476 37.6912 57.3416 37.5209 59.3179ZM38.3871 40.6774C35.5329 40.7214 32.3028 44.0014 32.5759 46.5385C35.2451 46.6236 38.4782 43.4494 38.3871 40.6774ZM22.7711 53.4039C22.7271 50.5262 19.2738 47.1493 16.863 47.5839C16.957 50.4234 19.9404 53.3833 22.7711 53.4039ZM44.4597 61.2501C43.1823 61.0386 43.1647 61.0357 43.0062 62.2103C42.7859 63.8341 42.598 65.4638 42.3924 67.1229C43.3468 67.1229 44.2424 67.1229 45.1938 67.1229C44.9442 65.1262 44.7005 63.1793 44.4597 61.2501ZM26.6942 41.7022C26.6913 39.3853 23.8253 36.5693 21.7786 36.8247C21.9137 39.1739 24.304 41.5671 26.6942 41.7022Z" fill="#000" stroke="#000" stroke-width="0.5" stroke-miterlimit="10"/>
<path d="M58.2279 42.2295C54.5494 42.2342 51.5608 39.5102 51.4971 36.0933C51.4335 32.6694 54.3661 29.8153 58.0472 29.7326C59.2513 29.7042 60.3867 29.9643 61.4457 30.5011C62.0159 30.7895 62.2068 31.201 61.9701 31.6101C61.7333 32.0191 61.2878 32.083 60.6845 31.7921C58.0446 30.5129 54.9007 31.4422 53.61 33.8801C52.3346 36.2872 53.4318 39.1697 56.0564 40.3165C57.8944 41.1181 60.1346 40.8107 61.634 39.5504C63.1971 38.238 63.7571 36.266 63.0825 34.4476C63.0316 34.3081 62.9705 34.1733 62.9222 34.0314C62.772 33.5963 62.9502 33.2014 63.3549 33.0572C63.7699 32.9106 64.1874 33.0737 64.391 33.497C64.806 34.3624 64.9918 35.2752 64.9511 36.221C64.806 39.5717 61.8326 42.2247 58.2279 42.2295Z" fill="#000" stroke="#000" stroke-width="0.5" stroke-miterlimit="10"/>
<path d="M59.1826 25.4003C59.1826 25.8954 59.1918 26.3881 59.1795 26.8833C59.1641 27.4795 58.7956 27.817 58.1938 27.8071C57.6134 27.7972 57.2756 27.4745 57.2725 26.8981C57.2633 25.893 57.2633 24.8854 57.2725 23.8803C57.2787 23.3506 57.6318 23.0205 58.1753 23.0008C58.7404 22.9811 59.158 23.326 59.1795 23.8655C59.1979 24.3779 59.1826 24.8878 59.1826 25.4003Z" fill="#000" stroke="#000" stroke-width="0.5" stroke-miterlimit="10"/>
<path d="M69.2579 36.4547C68.7284 36.4547 68.2014 36.4701 67.6719 36.4486C67.1843 36.4302 66.8814 36.0528 66.8789 35.5097C66.8765 34.9697 67.1745 34.5678 67.6645 34.5555C68.7383 34.531 69.8121 34.531 70.8858 34.5555C71.3685 34.5647 71.6837 34.9789 71.6862 35.5036C71.6887 36.0497 71.3587 36.4363 70.8415 36.4517C70.3145 36.467 69.7874 36.4547 69.2579 36.4547Z" fill="#000" stroke="#000" stroke-width="0.5" stroke-miterlimit="10"/>
<path d="M47.131 36.454C46.6199 36.454 46.1064 36.4694 45.5953 36.451C45.0744 36.4326 44.7583 36.055 44.7658 35.4933C44.7707 34.9622 45.0793 34.5632 45.5682 34.554C46.6422 34.5325 47.7186 34.5294 48.7951 34.5571C49.279 34.5693 49.5802 34.9868 49.5728 35.524C49.5654 36.0734 49.2716 36.4326 48.7704 36.451C48.2248 36.4663 47.6767 36.451 47.131 36.454Z" fill="#000" stroke="#000" stroke-width="0.5" stroke-miterlimit="10"/>
<path d="M57.2718 46.0784C57.2718 45.6558 57.2596 45.2312 57.2749 44.8086C57.2902 44.4037 57.63 44.1667 58.1751 44.1529C58.7385 44.1391 59.1579 44.384 59.1702 44.7987C59.1947 45.6459 59.1947 46.4912 59.1702 47.3384C59.1579 47.7492 58.7446 48.0059 58.1904 47.998C57.6331 47.9901 57.2871 47.7373 57.2718 47.3088C57.2596 46.898 57.2688 46.4892 57.2718 46.0784Z" fill="#000" stroke="#000" stroke-width="0.5" stroke-miterlimit="10"/>
<path d="M66.8805 43.2259C66.8831 43.9369 66.189 44.4002 65.7044 44.0097C65.1281 43.5464 64.62 42.9754 64.1406 42.399C63.8918 42.0973 63.9783 41.6556 64.2926 41.4616C64.544 41.3054 65.0338 41.1896 65.2093 41.3323C65.7882 41.7929 66.2806 42.3747 66.7914 42.9242C66.87 43.0077 66.8648 43.1666 66.8805 43.2259Z" fill="#000" stroke="#000" stroke-width="0.5" stroke-miterlimit="10"/>
<path d="M50.1749 27.8066C50.8956 27.8121 52.5119 28.8468 52.4573 29.1953C52.43 29.3686 52.258 29.6034 52.045 29.6738C51.8102 29.7514 51.3652 29.7514 51.1714 29.6521C50.6281 29.3686 50.1257 29.0364 49.6944 28.6788C49.5415 28.5506 49.5442 28.2671 49.648 28.0992C49.7408 27.9475 50.0684 27.8608 50.1749 27.8066Z" fill="#000" stroke="#000" stroke-width="0.5" stroke-miterlimit="10"/>
<path d="M66.8805 28.4104C66.8751 29.1115 65.321 30.7413 64.8147 30.6898C64.5561 30.6628 64.2194 30.4868 64.0955 30.2756C63.9716 30.0645 63.9555 29.6286 64.0928 29.4554C64.548 28.8923 65.0652 28.3698 65.6227 27.9123C65.7977 27.7688 66.2152 27.7823 66.4441 27.8879C66.6704 27.9908 66.7997 28.3048 66.8805 28.4104Z" fill="#000" stroke="#000" stroke-width="0.5" stroke-miterlimit="10"/>
<path d="M51.8193 41.2676C51.9985 41.4096 52.3169 41.5438 52.3998 41.7607C52.4934 42.0059 52.4801 42.4061 52.3249 42.5946C51.9156 43.0954 51.4234 43.5394 50.9231 43.9628C50.5887 44.2442 50.1928 44.2003 49.8664 43.906C49.5641 43.6298 49.4598 43.2451 49.73 42.9405C50.2088 42.4009 50.7546 41.9182 51.2896 41.4302C51.3859 41.345 51.5625 41.3424 51.8193 41.2676Z" fill="#000" stroke="#000" stroke-width="0.5" stroke-miterlimit="10"/>
<path d="M62.8198 55.3473C62.8286 55.8436 62.3822 56.287 61.886 56.2782C61.4015 56.2694 61.0051 55.8671 60.9962 55.3767C60.9874 54.8746 61.3574 54.484 61.8537 54.4635C62.3793 54.4458 62.811 54.8423 62.8198 55.3473Z" fill="#000"/>
</g>
<defs>
<filter id="filter0_d_1035_11545" x="12.7461" y="21.75" width="66.9922" height="50.5" filterUnits="userSpaceOnUse" color-interpolation-filters="sRGB">
<feFlood flood-opacity="0" result="BackgroundImageFix"/>
<feColorMatrix in="SourceAlpha" type="matrix" values="0 0 0 0 0 0 0 0 0 0 0 0 0 0 0 0 0 0 127 0" result="hardAlpha"/>
<feOffset dx="1" dy="1"/>
<feGaussianBlur stdDeviation="1"/>
<feComposite in2="hardAlpha" operator="out"/>
<feColorMatrix type="matrix" values="0 0 0 0 0 0 0 0 0 0 0 0 0 0 0 0 0 0 0.3 0"/>
<feBlend mode="normal" in2="BackgroundImageFix" result="effect1_dropShadow_1035_11545"/>
<feBlend mode="normal" in="SourceGraphic" in2="effect1_dropShadow_1035_11545" result="shape"/>
</filter>
</defs>
</svg>
