<svg width="90" height="90" viewBox="0 0 90 90" fill="none" xmlns="http://www.w3.org/2000/svg">
<g filter="url(#filter0_d_1035_11547)">
<path d="M38.745 36.7808C38.8766 36.1469 38.9808 35.5896 39.1155 35.0414C39.1369 34.9495 39.2931 34.8515 39.4034 34.8301C41.9972 34.2942 44.5941 33.8777 47.2584 34.2942C51.558 34.9679 55.19 38.5999 55.8178 42.8995C55.8392 43.0434 55.8607 43.1904 55.8944 43.3313C56.0016 43.7815 56.3415 44.0295 56.7396 43.9499C57.1469 43.8703 57.3888 43.5242 57.3306 43.0741C57.0489 40.9089 56.2649 38.949 54.8899 37.2432C52.0541 33.7246 48.2996 32.3832 43.8898 32.6956C42.429 32.7997 40.9805 33.0386 39.4677 33.2223C39.4799 33.0753 39.4922 32.8763 39.5197 32.6772C39.8995 29.9792 39.8934 27.3088 38.8889 24.7242C38.2948 23.196 37.3975 21.867 36.2338 20.7186C35.2875 19.7845 33.8635 19.76 32.9295 20.6512C32.0046 21.5301 31.9618 22.9725 32.8223 23.9647C33.248 24.4547 33.6583 24.9569 34.035 25.404C31.141 28.298 28.3114 31.1307 25.396 34.0461C24.9672 33.6878 24.4528 33.2744 23.9536 32.8395C23.1941 32.175 22.1958 32.0157 21.3138 32.4628C20.4135 32.9222 19.9725 33.6756 20 34.6831C20.0153 35.2772 20.2542 35.7917 20.6738 36.2143C22.1529 37.7026 23.8923 38.7499 25.9227 39.295C26.477 39.4451 26.8537 39.2797 26.9915 38.8357C27.1232 38.4039 26.8904 38.0456 26.3239 37.8894C24.6212 37.4178 23.1421 36.5665 21.8773 35.3415C21.3965 34.873 21.3322 34.3707 21.7058 33.9695C22.0733 33.5776 22.6184 33.5959 23.0839 34.0492C25.203 36.1132 27.7938 36.7318 30.6449 36.5052C31.7596 36.4164 32.8682 36.2296 34.0472 36.0795C33.9217 36.643 33.8114 37.1943 33.6644 37.7332C33.6399 37.8251 33.4501 37.92 33.3306 37.9323C32.0016 38.064 30.6725 38.1987 29.3434 38.2906C28.7156 38.3365 28.3971 38.5386 28.4002 39.0225C28.4032 39.5002 28.7279 39.7881 29.3495 39.7605C30.4551 39.7085 31.5606 39.6105 32.663 39.5309C32.8529 39.5155 33.0458 39.4941 33.2541 39.4757C33.0856 40.6088 32.8927 41.696 32.7702 42.7892C32.3966 46.115 32.7151 49.3213 34.6781 52.1602C36.8983 55.3726 39.9607 57.158 43.8837 57.4367C46.1529 57.599 48.3701 57.2652 50.6332 56.8426C50.5505 57.7184 50.4494 58.5698 50.3943 59.4272C50.2381 61.8098 50.5382 64.1127 51.6009 66.2809C52.1736 67.4507 52.9759 68.446 53.8364 69.4137C54.5837 70.2559 56.4977 70.2406 57.2173 69.4688C58.084 68.5379 58.133 67.1353 57.2571 66.1461C56.8376 65.6745 56.4425 65.1784 56.0781 64.7436C58.9659 61.8527 61.7987 59.0199 64.711 56.1045C65.1091 56.4322 65.6052 56.815 66.0707 57.2315C67.1303 58.1839 68.5941 58.1165 69.5312 57.1427C70.1743 56.472 70.1682 54.6285 69.47 53.9394C67.412 51.9121 64.9744 50.7515 62.111 50.4544C60.4941 50.286 58.8863 50.3932 57.2847 50.629C57.1438 50.6504 56.9999 50.632 56.8896 50.632C57.0734 49.1713 57.2663 47.7228 57.4317 46.2681C57.5021 45.6373 57.0979 45.2392 56.5497 45.3586C56.124 45.4505 56.023 45.772 55.9679 46.1579C55.7474 47.7044 55.5606 49.2601 55.2635 50.7943C54.8195 53.0973 54.2499 55.3757 53.8211 57.6817C53.4628 59.6018 53.4138 61.5434 53.9681 63.4512C54.3387 64.7252 54.9787 65.8491 55.876 66.8229C55.974 66.9301 56.0812 67.0342 56.173 67.1475C56.5222 67.5671 56.5099 68.0846 56.1485 68.4215C55.7811 68.7645 55.2788 68.7522 54.8807 68.3541C53.6619 67.1322 52.783 65.7021 52.2899 64.0392C51.6652 61.9262 51.6683 59.7733 52.0572 57.6388C52.5778 54.7877 53.2454 51.9611 53.8028 49.1162C54.2254 46.9633 54.452 44.7951 53.9589 42.6116C53.1566 39.0562 50.0176 36.3092 46.3918 35.9479C44.0827 35.7182 41.8441 36.1194 39.6086 36.594C39.3544 36.6491 39.1002 36.7043 38.745 36.7808ZM51.3498 53.3913C51.2457 53.8812 51.1262 54.3069 51.0742 54.7356C51.0252 55.1399 50.8598 55.3175 50.4433 55.3757C49.3776 55.5227 48.3272 55.7616 47.2615 55.8932C45.1882 56.1474 43.1242 56.1015 41.1214 55.4094C36.9871 53.9823 34.1912 50.0441 34.0901 45.5301C34.0319 42.8291 34.623 40.2199 35.211 37.6107C35.7652 35.1639 36.3838 32.7262 36.4849 30.1997C36.5921 27.4956 35.9429 25.0641 34.0044 23.0705C33.5695 22.6234 33.5634 22.0874 33.9401 21.7261C34.3229 21.3555 34.868 21.3709 35.2691 21.8516C35.851 22.5499 36.4543 23.2512 36.9106 24.0321C38.2978 26.4054 38.5183 29.0177 38.1294 31.6636C37.7834 34.0308 37.2628 36.3735 36.7758 38.7163C36.2644 41.1784 35.753 43.6283 35.9367 46.1732C36.1879 49.6276 38.5673 52.7175 41.8564 53.7863C43.85 54.4355 45.8773 54.3437 47.9076 54.0282C49.0285 53.8567 50.1432 53.6179 51.3498 53.3913ZM38.9869 50.0594C38.2642 49.2019 37.8079 48.2403 37.5782 47.1746C37.5537 47.0552 37.6517 46.8684 37.7527 46.7704C40.7447 43.7631 43.7458 40.765 46.747 37.77C46.8389 37.6781 47.0042 37.5648 47.1053 37.5862C48.1955 37.8282 49.1877 38.2722 50.0268 39.0133C46.3336 42.7035 42.6801 46.3631 38.9869 50.0594ZM40.0955 51.1588C43.7826 47.4716 47.4483 43.806 51.1354 40.1158C51.8398 40.9426 52.2961 41.9195 52.5319 43.0005C52.5564 43.1047 52.4553 43.2731 52.3634 43.365C49.3592 46.3814 46.3489 49.3918 43.3324 52.399C43.2436 52.4878 43.0752 52.5797 42.968 52.5552C41.887 52.3164 40.9101 51.8631 40.0955 51.1588ZM62.9624 55.3879C60.4237 57.9267 57.888 60.4623 55.3431 63.0072C55.2788 62.6673 55.1839 62.2753 55.1318 61.8772C54.8685 59.8713 55.239 57.9175 55.631 55.9698C55.6555 55.8442 55.8392 55.6819 55.9709 55.6544C56.8651 55.4798 57.7594 55.3053 58.6628 55.1919C60.1235 55.0082 61.5812 54.9715 62.9624 55.3879ZM34.7393 27.1037C34.8098 27.4344 34.9047 27.7927 34.9568 28.1541C35.2385 30.2059 34.8649 32.2117 34.4607 34.2084C34.4362 34.3278 34.231 34.4748 34.0932 34.4963C32.81 34.6984 31.5238 34.9189 30.2315 35.0506C29.1627 35.1608 28.1001 35.0414 27.1017 34.7474C29.6466 32.1995 32.1792 29.6638 34.7393 27.1037ZM37.3301 44.9819C37.3301 44.8227 37.3118 44.6787 37.3332 44.5379C37.6547 42.5626 37.9732 40.5904 38.3193 38.6213C38.3407 38.5019 38.5428 38.3518 38.6837 38.3212C39.924 38.0517 41.1642 37.7761 42.4137 37.5648C43.2497 37.4239 44.1011 37.3902 45.0137 37.3014C42.4076 39.9075 39.8872 42.4248 37.3301 44.9819ZM45.0902 52.9319C47.7423 50.2799 50.2657 47.7564 52.7707 45.2514C52.7707 45.2728 52.7738 45.3678 52.7707 45.4597C52.7064 47.5237 52.2471 49.5265 51.7816 51.5232C51.7509 51.6488 51.558 51.7835 51.4141 51.8233C50.9119 51.9642 50.4066 52.0867 49.8921 52.1724C48.3211 52.4327 46.7501 52.6716 45.0902 52.9319ZM56.0444 54.0711C56.1577 53.575 56.2833 53.1218 56.3599 52.6593C56.4119 52.3592 56.5313 52.2306 56.8468 52.1816C58.5587 51.9091 60.2736 51.7406 62.0038 51.9336C64.4323 52.2061 66.5484 53.1493 68.294 54.8765C68.7136 55.293 68.7411 55.8014 68.3859 56.178C68.0368 56.5486 67.4917 56.5639 67.0813 56.1566C64.8794 53.9823 62.1845 53.3759 59.2109 53.6607C58.1789 53.7618 57.1499 53.9241 56.0444 54.0711Z" fill="#000" stroke="#000" stroke-width="0.5" stroke-miterlimit="10"/>
</g>
<defs>
<filter id="filter0_d_1035_11547" x="18.75" y="18.75" width="54.5039" height="54.5469" filterUnits="userSpaceOnUse" color-interpolation-filters="sRGB">
<feFlood flood-opacity="0" result="BackgroundImageFix"/>
<feColorMatrix in="SourceAlpha" type="matrix" values="0 0 0 0 0 0 0 0 0 0 0 0 0 0 0 0 0 0 127 0" result="hardAlpha"/>
<feOffset dx="1" dy="1"/>
<feGaussianBlur stdDeviation="1"/>
<feComposite in2="hardAlpha" operator="out"/>
<feColorMatrix type="matrix" values="0 0 0 0 0 0 0 0 0 0 0 0 0 0 0 0 0 0 0.3 0"/>
<feBlend mode="normal" in2="BackgroundImageFix" result="effect1_dropShadow_1035_11547"/>
<feBlend mode="normal" in="SourceGraphic" in2="effect1_dropShadow_1035_11547" result="shape"/>
</filter>
</defs>
</svg>
