<svg width="90" height="90" viewBox="0 0 90 90" fill="none" xmlns="http://www.w3.org/2000/svg">
<g filter="url(#filter0_d_1035_11548)">
<path d="M70.6643 51.7132C71.3881 52.6388 72.0561 53.4913 72.7555 54.3855C74.5231 56.8386 74.0221 60.3808 74.2343 61.7761C74.4988 63.5089 73.528 64.0274 71.7499 64.0274C47.2816 64.0274 50.7716 64.0274 26.2998 64.0274C23.4466 64.0274 20.5934 64.0309 17.7401 64.0239C16.3831 64.0204 15.8437 63.3871 16.0386 62.0649C16.3135 60.2138 16.564 58.3592 16.8459 56.5115C17.2982 53.5574 18.9266 50.5267 21.7903 49.6255C23.5162 49.0792 25.2664 48.6129 26.9853 48.1153C27.1454 47.0958 26.9192 46.379 26.2511 45.5265C25.0994 44.0651 23.8676 42.802 22.361 41.692C20.816 40.5507 20.228 38.7588 20.1271 36.8241C19.974 33.87 20.5968 31.2116 22.8968 29.1517C24.393 27.8121 26.1502 27.0709 28.151 27.0361C31.0599 26.9874 33.9723 26.9909 36.8812 27.0292C39.1673 27.057 41.0219 28.6785 41.4916 30.968C41.9196 33.0488 40.827 35.2722 38.8193 36.17C38.2243 36.4344 38.106 36.758 38.1025 37.3287C38.0921 38.9084 38.0956 40.4986 37.9564 42.0713C37.8346 43.4283 37.2187 44.6671 36.1922 45.537C35.3258 46.2746 35.2458 47.0819 35.4059 48.1188C36.6237 48.4668 37.852 48.8565 39.1081 49.1627C41.6412 49.7786 43.8194 51.9011 44.9573 54.4412C45.6845 53.5156 46.363 52.6457 47.0937 51.7167C46.0325 50.8329 45.3331 48.599 45.0895 47.1515C44.9294 46.205 45.1347 45.4952 46.0499 44.9802C47.2503 44.3017 47.7792 43.1848 47.807 41.8138C47.8453 39.9731 47.7479 38.1116 47.988 36.2952C48.7013 30.9924 53.4822 26.9978 58.9208 27.0152C64.3071 27.0326 69.0602 31.0481 69.7561 36.3126C69.9858 38.042 69.9232 39.8166 69.9301 41.5737C69.9336 43.1187 70.4973 44.3191 71.8578 45.0881C72.5154 45.4639 72.7625 46.0137 72.6964 46.7409C72.5676 48.3345 71.8578 50.6832 70.6643 51.7132ZM18.9719 61.5673C27.1523 61.5673 35.2632 61.5673 43.4471 61.5673C43.207 59.9319 43.0261 57.9834 42.7269 56.4071C42.4694 55.0501 41.6586 52.9484 40.3608 52.4822C38.6105 51.8524 36.8012 51.4 35.0475 50.8781C32.7753 54.128 30.1274 54.1211 27.3263 50.9059C25.7118 51.3687 24.0694 51.7967 22.4584 52.3117C20.9726 52.7849 19.9983 54.8796 19.6956 56.4037C19.3825 57.9799 19.212 59.9285 18.9719 61.5673ZM55.0724 51.233C53.3778 51.7202 51.7076 52.1481 50.0688 52.684C48.5517 53.1816 47.6157 54.9875 47.3269 56.5533C47.0485 58.0808 46.8745 59.9737 46.6518 61.5395C54.8184 61.5395 62.9432 61.5395 71.1062 61.5395C70.8835 59.9876 70.6956 58.1539 70.4521 56.6785C70.198 55.1441 69.363 53.286 67.8841 52.7745C66.1826 52.1795 64.4255 51.7341 62.7135 51.2295C60.6919 54.6117 56.753 54.2428 55.0724 51.233ZM54.8532 48.0631C54.714 47.3951 54.8044 46.5147 54.4112 46.1494C52.5566 44.42 51.8538 42.3288 51.9582 39.8618C52.0277 38.1951 52.7167 36.9216 54.1886 36.1317C55.4795 35.4393 56.7843 34.7607 58.1274 34.1762C58.545 33.9952 59.1748 33.9744 59.5888 34.1553C60.9807 34.7642 62.3377 35.4741 63.6808 36.1943C64.749 36.7685 65.4693 37.6731 65.6677 38.8771C66.113 41.5563 65.6328 44.0129 63.5277 45.8884C62.8353 46.5078 63.0232 47.1932 63.0893 47.8509C63.1102 48.0701 63.733 48.2754 64.1088 48.4041C64.8708 48.6616 65.9982 49.5698 66.7776 49.7681C67.9885 50.0743 69.2899 49.5176 69.9127 48.4807C70.1737 48.0457 69.8223 47.0575 69.3803 46.6957C68.2286 45.7457 67.4527 44.507 67.3204 43.0212C67.1708 41.3058 67.2195 38.8771 67.1708 37.1512C67.056 32.9235 63.6947 29.3953 59.5053 29.0995C55.2115 28.8003 51.3736 31.7474 50.7403 35.989C50.5037 37.5688 50.2288 39.9001 50.2358 41.5111C50.2427 43.6197 49.1954 45.3839 47.6157 46.8035C47.4417 46.9601 47.3651 48.1223 47.4626 48.3415C47.9462 49.4306 49.9957 50.0813 51.1961 49.796C52.3131 49.5315 53.27 48.5155 54.8532 48.0631ZM24.0346 39.6391C24.1216 39.5974 24.2051 39.5591 24.2921 39.5173C24.2921 39.1728 24.2921 38.8249 24.2921 38.4839C24.2991 35.6132 25.9797 33.9291 28.8643 33.9257C31.4287 33.9222 34.3411 33.9361 36.9055 33.9222C38.2487 33.9152 39.1777 33.0349 39.1638 31.831C39.1533 30.6583 38.2452 29.4405 36.9508 29.4335C34.1845 29.4161 31.0703 29.3813 28.3041 29.4475C26.0702 29.5031 24.4069 30.6062 23.4431 32.6278C22.6811 34.2284 22.7298 36.2883 23.1334 37.962C23.2761 38.5604 23.7249 39.0824 24.0346 39.6391ZM35.6947 36.3474C35.4024 36.3474 34.8596 36.3474 34.6612 36.3474C32.5874 36.3474 30.5171 36.33 28.4467 36.3613C27.5907 36.3718 26.7417 37.2765 26.7209 38.1568C26.7035 38.7866 26.6652 39.7678 26.7278 41.0901C26.8287 43.2474 28.6485 44.9663 30.8059 44.9942C32.9702 45.0185 35.5555 43.3553 35.6808 41.2084C35.7643 39.747 35.6947 37.9306 35.6947 36.3474ZM63.0371 40.3489C63.2285 39.3399 62.7065 38.6509 61.6487 38.2229C60.8519 37.9028 60.1108 37.4331 59.3209 37.0886C59.0739 36.9807 58.7016 36.9738 58.458 37.0816C57.4872 37.52 56.5233 37.9759 55.6082 38.5152C55.2498 38.7275 54.7975 39.1868 54.801 39.5278C54.8114 40.5716 54.8288 41.6921 55.2011 42.642C55.9005 44.42 57.943 45.3143 59.7733 44.8828C61.8297 44.4061 63.0267 42.7951 63.0371 40.3489ZM32.5735 47.7013C31.6131 47.7013 30.7606 47.7013 29.8385 47.7013C29.9081 48.5851 29.4593 49.9908 30.4753 50.6032C30.8372 50.8224 31.5366 50.8398 31.9019 50.6345C32.9458 50.05 32.5248 48.6373 32.5735 47.7013ZM60.25 47.7152C59.2966 47.7152 58.4441 47.7152 57.5011 47.7152C57.602 48.592 57.1218 49.6498 58.1483 50.2622C58.5136 50.478 59.2026 50.4953 59.5749 50.2935C60.6153 49.709 60.1943 48.6442 60.25 47.7152Z" fill="#000"/>
</g>
<defs>
<filter id="filter0_d_1035_11548" x="15" y="26" width="62.2773" height="41.0273" filterUnits="userSpaceOnUse" color-interpolation-filters="sRGB">
<feFlood flood-opacity="0" result="BackgroundImageFix"/>
<feColorMatrix in="SourceAlpha" type="matrix" values="0 0 0 0 0 0 0 0 0 0 0 0 0 0 0 0 0 0 127 0" result="hardAlpha"/>
<feOffset dx="1" dy="1"/>
<feGaussianBlur stdDeviation="1"/>
<feComposite in2="hardAlpha" operator="out"/>
<feColorMatrix type="matrix" values="0 0 0 0 0 0 0 0 0 0 0 0 0 0 0 0 0 0 0.3 0"/>
<feBlend mode="normal" in2="BackgroundImageFix" result="effect1_dropShadow_1035_11548"/>
<feBlend mode="normal" in="SourceGraphic" in2="effect1_dropShadow_1035_11548" result="shape"/>
</filter>
</defs>
</svg>
