<svg width="90" height="90" viewBox="0 0 90 90" fill="none" xmlns="http://www.w3.org/2000/svg">
<g filter="url(#filter0_d_1035_11549)">
<path d="M71.369 58.1626C71.2339 58.7875 71.1291 59.4225 70.9636 60.0373C69.8253 64.236 66.2076 67.401 61.8975 67.9516C61.2118 68.0394 60.5159 68.0563 59.8235 68.0597C52.5983 68.0664 45.373 68.0732 38.1478 68.0597C33.7025 68.0529 30.2132 65.1919 29.3316 60.848C28.9161 58.7942 29.2708 56.8452 30.2639 55.0077C30.3382 54.8692 30.4159 54.7341 30.4902 54.599C30.497 54.5854 30.4902 54.5686 30.4902 54.5449C29.943 54.1024 29.3519 53.6971 28.8452 53.2073C25.1093 49.5964 23.819 45.2288 25.3593 40.2802C26.8827 35.3756 30.3855 32.447 35.4624 31.6296C40.8129 30.7682 46.0182 33.5617 48.4435 38.419C48.609 38.7535 48.7847 38.8751 49.1731 38.9021C53.8008 39.2162 57.1921 41.4388 59.2864 45.5868C59.5127 46.0327 59.7221 46.2016 60.2423 46.1949C65.8935 46.1341 70.5009 50.1301 71.2744 55.7305C71.2913 55.8488 71.3352 55.9636 71.369 56.0785C71.369 56.7743 71.369 57.4668 71.369 58.1626ZM49.3116 64.9352C49.3116 64.9318 49.3116 64.9318 49.3116 64.9352C51.1863 64.9318 53.061 64.9352 54.9391 64.9318C56.8307 64.9284 58.7257 64.9284 60.6173 64.9149C64.6065 64.8845 68.0553 61.5371 68.2343 57.5343C68.4573 52.5621 64.2113 48.7012 59.2864 49.3903C57.8001 49.5964 57.3205 49.3194 56.8983 47.9919C55.7194 44.3033 52.3179 41.9151 48.3726 42.0097C44.6873 42.0975 41.377 44.7491 40.411 48.3938C40.1272 49.4612 40.0428 50.5422 40.1846 51.6433C40.34 52.8458 39.6509 53.5957 38.4653 53.5755C38.239 53.5721 38.0127 53.562 37.7897 53.5687C34.8645 53.616 32.3582 56.1156 32.2974 59.0374C32.2332 62.3005 34.7396 64.9082 38.0127 64.925C41.7756 64.9521 45.5453 64.9352 49.3116 64.9352ZM45.3899 39.3547C45.3055 39.196 45.2616 39.1048 45.2075 39.0169C42.4782 34.5548 36.4859 33.2577 32.0812 36.1762C26.4267 39.9188 26.5246 48.3094 32.2535 51.9169C32.571 52.1162 32.7939 52.1466 33.1249 51.9136C34.1282 51.2008 35.2564 50.7583 36.4724 50.5726C36.8473 50.5151 36.9858 50.4172 37.0095 50.0085C37.1682 47.2488 38.1613 44.8167 40.0124 42.7528C41.4716 41.1247 43.2652 40.0168 45.3899 39.3547Z" fill="#000"/>
<path d="M23.8465 52.8303C23.8364 53.212 23.583 53.6714 23.0865 53.9653C22.1779 54.5057 21.2658 55.0428 20.3369 55.5495C19.5465 55.9785 18.6345 55.7049 18.2156 54.9618C17.7934 54.2085 18.0265 53.31 18.8067 52.8405C19.6985 52.3034 20.597 51.7798 21.5124 51.2799C22.6001 50.6854 23.8499 51.4184 23.8465 52.8303Z" fill="#000"/>
<path d="M23.8469 35.3535C23.8402 36.4952 22.6647 37.2653 21.6344 36.7418C20.6143 36.225 19.628 35.6372 18.6619 35.0224C17.9728 34.5867 17.8175 33.6848 18.216 32.989C18.6011 32.3202 19.4557 31.9824 20.1516 32.3404C21.2122 32.8876 22.2593 33.4821 23.2491 34.151C23.5936 34.3807 23.8503 34.8806 23.8469 35.3535Z" fill="#000"/>
<path d="M35.7068 25.1363C35.7068 24.6161 35.6966 24.0959 35.7102 23.5757C35.7304 22.6941 36.3553 22.0388 37.193 22.0016C38.024 21.9645 38.7671 22.5725 38.811 23.4372C38.8651 24.562 38.8651 25.6936 38.811 26.8218C38.7705 27.6967 38.0476 28.2878 37.2032 28.2608C36.3654 28.2338 35.7338 27.5784 35.7135 26.7002C35.6966 26.18 35.7068 25.6564 35.7068 25.1363Z" fill="#000"/>
<path d="M56.499 33.761C56.499 34.3251 56.2727 34.7879 55.7964 35.075C54.8607 35.6391 53.9183 36.1931 52.9556 36.7099C52.172 37.1321 51.2532 36.8315 50.8479 36.0816C50.4527 35.3452 50.6959 34.4501 51.4424 33.9975C52.3476 33.4536 53.263 32.9165 54.1919 32.4166C55.2695 31.8424 56.4922 32.572 56.499 33.761Z" fill="#000"/>
</g>
<defs>
<filter id="filter0_d_1035_11549" x="17" y="21" width="57.3672" height="50.0684" filterUnits="userSpaceOnUse" color-interpolation-filters="sRGB">
<feFlood flood-opacity="0" result="BackgroundImageFix"/>
<feColorMatrix in="SourceAlpha" type="matrix" values="0 0 0 0 0 0 0 0 0 0 0 0 0 0 0 0 0 0 127 0" result="hardAlpha"/>
<feOffset dx="1" dy="1"/>
<feGaussianBlur stdDeviation="1"/>
<feComposite in2="hardAlpha" operator="out"/>
<feColorMatrix type="matrix" values="0 0 0 0 0 0 0 0 0 0 0 0 0 0 0 0 0 0 0.3 0"/>
<feBlend mode="normal" in2="BackgroundImageFix" result="effect1_dropShadow_1035_11549"/>
<feBlend mode="normal" in="SourceGraphic" in2="effect1_dropShadow_1035_11549" result="shape"/>
</filter>
</defs>
</svg>
