<svg width="90" height="90" viewBox="0 0 90 90" fill="none" xmlns="http://www.w3.org/2000/svg">
<g filter="url(#filter0_d_1035_11544)">
<path d="M16.0039 51.3283C17.6833 49.238 19.6946 47.5665 22.1524 46.468C25.0805 45.1601 28.0718 45.1324 31.1263 45.9938C33.8291 46.7565 36.3975 47.8234 38.8672 49.1471C40.1198 49.8189 41.3764 50.4985 42.6922 51.0241C43.5339 51.3599 44.4862 51.4232 45.5057 51.6326C46.1577 43.536 46.0431 41.4536 42.4907 34.1552C41.0879 34.2658 39.8037 34.4832 38.5274 34.4437C34.2084 34.3172 31.6083 31.8673 30.411 28.0581C29.6879 25.7583 29.601 23.3835 29.6958 20.9968C29.7195 20.4159 30.0317 20.0326 30.6007 20.0168C34.1057 19.9259 37.583 20.163 40.7876 21.7397C44.4901 23.5613 45.7507 26.4498 44.7193 30.4764C44.5455 31.1521 44.2452 31.7962 44.0397 32.4679C43.9765 32.6734 43.9725 32.9619 44.0673 33.1397C46.213 37.1346 47.1218 41.4654 47.5249 45.9267C47.5525 46.227 47.5842 46.5273 47.7106 46.8474C47.9042 46.4285 48.1097 46.0136 48.2757 45.5868C48.3191 45.4762 48.2401 45.3063 48.1966 45.168C47.3747 42.6509 47.2048 40.1259 48.3191 37.6562C49.3465 35.3841 51.2393 34.1236 53.5627 33.4321C55.6531 32.8157 57.7908 32.7208 59.9483 32.8394C60.5687 32.8749 60.9481 33.1831 60.956 33.7798C60.9994 37.0358 60.7426 40.2602 59.2055 43.212C57.4589 46.5589 54.4834 47.7127 50.8955 46.5273C50.6466 46.4443 50.3937 46.3692 50.1012 46.2744C48.4535 49.7714 47.6316 47.6732 47.4538 51.5536C47.675 51.5536 47.8805 51.5536 48.082 51.5536C50.2317 51.5536 52.3852 51.5733 54.5348 51.5496C56.1905 51.5299 57.5458 52.0831 58.5258 53.4542C58.5574 53.4977 58.6127 53.5214 58.676 53.5649C61.0231 50.8581 63.3664 48.1592 65.7096 45.4564C66.6184 44.4093 67.4759 43.3187 68.7088 42.5995C70.1115 41.7816 71.621 41.418 73.2292 41.4141C74.3159 41.4101 74.7111 42.0226 74.2724 43.0184C72.0359 48.1158 69.7836 53.2053 67.5549 58.3106C66.3655 61.0371 64.54 63.1749 61.9241 64.6092C61.359 64.9175 60.7742 65.2336 60.1617 65.3956C57.1388 66.1977 54.3017 67.4978 51.4052 68.6398C49.6824 69.3194 47.9279 69.8449 46.0668 69.9674C43.4865 70.1374 41.0445 69.6355 38.6815 68.616C35.2121 67.1145 31.7506 65.5932 28.2456 64.1746C25.448 63.0405 22.4962 62.4754 19.4971 62.1672C18.6831 62.0843 17.869 61.9973 17.055 61.9301C16.573 61.8906 16.2529 61.6298 16 61.2544C16.004 57.955 16.0039 54.6397 16.0039 51.3283ZM17.9481 60.0967C18.4578 60.148 18.8925 60.1954 19.3271 60.2389C22.6306 60.5708 25.8866 61.1675 28.9727 62.4201C32.529 63.8624 36.0419 65.4114 39.5666 66.9288C41.8348 67.9048 44.174 68.3078 46.6397 68.0154C48.4219 67.802 50.0459 67.1184 51.6937 66.4783C53.8552 65.6445 55.981 64.6843 58.2018 64.0521C61.7344 63.0484 64.2792 61.0213 65.761 57.6665C67.7802 53.0946 69.7875 48.5188 71.7988 43.943C71.862 43.7968 71.9095 43.6427 71.9885 43.4214C70.4316 43.6862 69.1869 44.3619 68.203 45.488C65.6385 48.4279 63.0937 51.3876 60.5371 54.3314C59.8733 55.098 59.0671 55.7856 59.1383 56.9473C59.1383 56.9631 59.1225 56.9829 59.1185 56.9987C58.5337 59.0258 56.9017 60.2192 54.6771 60.2271C50.6979 60.235 46.7188 60.2033 42.7436 60.2468C41.57 60.2587 40.4004 60.4325 39.2307 60.5827C38.6775 60.6538 38.1322 60.8356 37.5435 60.9778C37.3301 60.3733 37.1365 59.8121 36.9073 59.1602C37.9347 58.9349 38.8711 58.6544 39.8235 58.5398C41.0682 58.3936 42.3287 58.3303 43.5813 58.3224C47.3115 58.2948 51.0417 58.3185 54.7719 58.3106C55.9534 58.3106 56.8425 57.7376 57.21 56.7735C57.8185 55.1929 56.7002 53.5135 54.9655 53.4937C52.073 53.4621 49.1806 53.4937 46.2881 53.474C45.5294 53.47 44.7668 53.4147 44.016 53.312C42.3168 53.0867 40.752 52.4743 39.2821 51.5891C36.7294 50.056 34.0464 48.8191 31.1776 47.9893C29.0478 47.3689 26.914 47.041 24.717 47.6179C22.1683 48.2896 20.0937 49.7122 18.3156 51.597C18.0982 51.8302 17.9441 52.2174 17.9402 52.5375C17.9086 54.857 17.9244 57.1805 17.9244 59.5039C17.9204 59.6897 17.9362 59.8754 17.9481 60.0967ZM41.246 32.3889C41.1986 32.2269 41.1946 32.1834 41.1749 32.1558C41.1116 32.0609 41.0405 31.97 40.9733 31.8792C39.6614 30.1761 38.0492 28.8563 36.0893 27.9474C35.4808 27.6669 35.2872 27.1492 35.5203 26.6434C35.7613 26.1219 36.3224 25.9361 36.927 26.2522C37.6857 26.6434 38.48 27.007 39.1399 27.5365C40.3609 28.5204 41.491 29.6189 42.6804 30.6819C42.5974 30.749 42.6409 30.7293 42.6527 30.7016C43.6999 27.7696 43.2968 25.1221 40.1277 23.5257C38.2863 22.5971 36.2908 22.2099 34.2558 22.0163C33.3746 21.9333 32.4895 21.9135 31.553 21.8622C31.5293 23.7747 31.6716 25.5607 32.1655 27.3112C33.1257 30.7016 35.2951 32.4403 38.8079 32.5509C39.6101 32.5786 40.4162 32.4482 41.246 32.3889ZM49.6113 43.1251C50.0222 42.556 50.3541 42.074 50.7058 41.6116C51.7332 40.276 52.8831 39.0669 54.3056 38.1462C54.8667 37.7827 55.3923 37.8577 55.7124 38.324C56.0245 38.7784 55.8862 39.2921 55.3804 39.707C54.7205 40.2523 54.0527 40.7897 53.4442 41.3864C52.4958 42.319 51.7253 43.3938 51.0457 44.5515C54.0606 45.7567 56.3762 44.84 57.6881 41.9949C58.4152 40.4183 58.751 38.7508 58.9368 37.0437C59.0197 36.2811 59.0395 35.5106 59.0869 34.7124C57.2258 34.6649 55.4832 34.7914 53.8038 35.3486C52.3615 35.8267 51.1207 36.5933 50.3225 37.9486C49.3979 39.5332 49.3307 41.2283 49.6113 43.1251Z" fill="#000" stroke="#000" stroke-width="0.5" stroke-miterlimit="10"/>
</g>
<defs>
<filter id="filter0_d_1035_11544" x="14.75" y="18.75" width="62.9492" height="54.5" filterUnits="userSpaceOnUse" color-interpolation-filters="sRGB">
<feFlood flood-opacity="0" result="BackgroundImageFix"/>
<feColorMatrix in="SourceAlpha" type="matrix" values="0 0 0 0 0 0 0 0 0 0 0 0 0 0 0 0 0 0 127 0" result="hardAlpha"/>
<feOffset dx="1" dy="1"/>
<feGaussianBlur stdDeviation="1"/>
<feComposite in2="hardAlpha" operator="out"/>
<feColorMatrix type="matrix" values="0 0 0 0 0 0 0 0 0 0 0 0 0 0 0 0 0 0 0.3 0"/>
<feBlend mode="normal" in2="BackgroundImageFix" result="effect1_dropShadow_1035_11544"/>
<feBlend mode="normal" in="SourceGraphic" in2="effect1_dropShadow_1035_11544" result="shape"/>
</filter>
</defs>
</svg>
