<svg width="90" height="90" viewBox="0 0 90 90" fill="none" xmlns="http://www.w3.org/2000/svg">
<g filter="url(#filter0_d_1035_11546)">
<path d="M71.4201 40.0222C71.0714 41.0875 70.3334 41.7135 69.4228 42.1857C67.263 43.3132 65.1235 44.4773 62.9637 45.6012C62.5676 45.8062 62.4153 46.0331 62.4187 46.5237C62.439 50.6822 62.4187 54.8371 62.4424 58.9957C62.4458 59.7059 62.2426 60.2513 61.8161 60.7748C58.4884 64.8455 54.3686 67.4556 49.4396 68.466C42.6556 69.8607 36.3624 68.5685 30.7734 64.0585C29.5005 63.0335 28.4139 61.7339 27.3001 60.5003C27.0327 60.2074 26.877 59.6656 26.877 59.2373C26.8465 54.9506 26.8533 50.6603 26.8668 46.3699C26.8702 45.9819 26.7754 45.7696 26.4369 45.6012C25.5229 45.1509 24.6292 44.653 23.6712 44.1442C23.6508 44.3346 23.6238 44.47 23.6238 44.6091C23.6204 47.4498 23.617 50.2905 23.6339 53.1312C23.6373 53.3253 23.7524 53.6108 23.898 53.7023C26.0814 55.1263 26.0679 58.0842 23.8573 59.446C23.8133 59.4716 23.7795 59.5155 23.7016 59.5887C24.6055 62.7003 25.5127 65.8266 26.4335 68.9894C23.8438 68.9894 21.3252 68.9894 18.7422 68.9894C18.9352 68.3159 19.1146 67.6789 19.2974 67.0419C19.9745 64.7137 20.6481 62.3819 21.3387 60.0573C21.4437 59.7095 21.4403 59.5228 21.1017 59.2995C19.1281 57.989 19.1857 55.0202 21.1965 53.7755C21.464 53.6108 21.552 53.4387 21.5486 53.1203C21.5384 49.8842 21.5384 46.6481 21.552 43.4157C21.5554 43.0789 21.4437 42.9215 21.1728 42.7861C20.5296 42.4566 19.8763 42.1345 19.2771 41.7281C18.204 40.9997 17.7876 39.9344 18.1024 38.8655C18.3394 38.0638 18.8743 37.5293 19.5479 37.1705C21.3861 36.1931 23.2345 35.2377 25.0862 34.2786C30.462 31.5001 35.8343 28.7143 41.2169 25.9578C43.7254 24.6729 46.2575 24.6765 48.7592 25.9944C55.5974 29.5965 62.4288 33.217 69.2704 36.8155C70.2792 37.3426 71.1222 37.9942 71.4336 39.2279C71.4201 39.4951 71.4201 39.7587 71.4201 40.0222ZM26.2202 42.9618C26.2101 42.9947 26.1999 43.0313 26.1864 43.0643C26.3353 43.1485 26.4775 43.2363 26.6299 43.3169C31.7653 45.9819 36.8939 48.6542 42.0395 51.3046C43.9555 52.2893 45.9054 52.2966 47.8215 51.2899C52.5033 48.8372 57.1749 46.3662 61.85 43.8989C64.0673 42.7312 66.2812 41.5561 68.485 40.359C68.8371 40.1687 69.1181 39.8246 69.4329 39.5537C69.1215 39.3011 68.8371 38.9936 68.4952 38.8105C61.6367 35.1755 54.768 31.5514 47.9027 27.9272C45.9495 26.8986 43.9792 26.9023 42.026 27.9089C36.8398 30.5886 31.6603 33.2865 26.4809 35.9772C24.4938 37.0095 22.5032 38.0418 20.5229 39.0924C20.3164 39.1986 20.164 39.4219 19.9846 39.5903C20.164 39.7806 20.313 40.0222 20.5229 40.143C21.1965 40.5274 21.8905 40.8752 22.5913 41.212C22.7537 41.2925 22.9602 41.3035 23.1431 41.2815C24.1282 41.1754 25.1133 41.0472 26.095 40.9228C29.443 40.4981 32.791 40.0698 36.139 39.6452C38.9014 39.2901 41.6604 38.924 44.4227 38.5872C44.68 38.558 45.049 38.5872 45.1979 38.7593C45.4214 39.0156 45.6109 39.4256 45.6042 39.766C45.5974 40.2639 45.2115 40.5384 44.7579 40.6006C43.0855 40.8276 41.4132 41.0436 39.7375 41.2559C35.2284 41.827 30.7226 42.3944 26.2202 42.9618ZM60.462 46.8495C60.225 46.9666 60.0558 47.0435 59.8933 47.135C56.1831 49.0971 52.4627 51.052 48.7592 53.0324C46.1966 54.4015 43.6407 54.3869 41.0815 53.0763C37.2054 51.0886 33.3428 49.0752 29.4735 47.0728C29.294 46.9813 29.1112 46.9007 28.9149 46.8092C28.8912 46.9373 28.8743 46.9886 28.8743 47.0435C28.8709 51.0117 28.8675 54.9799 28.881 58.9481C28.881 59.1641 28.9928 59.435 29.1383 59.5814C30.093 60.5661 30.9934 61.6351 32.053 62.4734C37.5676 66.837 43.6949 67.9205 50.2623 66.1524C54.135 65.1091 57.4119 62.9053 60.1167 59.7205C60.3672 59.4277 60.4722 59.1238 60.4722 58.7175C60.4552 54.9762 60.462 51.2313 60.462 47.4901C60.462 47.3034 60.462 47.124 60.462 46.8495Z" fill="#000" stroke="#000" stroke-width="0.5" stroke-miterlimit="10"/>
</g>
<defs>
<filter id="filter0_d_1035_11546" x="16.75" y="23.75" width="57.9336" height="48.5" filterUnits="userSpaceOnUse" color-interpolation-filters="sRGB">
<feFlood flood-opacity="0" result="BackgroundImageFix"/>
<feColorMatrix in="SourceAlpha" type="matrix" values="0 0 0 0 0 0 0 0 0 0 0 0 0 0 0 0 0 0 127 0" result="hardAlpha"/>
<feOffset dx="1" dy="1"/>
<feGaussianBlur stdDeviation="1"/>
<feComposite in2="hardAlpha" operator="out"/>
<feColorMatrix type="matrix" values="0 0 0 0 0 0 0 0 0 0 0 0 0 0 0 0 0 0 0.3 0"/>
<feBlend mode="normal" in2="BackgroundImageFix" result="effect1_dropShadow_1035_11546"/>
<feBlend mode="normal" in="SourceGraphic" in2="effect1_dropShadow_1035_11546" result="shape"/>
</filter>
</defs>
</svg>
