<svg width="90" height="90" viewBox="0 0 90 90" fill="none" xmlns="http://www.w3.org/2000/svg">
<g filter="url(#filter0_d_1035_11550)">
<path d="M70.202 55.8095C68.1089 55.9005 66.5835 54.7997 65.1708 53.4563C64.5944 52.906 63.9921 52.3816 63.381 51.8659C62.5403 51.1552 61.613 51.1379 60.6943 51.6623C60.1829 51.9526 59.7365 52.36 59.2815 52.737C58.5102 53.3784 57.7994 54.102 56.9847 54.6784C54.6663 56.3121 51.7065 56.1648 49.5311 54.336C48.8074 53.7293 48.1487 53.0533 47.4423 52.4293C45.7869 50.9732 44.8422 50.9472 43.1261 52.3426C42.5887 52.7803 42.1164 53.3047 41.592 53.764C40.0406 55.1161 38.3115 56.0131 36.1751 55.7748C34.7234 55.6101 33.4666 55.0164 32.4006 54.0197C31.6552 53.3177 30.9272 52.5983 30.1515 51.9266C29.2588 51.1552 28.3704 51.0296 27.3867 51.6839C26.455 52.3036 25.6229 53.075 24.7866 53.8247C23.7119 54.7867 22.5418 55.5494 21.0901 55.7618C19.2657 56.0261 17.6319 55.5408 16.2018 54.4011C15.6125 53.933 15.0751 53.387 14.5638 52.8323C13.9571 52.178 13.9874 51.3806 14.5724 50.8042C15.1575 50.2279 15.9722 50.1975 16.6266 50.7565C17.0296 51.1032 17.3979 51.4932 17.7923 51.8486C19.3047 53.2137 21.0554 53.231 22.6068 51.8919C23.3695 51.2376 24.1105 50.5572 24.8906 49.9288C27.573 47.7664 30.2642 47.8618 32.795 50.1845C33.3973 50.7392 33.9997 51.2982 34.6107 51.8443C36.0755 53.166 37.8045 53.1747 39.3169 51.8789C40.266 51.0686 41.176 50.1975 42.1857 49.4738C43.9668 48.1998 45.9039 47.8444 47.8843 49.0058C48.6513 49.4565 49.3274 50.0762 50.0208 50.6439C50.6231 51.1379 51.1648 51.7013 51.7802 52.1736C52.9069 53.0317 54.2849 53.0793 55.442 52.2603C56.209 51.7186 56.8591 51.0166 57.6218 50.4662C58.4755 49.8465 59.3465 49.2095 60.2956 48.7675C61.9076 48.0134 63.5154 48.2734 64.9584 49.2745C65.8121 49.8682 66.5749 50.5919 67.3722 51.2636C67.7492 51.5799 68.0916 51.9396 68.4903 52.2213C69.8033 53.1443 71.3374 53.0837 72.5768 52.0566C73.1922 51.5496 73.7598 50.9819 74.3579 50.4532C75.0296 49.8552 75.9006 49.8292 76.464 50.3882C77.0273 50.9429 77.0577 51.8703 76.4423 52.4943C75.3459 53.6037 74.1889 54.6741 72.7328 55.2851C71.9354 55.6188 71.0557 55.7575 70.215 55.9828C70.2194 55.9178 70.2107 55.8658 70.202 55.8095Z" fill="#000"/>
<path d="M70.3598 68.5572C68.765 68.5659 67.5906 68.1325 66.5463 67.3482C66.0262 66.9538 65.5452 66.5031 65.0555 66.0654C64.6438 65.6971 64.2668 65.2854 63.8378 64.9387C62.4511 63.8163 61.359 63.8033 59.9723 64.9344C59.2139 65.5541 58.5335 66.2778 57.7795 66.9061C54.993 69.2376 51.6866 69.1336 49.0171 66.6634C48.2674 65.9701 47.5177 65.2637 46.716 64.631C45.793 63.903 44.9566 63.851 44.0032 64.5357C43.1235 65.1641 42.3305 65.9137 41.5244 66.6331C40.4801 67.5605 39.3317 68.3015 37.9406 68.5442C35.7002 68.9342 33.8454 68.1282 32.229 66.6245C31.6136 66.0524 31.0113 65.4631 30.3699 64.9257C29.1262 63.877 28.1988 63.838 26.8901 64.826C26.0884 65.4284 25.356 66.1174 24.602 66.7761C23.0332 68.1499 21.2652 68.8866 19.1331 68.5702C17.9977 68.4012 17.0226 67.9072 16.1603 67.2008C15.5926 66.7371 15.0855 66.1868 14.5915 65.6407C13.9718 64.956 14.0022 64.0763 14.6132 63.4956C15.1852 62.9539 15.9913 62.9756 16.6586 63.565C17.0703 63.9333 17.4516 64.3364 17.8633 64.7047C19.2154 65.9181 20.9098 65.9744 22.3355 64.8347C22.9596 64.3364 23.5403 63.786 24.1253 63.2443C25.07 62.3733 26.1014 61.6452 27.3668 61.3202C29.4425 60.7872 31.137 61.5629 32.6537 62.915C33.3254 63.5173 33.9581 64.163 34.6688 64.7134C36.3069 65.9831 37.7889 65.9007 39.3793 64.5487C40.3631 63.7123 41.3164 62.8283 42.3738 62.1002C44.2676 60.7959 46.2393 60.7655 48.1634 62.0829C48.7354 62.4729 49.2511 62.9496 49.7798 63.4003C50.3865 63.9203 50.9542 64.4837 51.5826 64.9734C52.7266 65.8704 54.1697 65.9137 55.3484 65.06C55.9898 64.592 56.5358 63.994 57.1685 63.5043C58.0222 62.8456 58.8672 62.1479 59.8119 61.6322C61.307 60.8132 62.8714 60.9085 64.3145 61.8142C65.1595 62.3429 65.9222 63.006 66.6979 63.6386C67.1443 63.9983 67.5256 64.436 67.9763 64.7914C69.4281 65.9397 70.9101 65.9441 72.3532 64.8044C72.9469 64.3363 73.5016 63.8163 74.078 63.3223C74.8667 62.6419 75.729 62.6333 76.314 63.292C76.8644 63.9117 76.7951 64.8174 76.0757 65.4804C75.3087 66.1868 74.5286 66.8931 73.6836 67.4912C72.6219 68.2409 71.3868 68.5529 70.3598 68.5572Z" fill="#000"/>
<path d="M69.9037 30.418C68.8333 30.4007 67.5029 29.95 66.3719 28.9663C65.7695 28.4419 65.2018 27.8742 64.5951 27.3585C64.1618 26.9859 63.7068 26.6348 63.2301 26.3228C62.5107 25.8505 61.7393 25.8505 61.0286 26.3098C60.4306 26.6955 59.8759 27.1549 59.3299 27.6186C58.0385 28.7236 56.8164 29.9327 55.0787 30.327C53.0679 30.782 51.2565 30.34 49.6791 29.0183C49.0031 28.4506 48.392 27.8136 47.7334 27.2285C47.3997 26.9295 47.0356 26.6565 46.6673 26.4008C45.8613 25.8505 44.9989 25.8028 44.1885 26.3445C43.4995 26.8082 42.8841 27.3932 42.2254 27.9046C41.402 28.5416 40.6264 29.274 39.725 29.768C37.4585 31.0117 34.6417 30.574 32.644 28.7929C31.8033 28.0432 30.9843 27.2719 30.1132 26.5525C29.1295 25.7421 28.1675 25.6988 27.1361 26.4615C26.317 27.0682 25.563 27.7702 24.8046 28.4593C22.4819 30.574 19.5914 31.0854 17.1213 29.638C16.1505 29.0703 15.3142 28.2383 14.4908 27.4495C13.9318 26.9122 13.9881 26.0152 14.4691 25.4908C14.9458 24.9708 15.7345 24.8668 16.3716 25.3131C16.8049 25.6165 17.1646 26.0195 17.5633 26.3748C19.2144 27.8612 20.7354 27.8959 22.4472 26.4745C23.2186 25.8331 23.9639 25.1571 24.7526 24.5331C27.3268 22.5007 29.6625 22.5007 32.2236 24.5417C32.9907 25.1528 33.7144 25.8245 34.4467 26.4788C35.9375 27.8179 37.6189 27.8526 39.1486 26.5482C39.9417 25.8678 40.6957 25.1441 41.5061 24.4854C42.4768 23.6967 43.5775 23.1637 44.8386 23.0294C46.481 22.856 47.8417 23.5017 49.0421 24.5504C49.8438 25.2524 50.6195 25.9848 51.4342 26.6739C52.7429 27.7746 54.16 27.8569 55.5467 26.8602C56.2574 26.3488 56.8901 25.7248 57.5358 25.1268C58.6842 24.0607 59.9669 23.2374 61.553 23.038C63.4468 22.7997 64.9115 23.714 66.2592 24.8884C66.8312 25.3868 67.3556 25.9371 67.919 26.4442C69.518 27.8699 71.1951 27.8742 72.8289 26.4702C73.3099 26.0542 73.7605 25.6035 74.2416 25.1918C75.0129 24.5287 75.897 24.5157 76.4343 25.1354C77.028 25.8158 76.95 26.6825 76.2047 27.3672C75.572 27.9479 74.9219 28.5156 74.2546 29.0573C73.1279 29.9587 71.7628 30.418 69.9037 30.418Z" fill="#000"/>
<path d="M70.6681 43.1624C68.887 43.1494 67.639 42.794 66.5686 41.9577C65.8926 41.429 65.2772 40.8266 64.6358 40.2546C64.4668 40.1029 64.3151 39.9382 64.1461 39.7909C62.5167 38.3478 61.364 38.3348 59.7043 39.7476C58.9112 40.4236 58.1615 41.1603 57.3338 41.7973C54.8377 43.7127 51.7046 43.5697 49.3471 41.4766C48.6408 40.8526 47.9474 40.2156 47.2367 39.5959C45.824 38.3608 44.8359 38.3045 43.3539 39.4442C42.5912 40.0292 41.9108 40.7183 41.1827 41.3466C38.4223 43.7431 35.1028 43.7387 32.338 41.3336C31.61 40.7009 30.9383 40.0076 30.1886 39.4095C28.9319 38.4042 27.9655 38.4042 26.6914 39.4095C25.8897 40.0422 25.14 40.7486 24.373 41.429C21.8465 43.6781 18.605 43.7604 15.9746 41.624C15.4676 41.2123 14.9779 40.7703 14.5142 40.3066C13.8598 39.6479 13.8338 38.7725 14.4145 38.1615C14.9822 37.5591 15.7882 37.5505 16.5033 38.1615C16.876 38.4822 17.2227 38.8289 17.578 39.1712C18.9691 40.5146 20.6808 40.6056 22.1629 39.3835C23.1119 38.6035 23.9959 37.7368 24.9797 37.0044C27.4628 35.1627 29.8549 35.2754 32.1907 37.2905C32.9057 37.9058 33.5774 38.5645 34.2751 39.2015C35.7875 40.5839 37.4516 40.6186 39.0247 39.2969C39.8697 38.5862 40.6844 37.8321 41.5511 37.1518C44.2379 35.0457 46.8337 35.466 49.2865 37.7151C49.9192 38.2958 50.5215 38.9112 51.1759 39.4702C52.4023 40.5189 53.8713 40.5839 55.1844 39.6262C55.8084 39.1712 56.3718 38.6252 56.9481 38.1008C58.0792 37.0651 59.2796 36.1507 60.8267 35.843C62.2307 35.5614 63.5395 35.8864 64.6662 36.7271C65.6325 37.4465 66.5253 38.2698 67.4093 39.0889C68.354 39.9599 69.4114 40.4886 70.7028 40.1246C71.2531 39.9686 71.7732 39.6262 72.2368 39.2795C72.8435 38.8289 73.3809 38.2872 73.9573 37.7931C74.5596 37.2818 75.3527 37.2818 75.916 37.7758C76.4534 38.2482 76.5661 39.0282 76.189 39.6782C75.201 41.364 72.1372 43.1581 70.6681 43.1624Z" fill="#000"/>
</g>
<defs>
<filter id="filter0_d_1035_11550" x="13" y="22" width="66.8945" height="49.6426" filterUnits="userSpaceOnUse" color-interpolation-filters="sRGB">
<feFlood flood-opacity="0" result="BackgroundImageFix"/>
<feColorMatrix in="SourceAlpha" type="matrix" values="0 0 0 0 0 0 0 0 0 0 0 0 0 0 0 0 0 0 127 0" result="hardAlpha"/>
<feOffset dx="1" dy="1"/>
<feGaussianBlur stdDeviation="1"/>
<feComposite in2="hardAlpha" operator="out"/>
<feColorMatrix type="matrix" values="0 0 0 0 0 0 0 0 0 0 0 0 0 0 0 0 0 0 0.3 0"/>
<feBlend mode="normal" in2="BackgroundImageFix" result="effect1_dropShadow_1035_11550"/>
<feBlend mode="normal" in="SourceGraphic" in2="effect1_dropShadow_1035_11550" result="shape"/>
</filter>
</defs>
</svg>
