<svg width="90" height="90" viewBox="0 0 90 90" fill="none" xmlns="http://www.w3.org/2000/svg">
<g filter="url(#filter0_d_1035_11552)">
<path d="M71.2082 45.7206C70.8022 46.6038 70.1042 46.903 69.1532 46.8531C68.0705 46.7997 66.9807 46.8282 65.8909 46.8531C65.6808 46.8567 65.4279 46.96 65.2783 47.106C58.9994 53.3707 52.7311 59.6425 46.4629 65.9179C45.4906 66.8902 44.7213 66.8902 43.7561 65.9286C37.4772 59.6425 31.1947 53.3564 24.905 47.0811C24.7697 46.9457 24.5275 46.8602 24.3316 46.8567C23.1278 46.8353 21.9205 46.8496 20.7131 46.846C19.6874 46.8424 18.9929 46.212 19.0001 45.3003C19.0107 44.4135 19.7017 43.7938 20.6953 43.7902C21.3008 43.7867 21.9062 43.7902 22.5687 43.7902C20.9304 40.2892 20.6668 36.7491 21.9062 33.1449C22.8821 30.3099 24.6771 28.0875 27.1203 26.3495C31.5864 23.1726 39.8028 22.6135 45.1309 28.6075C47.7557 25.7868 50.9682 24.177 54.8467 24.0132C57.9167 23.8849 60.7338 24.6934 63.2411 26.4742C65.9906 28.4223 67.8212 31.0364 68.6439 34.313C69.4595 37.5611 69.0927 40.7095 67.6253 43.7902C68.1774 43.7902 68.6689 43.8258 69.1497 43.7831C70.097 43.7012 70.7987 44.0253 71.2047 44.9121C71.2082 45.1756 71.2082 45.4499 71.2082 45.7206ZM44.9777 47.1701C45.1166 46.9457 45.2163 46.7926 45.3054 46.6359C46.8333 43.9719 48.3576 41.3043 49.889 38.6403C50.6298 37.3546 51.9511 37.3261 52.7525 38.5833C53.7711 40.1895 54.7932 41.7922 55.7976 43.4056C55.9685 43.6798 56.143 43.7973 56.4814 43.7938C58.8605 43.776 61.2396 43.776 63.6151 43.7938C63.9748 43.7973 64.16 43.662 64.3381 43.3771C65.7591 41.112 66.3254 38.6438 65.8731 36.019C65.1822 31.9981 62.9063 29.1382 59.0848 27.7278C55.2491 26.3139 51.6591 26.9977 48.4965 29.6225C47.7557 30.2387 47.1004 30.9652 46.413 31.6455C45.5012 32.543 44.7142 32.5501 43.8167 31.6562C43.3002 31.1397 42.7909 30.6126 42.2638 30.1105C39.7779 27.7349 36.8254 26.727 33.4099 27.1508C25.7527 28.0982 21.6783 36.9272 25.8916 43.4056C26.0875 43.7047 26.2976 43.7938 26.6324 43.7902C28.1959 43.776 29.7594 43.7688 31.3193 43.7938C31.7182 43.8009 31.907 43.6905 32.0637 43.3094C33.239 40.4566 34.4463 37.6146 35.6323 34.7653C35.9101 34.0993 36.3304 33.6292 37.0818 33.5972C37.8333 33.5651 38.3141 33.9783 38.6204 34.6407C38.7985 35.0253 39.0015 35.3993 39.1938 35.7768C41.1099 39.5413 43.0189 43.3094 44.9777 47.1701ZM45.0418 62.7481C50.3485 57.4415 55.6658 52.1242 60.9475 46.8424C59.1703 46.8424 57.2863 46.8317 55.4022 46.8496C54.6864 46.8567 54.1735 46.5718 53.796 45.9699C53.0908 44.8302 52.3643 43.7012 51.6449 42.5686C51.5701 42.4511 51.481 42.3478 51.3742 42.2053C51.2531 42.4083 51.1676 42.5544 51.0821 42.7004C49.5222 45.4249 47.9587 48.1495 46.3988 50.8741C46.3738 50.9168 46.3453 50.9595 46.324 51.0058C46.0105 51.5899 45.544 51.9532 44.8602 51.9318C44.1799 51.914 43.749 51.5258 43.4463 50.931C41.4874 47.0526 39.5215 43.1812 37.5555 39.3063C37.4772 39.1531 37.3881 39.0071 37.2706 38.797C37.1709 39.0285 37.1032 39.1816 37.0391 39.3348C36.252 41.2117 35.4614 43.0886 34.6743 44.9655C33.8979 46.8104 33.8516 46.8424 31.8535 46.8424C30.9454 46.8424 30.0407 46.8424 29.129 46.8424C34.4891 52.1954 39.8064 57.5127 45.0418 62.7481Z" fill="#000"/>
</g>
<defs>
<filter id="filter0_d_1035_11552" x="18" y="23" width="56.207" height="46.6484" filterUnits="userSpaceOnUse" color-interpolation-filters="sRGB">
<feFlood flood-opacity="0" result="BackgroundImageFix"/>
<feColorMatrix in="SourceAlpha" type="matrix" values="0 0 0 0 0 0 0 0 0 0 0 0 0 0 0 0 0 0 127 0" result="hardAlpha"/>
<feOffset dx="1" dy="1"/>
<feGaussianBlur stdDeviation="1"/>
<feComposite in2="hardAlpha" operator="out"/>
<feColorMatrix type="matrix" values="0 0 0 0 0 0 0 0 0 0 0 0 0 0 0 0 0 0 0.3 0"/>
<feBlend mode="normal" in2="BackgroundImageFix" result="effect1_dropShadow_1035_11552"/>
<feBlend mode="normal" in="SourceGraphic" in2="effect1_dropShadow_1035_11552" result="shape"/>
</filter>
</defs>
</svg>
