<svg width="263" height="202" viewBox="0 0 263 202" fill="none" xmlns="http://www.w3.org/2000/svg">
<g opacity="0.7">
<path d="M62.6266 63.5952C62.6266 63.5952 48.9818 23.2211 96.575 28.1487C144.168 33.0763 121.429 15.2061 139.413 4.1164C157.397 -6.9733 210.387 27.5277 188.218 60.8044C166.048 94.0811 223.646 63.6408 235.661 113.683C243.076 144.564 224.681 167.293 209.505 180.178" stroke="#CCDDE2" stroke-width="2" stroke-miterlimit="10"/>
<path d="M214.145 141.596C210.569 120.885 197.905 102.35 177.33 95.7166C172.067 94.0292 166.685 92.737 161.229 91.8511V91.879C160.945 93.5983 160.271 95.2302 159.259 96.6494C157.115 99.5872 154.159 102 150.738 103.258C147.245 104.55 142.918 104.718 139.676 102.685C137.724 101.463 135.83 99.3109 135.488 96.9891C135.098 94.3732 136.431 91.8967 138.307 90.168C122.409 90.2972 107.453 92.9131 95.469 95.8915C95.8844 97.6306 96.4596 99.3277 97.1876 100.961C98.2063 103.238 99.6458 105.302 101.431 107.045C103.657 104.839 105.606 102.371 107.235 99.6937C108.794 100.204 110.168 101.161 111.187 102.446C112.206 103.731 112.825 105.286 112.967 106.92V107.004C113.595 112.938 107.882 117.397 103.081 120.139C97.5348 123.328 91.3525 125.716 85.2791 127.701C82.7748 128.522 79.5201 129.221 76.8763 128.365C76.5917 128.274 76.3139 128.163 76.0449 128.033C73.4087 126.74 71.6445 124.03 70.2681 121.554C66.3468 114.52 63.7968 106.852 62.0681 98.9814C50.0709 100.515 48.6971 92.391 47.9848 90.3986L37.7215 119.09C37.1831 121.152 37.125 123.311 37.5511 125.399C37.9775 127.487 38.8771 129.45 40.1807 131.137C41.4841 132.823 43.157 134.188 45.0706 135.127C46.9843 136.066 49.0877 136.553 51.2192 136.552H93.7073L113.007 186.056L118.477 200.107H149.721C147.186 200.107 145.8 199.488 144.793 198.479C143.754 197.44 143.169 196.031 143.166 194.561C143.166 191.519 145.663 189.025 149.721 189.025H150.007C149.701 189.025 149.407 188.997 149.1 188.969C149.29 188.948 149.479 188.917 149.665 188.875C149.464 188.87 149.264 188.855 149.065 188.83C150.895 188.613 152.591 187.761 153.857 186.421C155.122 185.081 155.876 183.339 155.987 181.499C155.992 181.403 155.992 181.308 155.987 181.212V181.065C155.943 179.179 155.222 177.372 153.956 175.973C152.69 174.575 150.962 173.679 149.09 173.448C149.303 173.431 149.506 173.413 149.711 173.413C149.526 173.367 149.321 173.339 149.128 173.312C149.432 173.284 149.739 173.263 150.033 173.263L172.892 173.385L177.097 173.403H182.088C182.318 173.403 182.552 173.403 182.772 173.431L190.186 173.469L195.139 173.497C197.21 173.514 199.188 174.35 200.643 175.823C202.098 177.295 202.911 179.284 202.903 181.354C202.901 182.525 202.629 183.679 202.11 184.728C204.235 184.456 206.206 183.474 207.702 181.94C211.268 178.297 212.804 172.845 213.866 167.999C215.745 159.365 215.633 150.268 214.145 141.596ZM156.393 142.179C152.086 148.808 144.753 148.212 144.753 148.212C144.753 148.212 144.145 148.805 142.725 146.281C141.306 143.756 137.263 142.03 137.263 142.03C136.941 144.565 136.274 148.417 129.658 143.424C123.042 138.43 125.037 131.15 125.603 127.305C126.168 123.46 128.421 122.185 128.421 122.185L131.083 120.781C131.083 120.781 123.385 118.801 123.015 118.727C122.644 118.654 115.788 112.913 122.746 111.397C129.704 109.881 140.55 115.909 142.646 117.1C144.743 118.291 156.993 128.654 156.993 128.654C156.993 128.654 160.722 135.561 156.393 142.179Z" fill="#353642"/>
<path d="M62.0586 98.9871C62.0586 98.9871 67.8607 98.2825 70.033 94.1406L68.1396 104.764C68.1396 104.764 91.2213 96.9061 95.4544 95.8922C95.4544 95.8922 96.8181 104.685 102.248 107.045L107.85 99.9225C107.85 99.9225 114.873 101.697 112.952 111.268C111.031 120.84 84.456 128.839 79.9491 128.654C75.4423 128.469 70.5907 125.696 65.6225 110.794L62.0586 98.9871Z" fill="#353642"/>
<path d="M71.5092 75.3242C72.9794 77.7171 74.4572 80.1048 75.9831 82.4622C76.9235 83.9146 78.6371 85.9855 76.8145 87.5039C76.2214 87.9586 75.5051 88.2238 74.7588 88.2643C73.5878 88.3682 72.3584 88.0869 71.6461 87.0806L68.0974 81.1999C67.3902 80.027 66.267 79.1637 64.952 78.7812C63.6367 78.3989 62.2258 78.5259 61 79.1365" stroke="black" stroke-width="2" stroke-miterlimit="10"/>
<path d="M84.9325 83.0657C85.8602 85.2709 85.2316 86.6929 84.1467 87.4078C82.3723 88.5712 79.9972 88.0136 78.74 86.3153L71.5234 75.332" stroke="black" stroke-width="2" stroke-miterlimit="10"/>
<path d="M77.619 72.1263C80.245 75.3202 83.558 81.2516 85.3907 83.7281C87.2233 86.2045 90.0572 84.7116 90.0572 84.7116C92.3588 83.472 91.9684 81.4163 90.9621 78.9196C88.4831 72.7904 84.9445 68.7145 80.9979 66.0428C68.7675 57.7693 56.2203 63.8731 52.4866 78.1541L37.7215 119.088C37.1831 121.151 37.125 123.309 37.5511 125.398C37.9775 127.486 38.8771 129.449 40.1807 131.135C41.4841 132.822 43.157 134.187 45.0706 135.126C46.9843 136.064 49.0877 136.552 51.2192 136.55H93.7073L118.485 200.108" stroke="black" stroke-width="2" stroke-miterlimit="10"/>
<path d="M92.7902 76.1079C95.8319 75.0534 95.6925 70.2018 91.3758 68.5643C86.6079 66.7545 78.1417 64.1944 76.015 63.5556C76.0018 63.5455 75.9858 63.5394 75.9694 63.5378C75.8198 63.4922 75.7159 63.4542 75.6348 63.4365L75.5156 63.3984" stroke="black" stroke-width="2" stroke-miterlimit="10"/>
<path d="M137.734 124.613C135.072 121.414 127.787 119.602 123.032 118.725C122.233 118.575 121.504 118.169 120.955 117.569C120.407 116.969 120.068 116.206 119.99 115.397C119.935 114.851 119.998 114.299 120.175 113.78C120.459 112.982 121.002 112.302 121.717 111.85C122.433 111.398 123.28 111.199 124.122 111.285C132.233 112.107 140.598 114.659 146.785 120.157C146.785 120.157 176.779 143.046 180.361 145.274C181.839 146.172 183.218 145.112 182.217 143.703L181.902 143.165C180.139 140.14 178.053 137.315 175.679 134.74" stroke="black" stroke-width="2" stroke-miterlimit="10"/>
<path d="M138.286 90.1659C100.564 90.4802 68.1387 104.761 68.1387 104.761L71.3756 86.6172" stroke="black" stroke-width="2" stroke-miterlimit="10"/>
<path d="M196.875 188.91C196.875 188.91 192.766 187.98 191.674 191.27C190.581 194.56 189.44 199.795 197.296 200.104C205.151 200.413 200.538 198.87 200.084 196.327C199.63 193.785 196.875 188.91 196.875 188.91Z" fill="#353642"/>
<path d="M134.106 128.793C134.106 128.793 129.672 125.432 125.68 128.839C125.512 128.987 125.365 129.157 125.244 129.345" stroke="black" stroke-width="2" stroke-miterlimit="10"/>
<g opacity="0.77">
<path opacity="0.77" d="M78.724 86.3072C79.9914 88.008 82.364 88.5631 84.1307 87.3971C85.2029 86.6874 85.8315 85.273 84.9266 83.088C85.0914 83.3288 85.2409 83.5417 85.388 83.7369C87.2181 86.2235 90.0545 84.7255 90.0545 84.7255C92.3561 83.486 91.9683 81.4302 90.962 78.9309C89.9772 76.4555 88.6852 74.1136 87.1167 71.9603C88.1433 70.9996 89.3625 70.0288 90.6476 70.4546C92.0342 70.9159 92.422 72.6548 92.5792 74.1047C92.6527 74.779 92.7262 75.4456 92.7997 76.1199L93.9099 86.0461C94.28 89.3413 94.6501 92.6847 95.4536 95.9013C95.8691 97.6405 96.4442 99.3375 97.1722 100.971C98.1909 103.248 99.6304 105.312 101.415 107.054C103.642 104.849 105.591 102.381 107.22 99.7035C108.778 100.214 110.153 101.171 111.172 102.456C112.191 103.74 112.81 105.296 112.951 106.93V107.014C113.58 112.948 107.866 117.406 103.066 120.149C97.5195 123.338 91.3371 125.726 85.2637 127.71C82.7594 128.532 79.5047 129.231 76.8609 128.375C76.5763 128.284 76.2985 128.173 76.0295 128.042C73.3933 126.75 71.6291 124.04 70.2527 121.564C63.6623 109.713 60.9247 96.1067 59.4824 82.6317C62.367 82.2338 65.2415 81.7902 68.0804 81.1793C68.0804 81.1793 68.0804 81.1996 68.0982 81.2072L71.3706 86.6342L71.6393 87.0854C72.349 88.0993 73.5784 88.3705 74.752 88.2691C75.4982 88.2321 76.2151 87.9667 76.8052 87.5087C78.6251 85.9878 76.9167 83.9245 75.9738 82.472" fill="white"/>
<path opacity="0.77" d="M78.724 86.3072C79.9914 88.008 82.364 88.5631 84.1307 87.3971C85.2029 86.6874 85.8315 85.273 84.9266 83.088C85.0914 83.3288 85.2409 83.5417 85.388 83.7369C87.2181 86.2235 90.0545 84.7255 90.0545 84.7255C92.3561 83.486 91.9683 81.4302 90.962 78.9309C89.9772 76.4555 88.6852 74.1136 87.1167 71.9603C88.1433 70.9996 89.3625 70.0288 90.6476 70.4546C92.0342 70.9159 92.422 72.6548 92.5792 74.1047C92.6527 74.779 92.7262 75.4456 92.7997 76.1199L93.9099 86.0461C94.28 89.3413 94.6501 92.6847 95.4536 95.9013C95.8691 97.6405 96.4442 99.3375 97.1722 100.971C98.1909 103.248 99.6304 105.312 101.415 107.054C103.642 104.849 105.591 102.381 107.22 99.7035C108.778 100.214 110.153 101.171 111.172 102.456C112.191 103.74 112.81 105.296 112.951 106.93V107.014C113.58 112.948 107.866 117.406 103.066 120.149C97.5195 123.338 91.3371 125.726 85.2637 127.71C82.7594 128.532 79.5047 129.231 76.8609 128.375C76.5763 128.284 76.2985 128.173 76.0295 128.042C73.3933 126.75 71.6291 124.04 70.2527 121.564C63.6623 109.713 60.9247 96.1067 59.4824 82.6317C62.367 82.2338 65.2415 81.7902 68.0804 81.1793C68.0804 81.1793 68.0804 81.1996 68.0982 81.2072L71.3706 86.6342L71.6393 87.0854C72.349 88.0993 73.5784 88.3705 74.752 88.2691C75.4982 88.2321 76.2151 87.9667 76.8052 87.5087C78.6251 85.9878 76.9167 83.9245 75.9738 82.472" fill="#80B2FF"/>
<path opacity="0.77" d="M79.5021 87.1116C80.625 88.6325 82.5439 88.4398 84.1306 87.398C85.0888 86.7643 85.8746 86.9494 85.066 84.995C85.2155 85.208 85.2358 84.4881 85.3676 84.6478C87.0026 86.8683 85.3879 83.7302 85.3879 83.7302C87.6692 86.6122 92.6348 83.8975 91.7249 81.6694C90.7616 79.269 89.7477 75.7203 88.4626 73.9459C89.4765 72.9878 89.2813 73.1297 90.5715 73.8927C90.918 74.1152 91.2083 74.4156 91.4189 74.7697C91.6298 75.1238 91.7553 75.522 91.7857 75.9332C91.8896 76.8989 91.9935 77.8241 92.0975 78.7671L93.086 87.6388C93.4181 90.5868 93.7476 93.5652 94.465 96.4345C94.8358 97.9861 95.3501 99.4999 96.0011 100.957C96.9085 102.962 99.8235 106.3 101.415 107.828C103.395 105.864 105.768 102.252 107.22 99.8514C110.008 100.708 109.887 103.375 110.084 106.287V106.363C110.647 111.658 105.547 115.636 101.273 118.087C96.3204 120.933 90.8022 123.062 85.3803 124.837C83.1446 125.572 80.2397 126.206 77.8798 125.43C77.6254 125.35 77.3769 125.25 77.1372 125.133C74.7849 123.978 73.2082 121.562 71.9789 119.349C66.5975 109.684 64.1007 98.7108 62.7269 87.7098C62.626 86.8865 62.8488 86.0566 63.3482 85.3945C63.8475 84.7324 64.5844 84.2901 65.4036 84.1611C66.9473 83.9076 68.4859 83.6541 70.0144 83.3145L70.0575 83.3348L72.9776 88.1787C73.6138 89.0786 73.7177 88.3739 74.7646 88.2827C75.4262 88.2244 76.7088 88.0951 77.2208 87.6667C78.8456 86.3131 77.928 85.7529 77.0865 84.4577" fill="#80B2FF"/>
</g>
<path d="M133.572 133.688C133.572 133.688 125.154 130.92 125.027 135.574" stroke="black" stroke-width="2" stroke-miterlimit="10"/>
<path opacity="0.54" d="M58.2216 181.095L41.7125 138.799C41.5079 137.981 41.4927 137.127 41.6676 136.301C41.8428 135.476 42.2037 134.702 42.7229 134.037C43.2422 133.372 43.9061 132.834 44.6645 132.464C45.4227 132.094 46.2553 131.902 47.0989 131.902H112.674C114.146 131.902 115.576 132.398 116.733 133.309C117.889 134.22 118.705 135.495 119.049 136.926L137.122 179.212C137.317 180.027 137.325 180.877 137.145 181.696C136.965 182.515 136.602 183.283 136.082 183.942C135.563 184.6 134.901 185.133 134.147 185.499C133.392 185.865 132.564 186.055 131.725 186.056H64.5814C63.1198 186.057 61.7001 185.569 60.5477 184.67C59.3954 183.771 58.5767 182.513 58.2216 181.095Z" fill="white"/>
<path d="M136.311 140.82C136.311 140.82 137.677 142.073 137.158 143.862C136.773 145.188 135.454 146.024 134.149 145.571C129.992 144.133 126.248 141.692 125.336 137.543C124.904 135.442 124.811 133.286 125.059 131.155C125.26 129.181 125.551 127.049 126.215 125.171C127.229 122.286 130.334 120.276 133.348 121.665" stroke="black" stroke-width="2" stroke-miterlimit="10"/>
<path d="M58.2216 181.095L41.7125 138.799C41.5079 137.981 41.4927 137.127 41.6676 136.301C41.8428 135.476 42.2037 134.702 42.7229 134.037C43.2422 133.372 43.9061 132.834 44.6645 132.464C45.4227 132.094 46.2553 131.902 47.0989 131.902H112.674C114.146 131.902 115.576 132.398 116.733 133.309C117.889 134.22 118.705 135.495 119.049 136.926L137.122 179.212C137.317 180.027 137.325 180.877 137.145 181.696C136.965 182.515 136.602 183.283 136.082 183.942C135.563 184.6 134.901 185.133 134.147 185.499C133.392 185.865 132.564 186.055 131.725 186.056H64.5814C63.1198 186.057 61.7001 185.569 60.5477 184.67C59.3954 183.771 58.5767 182.513 58.2216 181.095Z" fill="#80B2FF"/>
<path d="M58.2216 181.095L41.7125 138.799C41.5079 137.981 41.4927 137.127 41.6676 136.301C41.8428 135.476 42.2037 134.702 42.7229 134.037C43.2422 133.372 43.9061 132.834 44.6645 132.464C45.4227 132.094 46.2553 131.902 47.0989 131.902H112.674C114.146 131.902 115.576 132.398 116.733 133.309C117.889 134.22 118.705 135.495 119.049 136.926L137.122 179.212C137.317 180.027 137.325 180.877 137.145 181.696C136.965 182.515 136.602 183.283 136.082 183.942C135.563 184.6 134.901 185.133 134.147 185.499C133.392 185.865 132.564 186.055 131.725 186.056H64.5814C63.1198 186.057 61.7001 185.569 60.5477 184.67C59.3954 183.771 58.5767 182.513 58.2216 181.095Z" stroke="black" stroke-width="2" stroke-linecap="square" stroke-linejoin="round"/>
<path d="M60.6357 179.386L45.4042 140.351C45.2158 139.595 45.2021 138.807 45.3639 138.046C45.5256 137.285 45.8586 136.57 46.338 135.957C46.817 135.344 47.4297 134.848 48.1291 134.507C48.8287 134.166 49.5967 133.988 50.3749 133.988H110.87C112.228 133.988 113.547 134.445 114.614 135.285C115.681 136.126 116.434 137.301 116.751 138.622L133.427 177.635C133.607 178.388 133.614 179.171 133.448 179.927C133.282 180.683 132.946 181.391 132.467 181.999C131.988 182.607 131.377 183.098 130.681 183.435C129.984 183.773 129.22 183.949 128.446 183.949H66.5012C65.155 183.95 63.847 183.502 62.7847 182.675C61.7221 181.849 60.966 180.691 60.6357 179.386Z" fill="#80B2FF"/>
<path d="M190.105 173.262L201.705 200.103" stroke="black" stroke-width="2" stroke-miterlimit="10"/>
<path d="M245.131 200.109H17" stroke="black" stroke-width="2" stroke-miterlimit="10"/>
<path d="M137.244 78.9648C135.363 80.8228 132.555 80.8203 130.955 79.1017" stroke="black" stroke-width="2" stroke-miterlimit="10"/>
<path d="M87.1172 71.9525C88.1438 70.9918 89.363 70.021 90.6481 70.4468C92.0347 70.9081 92.4225 72.647 92.5797 74.0969C93.024 78.0816 93.4676 82.0622 93.9104 86.0385C94.4731 91.1081 95.0663 96.2991 97.1727 100.958C98.1914 103.235 99.6309 105.299 101.416 107.042" stroke="black" stroke-width="2" stroke-miterlimit="10"/>
<path d="M112.951 107.01V106.926C112.81 105.292 112.191 103.736 111.172 102.451C110.153 101.167 108.779 100.209 107.22 99.6992C105.591 102.376 103.642 104.845 101.416 107.05C95.5787 112.854 88.0806 116.698 79.9611 118.049C80.3515 119.602 81.155 121.017 81.7101 122.512C82.2652 124.008 82.5415 125.739 81.8673 127.181C81.0156 129.022 78.5721 128.781 76.8737 128.373C76.856 128.373 76.8459 128.373 76.8281 128.373" stroke="black" stroke-width="2" stroke-miterlimit="10"/>
<path d="M68.0863 81.1758C65.2473 81.7867 62.3729 82.2302 59.4883 82.6282C60.9306 96.1031 63.658 109.71 70.2586 121.56C71.635 124.037 73.3992 126.746 76.0354 128.039C76.3043 128.169 76.5821 128.281 76.8668 128.371C79.5106 129.24 82.7652 128.528 85.2696 127.707C91.3531 125.72 97.5253 123.334 103.071 120.146C107.86 117.4 113.573 112.944 112.957 107.01C112.898 106.357 112.764 105.712 112.559 105.089" stroke="black" stroke-width="2" stroke-miterlimit="10"/>
<path d="M115.557 54.2965C115.982 56.0704 116.953 57.6658 118.333 58.8581C119.713 60.0508 121.433 60.7798 123.25 60.9428C123.401 60.2112 123.728 59.5271 124.203 58.9507C126.231 56.5604 127.095 61.0444 133.582 57.8252C142.57 53.3538 145.982 55.9191 145.982 55.9191C146.281 56.1421 146.235 58.2001 146.286 58.5753C146.539 60.7121 146.767 62.8388 147.018 64.9731C147.171 66.2759 147.32 67.5689 147.462 68.8617C147.584 68.6417 147.72 68.429 147.868 68.2252C148.686 65.3279 150.149 61.9062 153.302 63.3789C153.941 63.6902 154.497 64.1477 154.924 64.7145C157.016 67.4622 155.431 70.1161 153.244 72.0806C152.696 72.6902 152.083 73.2382 151.416 73.7158C151.776 74.461 153.246 77.4191 153.246 77.4293C153.398 77.7284 158.537 71.9133 158.919 71.2796C159.491 69.7273 159.798 68.0898 159.827 66.4359C159.91 59.6351 157.142 51.7187 151.634 47.8176C150.268 46.8519 150.704 45.9216 150.62 44.6086C150.615 44.5376 150.587 44.4702 150.542 44.4149C150.497 44.3597 150.437 44.3194 150.368 44.2993C150.3 44.2793 150.227 44.2806 150.16 44.3026C150.092 44.3249 150.033 44.367 149.989 44.4238C148.263 46.4111 143.989 46.2134 143.989 46.2134C129.156 42.4974 124.17 49.0929 121.176 50.269C119.955 50.7316 118.61 50.7539 117.374 50.3324C117.301 50.7415 117.118 51.123 116.844 51.4358C116.57 51.7486 116.216 51.9805 115.82 52.1067L115.896 52.7934C115.961 53.3189 115.841 53.8502 115.557 54.2965Z" fill="#80B2FF"/>
<path d="M123.261 60.9491C121.445 60.7858 119.725 60.0568 118.345 58.8644C116.965 57.6721 115.993 56.0764 115.568 54.3028C115.402 53.6225 115.296 52.9285 115.254 52.2294L115.371 52.2167C115.53 52.2048 115.687 52.1706 115.837 52.1153C116.233 51.9891 116.587 51.7572 116.861 51.4444C117.135 51.1318 117.318 50.7501 117.391 50.341C117.437 50.1141 117.446 49.8812 117.419 49.6515L117.038 46.2954C117.038 46.2954 119.72 48.2903 122.696 47.1243C125.672 45.9583 130.668 39.3628 145.509 43.0687C145.509 43.0687 148.86 43.2664 150.579 41.2791C150.622 41.2223 150.681 41.1802 150.749 41.1582C150.817 41.1359 150.889 41.1349 150.958 41.1549C151.026 41.1749 151.087 41.2152 151.132 41.2702C151.177 41.3255 151.204 41.3932 151.21 41.4641C151.299 42.7797 151.785 43.71 153.154 44.6732C158.662 48.5768 161.43 56.4904 161.344 63.2912C161.319 66.1124 160.381 68.8981 158.933 71.2885C158.551 71.9222 153.413 77.737 153.261 77.4379C153.261 77.4379 151.79 74.4696 151.43 73.7244L151.344 73.5596L151.509 73.4506C152.121 73.0352 152.705 72.5804 153.258 72.0894C155.443 70.125 157.03 67.4711 154.939 64.7234C154.51 64.1566 153.955 63.6988 153.316 63.3875C150.153 61.9148 148.7 65.3368 147.882 68.234C147.723 68.7876 147.625 69.3572 147.59 69.9323C147.552 69.5775 147.514 69.2353 147.476 68.8804C147.334 67.5877 147.185 66.2949 147.033 64.992C146.779 62.8577 146.541 60.7311 146.3 58.5942C146.262 58.2292 146.3 56.1608 145.996 55.9378C145.996 55.9378 142.581 53.3726 133.596 57.8439C127.109 61.0631 126.245 56.5765 124.217 58.9694C123.742 59.546 123.415 60.2299 123.264 60.9617C123.217 61.1967 123.188 61.4347 123.175 61.674C123.17 61.7049 123.17 61.7366 123.175 61.7678C123.145 62.2925 123.135 62.8147 123.122 63.3267C123.074 68.267 123.616 73.4278 125.555 78.0158C127.913 83.5771 134.151 89.0624 140.637 86.4693C142.665 85.6556 144.483 84.3452 146.145 82.9536" stroke="black" stroke-width="2" stroke-miterlimit="10"/>
<path d="M127.7 73.0053C128.346 72.7893 128.657 71.9815 128.396 71.201C128.135 70.4203 127.4 69.9625 126.754 70.1785C126.109 70.3942 125.798 71.202 126.059 71.9827C126.321 72.7634 127.055 73.2212 127.7 73.0053Z" fill="black"/>
<path d="M137.351 72.6928C137.996 72.477 138.307 71.6692 138.046 70.8885C137.785 70.1078 137.05 69.65 136.405 69.866C135.76 70.0819 135.448 70.8898 135.71 71.6702C135.971 72.4509 136.705 72.9087 137.351 72.6928Z" fill="black"/>
<path d="M133.662 74.3676C133.662 74.3676 130.45 76.1901 130.255 74.2991C130.194 73.7161 129.409 68.0053 129.409 68.0053C129.409 68.0053 126.813 65.255 122.836 67.2879" stroke="black" stroke-width="2" stroke-miterlimit="10"/>
<path d="M132.938 66.4063C132.938 66.4063 138.124 63.8157 141.556 67.5494" stroke="black" stroke-width="2" stroke-miterlimit="10"/>
<path d="M137.695 87.1094L138.291 90.1663C136.412 91.8976 135.084 94.3792 135.472 96.9925C135.817 99.3093 137.713 101.466 139.657 102.681C142.906 104.708 147.228 104.549 150.726 103.259C154.146 101.991 157.104 99.5856 159.248 96.6503C160.258 95.2313 160.931 93.6007 161.215 91.8824V91.852" stroke="black" stroke-width="2" stroke-miterlimit="10"/>
<path d="M138.289 90.168L139.45 95.6887" stroke="black" stroke-width="2" stroke-miterlimit="10"/>
<path d="M154.706 76.1094L156.461 87.7567C156.633 88.8969 157.21 89.9371 158.085 90.6882C158.96 91.4395 160.075 91.8519 161.228 91.8504C166.688 92.7351 172.073 94.0263 177.34 95.7134C197.914 102.349 210.578 120.884 214.155 141.593C215.643 150.265 215.754 159.359 213.886 167.983C212.824 172.837 211.288 178.289 207.722 181.924C203.09 186.664 195.983 184.712 190.51 182.57C173.52 175.962 159.388 164.206 147.186 150.746C140.661 143.547 132.23 137.778 132.23 137.778" stroke="black" stroke-width="2" stroke-miterlimit="10"/>
<path d="M66.2515 170.655C64.3454 170.638 62.6851 169.099 62.2567 166.957C61.4101 162.744 61.187 156.23 67.3643 154.808C75.0827 153.034 81.0192 161.439 83.9291 166.752C84.9076 168.526 83.7999 170.808 81.9774 170.808L66.2515 170.655Z" fill="#D7E8F0"/>
<path d="M68.8 151.23C70.4385 150.14 70.4639 147.297 68.856 144.881C67.2485 142.465 64.6169 141.39 62.9781 142.481C61.3394 143.571 61.3143 146.414 62.9218 148.83C64.5297 151.246 67.1613 152.321 68.8 151.23Z" fill="#D7E8F0"/>
<path d="M195.643 189.051C195.524 189.069 195.39 189.086 195.273 189.114H195.228L177.198 189.02L150.144 188.881C150.04 188.881 149.938 188.881 149.837 188.881C149.636 188.876 149.436 188.861 149.236 188.835C151.069 188.623 152.768 187.77 154.035 186.428C155.301 185.085 156.053 183.34 156.159 181.497C156.164 181.402 156.164 181.306 156.159 181.211V181.064C156.151 179.261 155.523 177.516 154.38 176.122C153.237 174.729 151.649 173.771 149.883 173.411C149.698 173.366 149.495 173.338 149.3 173.31C149.606 173.282 149.911 173.262 150.207 173.262L173.063 173.383L177.271 173.401L182.946 173.429C184.89 173.606 186.697 174.502 188.015 175.942C189.332 177.381 190.066 179.26 190.072 181.211C190.072 181.579 190.044 181.947 189.988 182.311C189.718 184.169 188.79 185.868 187.373 187.099C185.956 188.33 184.144 189.012 182.267 189.02H196.001C195.21 189.02 195.43 189.02 195.643 189.051Z" fill="white"/>
<path d="M159.072 198.478C159.587 198.996 160.2 199.407 160.875 199.686C161.55 199.965 162.273 200.108 163.003 200.106H149.726C147.191 200.106 145.807 199.487 144.799 198.478C143.762 197.437 143.178 196.029 143.174 194.559C143.174 191.518 145.668 189.023 149.726 189.023H163.003C161.907 189.022 160.835 189.345 159.923 189.954C159.011 190.562 158.3 191.427 157.881 192.44C157.461 193.452 157.351 194.567 157.566 195.642C157.78 196.717 158.309 197.704 159.085 198.478H159.072Z" fill="#D7E8F0"/>
<path d="M202.923 181.355C202.92 182.526 202.647 183.68 202.127 184.729C201.756 185.521 201.246 186.242 200.622 186.855C199.592 187.875 198.299 188.589 196.888 188.916C196.306 189.05 195.711 189.119 195.113 189.119C195.235 189.091 195.367 189.073 195.484 189.055C195.271 189.035 195.05 189.028 195.843 189.028H182.107C183.986 189.021 185.799 188.339 187.217 187.107C188.635 185.875 189.564 184.175 189.833 182.316C189.889 181.952 189.917 181.584 189.917 181.215C189.911 179.264 189.177 177.385 187.859 175.945C186.541 174.506 184.733 173.611 182.789 173.434L190.204 173.472L195.157 173.5C197.226 173.517 199.205 174.353 200.66 175.825C202.116 177.297 202.929 179.285 202.923 181.355Z" fill="#80B2FF"/>
<path d="M202.921 181.345C202.905 183.416 202.07 185.397 200.597 186.853C199.124 188.309 197.134 189.122 195.063 189.114L149.964 188.881C149.662 188.881 149.361 188.858 149.057 188.828C150.958 188.612 152.714 187.707 153.992 186.283C155.27 184.86 155.981 183.017 155.992 181.104C156.001 179.191 155.309 177.34 154.046 175.903C152.783 174.466 151.037 173.543 149.138 173.307C149.439 173.276 149.742 173.261 150.045 173.262L195.144 173.495C197.215 173.509 199.196 174.343 200.654 175.814C202.111 177.286 202.926 179.274 202.921 181.345Z" stroke="black" stroke-width="2" stroke-linecap="square" stroke-linejoin="round"/>
<path d="M189.911 181.209C189.907 183.28 189.083 185.265 187.618 186.729C186.154 188.193 184.17 189.018 182.099 189.022H150.011C149.708 189.02 149.405 189.003 149.104 188.971C151.003 188.745 152.754 187.831 154.025 186.401C155.295 184.97 155.997 183.124 155.997 181.211C155.997 179.298 155.295 177.451 154.025 176.021C152.754 174.591 151.003 173.676 149.104 173.45C149.405 173.423 149.709 173.402 150.011 173.402H182.099C184.169 173.407 186.152 174.231 187.616 175.694C189.08 177.157 189.905 179.14 189.911 181.209Z" stroke="black" stroke-width="2" stroke-linecap="square" stroke-linejoin="round"/>
<path d="M143.174 194.559C143.174 195.286 143.317 196.006 143.595 196.678C143.874 197.349 144.282 197.959 144.796 198.473C145.81 199.487 147.186 200.103 149.724 200.103H195.839C195.046 200.103 195.261 200.088 195.477 200.067C194.127 199.909 192.883 199.26 191.98 198.245C191.078 197.229 190.579 195.918 190.579 194.559C190.579 193.201 191.078 191.889 191.98 190.874C192.883 189.859 194.127 189.21 195.477 189.051C195.261 189.031 195.046 189.016 195.839 189.016H149.724C145.663 189.018 143.174 191.512 143.174 194.559Z" stroke="black" stroke-width="2" stroke-linecap="square" stroke-linejoin="round"/>
<path d="M157.445 194.559C157.449 196.029 158.034 197.437 159.073 198.475C160.112 199.514 161.52 200.1 162.989 200.103H194.833C195.046 200.103 195.262 200.088 195.477 200.067C194.128 199.909 192.884 199.26 191.981 198.245C191.078 197.229 190.58 195.918 190.58 194.559C190.58 193.201 191.078 191.889 191.981 190.874C192.884 189.859 194.128 189.21 195.477 189.051C195.262 189.031 195.046 189.016 194.833 189.016H162.989C161.52 189.02 160.112 189.605 159.073 190.644C158.035 191.682 157.449 193.09 157.445 194.559Z" stroke="black" stroke-width="2" stroke-linecap="square" stroke-linejoin="round"/>
<path d="M105.824 152.27H91.5992C90.9482 152.268 90.3118 152.078 89.7673 151.721C89.2228 151.365 88.7937 150.858 88.5321 150.262C88.4312 150.04 88.3879 149.796 88.4066 149.553C88.4251 149.31 88.505 149.076 88.6385 148.872C88.7721 148.668 88.9551 148.501 89.1706 148.387C89.3861 148.273 89.6266 148.215 89.8705 148.219H104.993C104.281 149.418 104.643 151.083 105.824 152.27Z" fill="#353642"/>
<path d="M115.023 150.8C115.022 151.188 114.868 151.56 114.594 151.834C114.32 152.108 113.948 152.262 113.56 152.263H105.824C104.643 151.079 104.281 149.414 104.993 148.207H111.824C112.474 148.207 113.11 148.396 113.655 148.751C114.2 149.105 114.63 149.61 114.894 150.204C114.976 150.393 115.019 150.595 115.023 150.8Z" fill="#D7E8F0"/>
<path d="M111.464 152.266C111.424 152.344 111.377 152.417 111.325 152.487C110.311 153.873 108.108 154.008 106.397 152.756C106.195 152.606 106.003 152.443 105.824 152.266C104.643 151.083 104.281 149.417 104.993 148.211C105.033 148.133 105.08 148.06 105.132 147.99C106.146 146.594 108.339 146.469 110.05 147.711C110.256 147.865 110.45 148.035 110.63 148.218C111.801 149.397 112.166 151.052 111.464 152.266Z" fill="white"/>
<path d="M118.598 159.736C118.596 160.124 118.44 160.496 118.164 160.769C117.889 161.043 117.516 161.196 117.128 161.196H102.201C102.921 159.985 102.561 158.332 101.377 157.141H115.399C116.051 157.141 116.687 157.33 117.233 157.686C117.778 158.043 118.207 158.549 118.469 159.146C118.553 159.331 118.597 159.532 118.598 159.736Z" fill="#D7E8F0"/>
<path d="M102.201 161.193H95.1774C94.5273 161.193 93.8908 161.005 93.3458 160.65C92.8008 160.295 92.3707 159.79 92.1078 159.195C92.0249 159.009 91.9811 158.808 91.9785 158.605C91.9783 158.413 92.0158 158.223 92.089 158.045C92.1623 157.868 92.2698 157.707 92.4054 157.571C92.541 157.436 92.7022 157.328 92.8794 157.255C93.0568 157.182 93.2467 157.144 93.4386 157.145H101.378C102.561 158.328 102.929 159.981 102.201 161.193Z" fill="#353642"/>
<path d="M102.202 161.193C102.169 161.272 102.125 161.348 102.072 161.416C101.058 162.81 98.8633 162.937 97.1549 161.692C96.9481 161.538 96.7534 161.369 96.5719 161.185C95.3983 160.002 95.0383 158.349 95.7405 157.13C95.781 157.052 95.8277 156.977 95.8799 156.907C96.8938 155.52 99.0965 155.386 100.805 156.64C101.009 156.788 101.2 156.952 101.378 157.13C102.562 158.329 102.929 159.981 102.202 161.193Z" fill="white"/>
<path d="M107.175 170.056H98.2377C97.5878 170.055 96.9521 169.866 96.4073 169.512C95.8624 169.157 95.4319 168.652 95.1681 168.059C95.0674 167.836 95.0246 167.592 95.0434 167.348C95.0624 167.105 95.1422 166.87 95.2758 166.665C95.4096 166.461 95.5926 166.294 95.8081 166.179C96.0238 166.064 96.2646 166.005 96.509 166.008H106.344C105.639 167.222 106.002 168.872 107.175 170.056Z" fill="#353642"/>
<path d="M121.658 168.606C121.656 168.991 121.501 169.361 121.228 169.632C120.954 169.904 120.584 170.056 120.198 170.056H107.175C106.001 168.872 105.639 167.219 106.343 166H118.459C119.11 166 119.747 166.19 120.293 166.546C120.838 166.902 121.267 167.409 121.529 168.005C121.612 168.194 121.657 168.399 121.658 168.606Z" fill="#D7E8F0"/>
<path d="M112.816 170.062C112.775 170.14 112.729 170.214 112.676 170.285C111.663 171.679 109.47 171.806 107.759 170.561C107.553 170.406 107.359 170.237 107.178 170.054C106.005 168.87 105.642 167.218 106.347 165.999C106.386 165.92 106.431 165.845 106.484 165.775C107.498 164.389 109.701 164.27 111.412 165.509C111.615 165.657 111.807 165.821 111.984 165.999C113.166 167.197 113.526 168.86 112.816 170.062Z" fill="white"/>
<path d="M45.291 89.2461L45.5141 89.3095L45.4304 89.6339C45.3775 89.5072 45.3308 89.3776 45.291 89.2461Z" fill="#353642"/>
<path d="M84.9593 109.521C88.2961 108.542 90.0492 104.506 88.8753 100.507C87.7014 96.5084 84.045 94.0605 80.7085 95.04C77.3717 96.0197 75.6186 100.055 76.7925 104.054C77.9663 108.053 81.6228 110.501 84.9593 109.521Z" fill="#D7E8F0"/>
</g>
</svg>
