<svg width="263" height="202" viewBox="0 0 263 202" fill="none" xmlns="http://www.w3.org/2000/svg">
<g opacity="0.7">
<path d="M29.6719 47.1094V72.365H31.5938H246.439H248.375V47.1094" stroke="#CCDDE2" stroke-width="2" stroke-miterlimit="10"/>
<path d="M236.966 100.733C234.372 104.088 231.085 107.018 226.865 109.067C224.384 110.269 221.655 111.091 218.811 111.494C212.385 112.412 205.617 111.253 199.669 108.824C197.717 108.03 195.852 107.099 194.097 106.043C192.749 105.228 191.461 104.349 190.239 103.412C189.693 102.987 189.161 102.551 188.648 102.097C187.176 100.81 185.872 99.4026 184.757 97.897C183.203 95.8326 182.106 93.5615 181.517 91.1877L236.966 100.733ZM246.439 168.054V72.3633H31.5879V167.624L101.918 167.902L106.775 167.92L137.897 168.049L246.439 168.054ZM31.5933 199.999H32.082L31.5933 199.516V199.999Z" stroke="#CCDDE2" stroke-width="2" stroke-miterlimit="10"/>
<path d="M31.5934 72.3633C31.5934 72.3633 28.5331 111.329 72.0384 112.35" stroke="#CCDDE2" stroke-width="2" stroke-miterlimit="10"/>
<path d="M181.516 91.1895C182.105 93.5636 183.202 95.8346 184.756 97.899C185.871 99.4046 187.175 100.812 188.646 102.099C189.16 102.544 189.692 102.989 190.238 103.414C191.46 104.351 192.748 105.23 194.095 106.045C195.851 107.101 197.715 108.031 199.667 108.826C205.616 111.255 212.384 112.414 218.81 111.496C221.654 111.093 224.383 110.271 226.864 109.069C231.084 107.02 234.371 104.09 236.965 100.735C240.058 96.7311 242.152 92.1149 243.664 87.7036C245.256 83.0053 246.438 78.1848 246.438 73.293" stroke="#CCDDE2" stroke-width="2" stroke-miterlimit="10"/>
<path d="M19.0976 47.1089H258.704C259.16 47.11 259.607 47.0008 259.986 46.7952C260.366 46.5895 260.662 46.2965 260.838 45.9537C261.013 45.6107 261.06 45.2329 260.972 44.8683C260.883 44.5037 260.664 44.1687 260.342 43.9055L236.916 24.8164H37.9155L17.3641 43.9989C17.0731 44.2703 16.8839 44.604 16.8195 44.9606C16.755 45.317 16.8181 45.6812 17.001 46.0093C17.1839 46.3372 17.4788 46.6155 17.8506 46.8106C18.2224 47.0057 18.6554 47.1091 19.0976 47.1089Z" stroke="#CCDDE2" stroke-width="2" stroke-miterlimit="10"/>
<path d="M209.753 140.487C210.818 139.548 212.054 138.678 212.909 137.642C215.303 134.719 214.383 130.988 215.912 127.785C217.782 123.872 223.668 121.142 229.447 121.5C228.895 123.366 228.521 125.263 228.328 127.175C228.159 128.888 228.568 130.795 228.118 132.454C227.38 135.124 223.455 136.743 222.977 139.484C222.554 141.906 225.161 144.171 224.724 146.636C224.268 149.281 220.539 150.742 219.169 153.087C218.049 154.989 218.573 157.165 217.995 159.189C217.29 161.636 214.855 163.79 211.661 164.804C211.557 164.84 211.448 164.875 211.344 164.904C210.375 164.083 209.27 162.639 208.363 161.078" stroke="#CCDDE2" stroke-width="2" stroke-miterlimit="10"/>
<path d="M225.913 124.574C217.291 134.16 213.237 154.384 211.659 164.804C211.528 165.684 211.413 166.488 211.312 167.215" stroke="#CCDDE2" stroke-width="2" stroke-miterlimit="10"/>
<path d="M189.934 168.055C190.183 167.794 190.502 167.583 190.867 167.439C191.232 167.295 191.633 167.221 192.038 167.223H227.788C228.195 167.221 228.597 167.295 228.964 167.439C229.33 167.584 229.652 167.794 229.904 168.055" stroke="#CCDDE2" stroke-width="2" stroke-miterlimit="10"/>
<path d="M206.024 164.469C207.558 162.894 209.439 159.388 210.269 156.523C210.957 154.163 209.748 151.731 209.472 149.309C209.041 145.516 210.862 141.436 208.942 138.001C207.87 136.084 205.784 134.72 204.534 132.885C202.229 129.503 203.114 125.179 201.642 121.468C199.841 116.935 194.19 113.771 188.637 114.189C189.17 116.359 189.529 118.554 189.712 120.761C189.876 122.743 189.48 124.952 189.917 126.876C190.621 129.973 194.392 131.848 194.853 135.023C195.26 137.826 192.764 140.453 193.174 143.307C193.616 146.372 197.193 148.063 198.514 150.777C199.587 152.982 199.082 155.507 199.641 157.847C200.337 160.768 202.811 163.337 206.024 164.469Z" stroke="#CCDDE2" stroke-width="2" stroke-miterlimit="10"/>
<path d="M192.027 117.738C200.302 128.843 204.198 152.257 205.718 164.345C205.849 165.393 205.967 166.348 206.057 167.213" stroke="#CCDDE2" stroke-width="2" stroke-miterlimit="10"/>
<path d="M204.533 132.88C204.533 132.88 205.104 123.23 209.879 120.296C214.653 117.362 214.55 133.815 214.55 133.815" stroke="#CCDDE2" stroke-width="2" stroke-miterlimit="10"/>
<path d="M209.753 140.488C209.753 140.488 208.778 134.967 210.49 129.539" stroke="#CCDDE2" stroke-width="2" stroke-miterlimit="10"/>
<path d="M199.666 133.945H199.52" stroke="#CCDDE2" stroke-width="2" stroke-miterlimit="10"/>
<path d="M236.965 100.734V117.381V133.943H227.342" stroke="#CCDDE2" stroke-width="2" stroke-miterlimit="10"/>
<path d="M181.516 91.1914V97.9007V117.384V133.946H194.562" stroke="#CCDDE2" stroke-width="2" stroke-miterlimit="10"/>
<path d="M218.811 124.463V117.382V111.496" stroke="#CCDDE2" stroke-width="2" stroke-miterlimit="10"/>
<path d="M199.668 108.828V117.384V118.403" stroke="#CCDDE2" stroke-width="2" stroke-miterlimit="10"/>
<path d="M189.296 117.381H181.516V97.8984H184.756" stroke="#CCDDE2" stroke-width="2" stroke-miterlimit="10"/>
<path d="M236.965 100.734V117.381H218.811H199.668H198.59" stroke="#CCDDE2" stroke-width="2" stroke-miterlimit="10"/>
<path d="M41.1133 100.373V117.38V133.942H59.2569H78.4105H96.5623V117.38V97.8969V81.3438H78.4105" stroke="#CCDDE2" stroke-width="2" stroke-miterlimit="10"/>
<path d="M78.4095 81.3438V97.8969V117.38V133.942H59.2559V117.38V110.715V97.8969" stroke="#CCDDE2" stroke-width="2" stroke-miterlimit="10"/>
<path d="M59.2569 97.8984H78.4105H96.5623V117.381H78.4105H59.2569H41.1133V100.374" stroke="#CCDDE2" stroke-width="2" stroke-miterlimit="10"/>
<path d="M173.872 102.023V168.053H137.885L106.763 167.922L101.906 167.904V102.023H173.872Z" stroke="#CCDDE2" stroke-width="2" stroke-miterlimit="10"/>
<path d="M169.005 107.559V168.054H137.886L106.764 167.923V107.559H169.005Z" stroke="#CCDDE2" stroke-width="2" stroke-miterlimit="10"/>
<path d="M16.7911 200.597C16.7911 200.597 -7.48411 176.338 6.16316 156.625C19.8105 136.912 51.6614 119.994 38.3908 87.8836C25.1203 55.7733 48.8549 39.1968 72.0381 40.7883C95.2212 42.3799 157.695 56.7261 173.87 33.5211C190.045 10.3161 257.716 37.7772 246.439 119.576C235.161 201.375 173.87 200.597 173.87 200.597H16.7911Z" stroke="#CCDDE2" stroke-width="2" stroke-miterlimit="10"/>
<path d="M183.819 61.4211V61.3966C183.604 60.8506 178.291 47.9868 162.026 40.1517C161.867 40.0725 161.72 39.9906 161.562 39.9224C153.611 35.8842 144.769 33.9205 135.856 34.2139H135.752C133.592 34.2937 131.439 34.5189 129.309 34.8883H129.288C128.217 35.0575 127.172 35.2732 126.126 35.5243C125.933 35.5699 125.73 35.5576 125.544 35.4886C125.357 35.4198 125.195 35.2972 125.078 35.1367L120.836 29.2099L120.519 28.7676C120.49 28.7253 120.467 28.6794 120.451 28.6311C120.221 27.9377 120.587 25.7755 120.587 25.2186C120.587 23.0564 120.199 19.259 118.72 16.3461C118.813 16.1877 119.471 14.9238 118.971 12.6852C118.949 12.5814 118.925 12.4668 118.892 12.3548C118.766 11.852 118.598 11.3608 118.389 10.8861C118.346 10.7605 118.288 10.6377 118.231 10.5012C117.947 9.90029 117.624 9.31825 117.265 8.75942C117.175 8.60108 117.071 8.45366 116.97 8.29259C116.869 8.13152 116.754 7.97591 116.629 7.81484C116.41 7.49816 116.151 7.15691 115.878 6.81566C115.673 6.5645 115.455 6.31334 115.239 6.08675C115.106 5.93223 114.962 5.78809 114.808 5.65541C114.618 5.46131 114.416 5.27894 114.204 5.10941C114.043 4.95844 113.872 4.8173 113.694 4.68626C113.634 4.63439 113.569 4.5888 113.5 4.54976C113.328 4.4007 113.145 4.26366 112.954 4.14026C112.76 4.00376 112.566 3.86726 112.373 3.76625L112.271 3.698C112.089 3.58334 111.895 3.48233 111.701 3.37859C111.563 3.29232 111.419 3.2167 111.27 3.152C111.122 3.06191 110.964 2.99366 110.803 2.91449L110.497 2.77799C110.303 2.68517 110.109 2.606 109.905 2.52683C109.843 2.49271 109.778 2.46622 109.711 2.44766C109.469 2.34365 109.222 2.25247 108.971 2.17466C107.02 1.52137 104.988 1.13808 102.932 1.03625C101.207 0.932784 99.4757 1.05099 97.7807 1.38842C97.6087 1.42391 97.4503 1.45667 97.3029 1.50308C97.1555 1.54949 96.9371 1.58225 96.7569 1.63958C88.93 3.82358 85.1544 12.9336 86.4402 20.5093C83.4727 19.4965 80.2759 18.8713 77.1828 19.4747C68.1738 21.271 63.4536 33.556 60.7346 41.3147C50.1558 71.5822 64.3409 93.5914 65.6813 95.5707C63.1148 95.5044 60.5615 95.9605 58.1765 96.9111C50.3032 100.165 47.3139 108.058 47.778 117.113C47.778 117.113 47.4258 145.923 63.4646 192.628H50.0493C49.0646 192.624 48.1189 193.012 47.4203 193.706C46.7217 194.4 46.3275 195.343 46.3242 196.328C46.321 197.313 46.7092 198.259 47.4031 198.957C48.0971 199.656 49.04 200.05 50.0248 200.053L54.6221 200.089L54.6548 200.053H88.3512L86.9862 192.592L77.8298 142.076L109.017 158.626C110.318 159.245 111.465 160.144 112.377 161.259C113.29 162.374 113.944 163.677 114.294 165.074V165.109C114.418 165.572 114.502 166.044 114.546 166.521L117.822 200.064H157.134C160.442 180.01 163.14 161.618 163.765 151.47C164.023 147.861 165.704 144.501 168.439 142.131C179.301 132.6 191.051 117.495 192.962 104.233C194.87 90.9133 191.037 74.1811 183.819 61.4211ZM105.195 48.2161C105.195 48.2161 83.1424 70.6349 80.5489 61.9562C77.9554 53.2775 82.5363 47.5882 82.5363 47.5882C82.5363 47.5882 96.2082 40.4247 104.068 40.9925C105.501 41.0963 106.446 41.402 107.035 41.8334L107.854 43.6761C107.786 44.6207 107.229 45.6445 106.64 46.4744C106.203 47.0908 105.72 47.6731 105.195 48.2161Z" fill="white"/>
<path d="M107.757 85.7191C108.983 70.109 92.7422 61.9517 92.7422 61.9517L107.509 45.6782C106.258 48.198 111.331 52.353 116.343 52.7325C121.355 53.112 127.623 47.3298 128.95 42.6861C130.277 38.0424 129.458 35.4025 129.458 35.4025L135.961 34.75C173.777 35.8174 183.987 61.9517 183.987 61.9517C162.06 54.3951 158.052 73.3986 158.052 73.3986C161.942 79.4401 163.76 88.804 163.76 88.804C167.4 104.687 152.243 126.205 152.243 126.205C144.369 118.075 104.394 112.964 103.515 114.275C103.515 114.275 110.413 104.485 107.757 85.7191Z" fill="#2E2E2E"/>
<path d="M118.885 16.8707C117.815 14.2226 115.118 12.2762 113.152 11.1514C112.406 10.7146 111.631 10.3308 110.831 10.0021C110.537 15.1099 104.088 17.9982 100.79 19.1339C99.6411 19.5325 98.8795 19.7263 98.8795 19.7263C98.8795 19.7263 98.5382 19.3523 97.9458 18.749C97.1268 17.93 95.8519 16.666 94.375 15.3583C94.476 15.5986 96.0703 19.4315 96.1713 23.5483C96.1926 24.0643 96.1852 24.5811 96.1495 25.0962L90.5475 24.9925C91.0935 22.6502 89.087 21.0122 89.087 21.0122C87.8011 13.4364 91.5767 4.31547 99.4009 2.14239C99.5838 2.08506 99.7667 2.0523 99.9469 2.00589C100.98 1.75173 102.035 1.5953 103.097 1.53906H103.111C107.501 1.76838 112.789 3.26988 116.054 7.32939C118.238 10.0594 119.057 12.2434 119.262 13.8241C119.521 15.8142 118.885 16.8707 118.885 16.8707Z" fill="#80B2FF"/>
<path d="M63.6165 193.141H87.16L88.525 200.602L50.1904 200.563C50.1904 200.563 43.2425 196.769 50.2204 193.141H63.6165Z" fill="#80B2FF"/>
<path d="M86.5907 21.0115C85.3049 13.4358 89.0832 4.31486 96.9074 2.14178C97.0903 2.08445 97.2705 2.05169 97.4534 2.00528C97.6363 1.95887 97.7619 1.92611 97.9312 1.89062" stroke="black" stroke-width="2" stroke-miterlimit="10"/>
<path d="M97.4544 2.00535C101.582 0.913349 111.104 1.18635 116.04 7.32885C120.976 13.4713 118.882 16.8702 118.882 16.8702C117.108 12.4585 110.823 9.99333 110.823 9.99333C110.425 16.8729 98.8658 19.7203 98.8658 19.7203C98.8658 19.7203 96.8975 17.6046 94.3613 15.3523C94.4623 15.5926 96.0567 19.4255 96.1577 23.5423C96.1776 24.0583 96.1702 24.5751 96.1358 25.0902" stroke="black" stroke-width="2" stroke-miterlimit="10"/>
<path d="M149.843 61.9531C158.094 71.3443 164.61 83.34 164.34 96.1491C164.067 109.87 155.041 120.763 148.705 132.256" stroke="black" stroke-width="2" stroke-miterlimit="10"/>
<path d="M148.704 124.262C148.704 124.262 143.847 136.992 164.043 149.43" stroke="black" stroke-width="2" stroke-miterlimit="10"/>
<path d="M117.406 14.7227C120.136 17.5673 120.751 22.9918 120.751 25.7437C120.751 26.347 120.33 28.8149 120.682 29.2927L125.239 35.6563C125.355 35.8182 125.517 35.9419 125.703 36.0109C125.89 36.08 126.093 36.0915 126.287 36.044C144.431 31.7278 165.037 38.0287 177.917 53.1802C188.905 66.0794 195.522 88.1242 193.112 104.777C191.201 118.04 179.462 133.145 168.591 142.678C167.237 143.849 166.127 145.276 165.324 146.876C164.522 148.477 164.043 150.22 163.915 152.006C163.278 162.154 160.595 180.546 157.283 200.6" stroke="black" stroke-width="2" stroke-miterlimit="10"/>
<path d="M129.998 35.4688C129.998 35.4688 128.846 50.3199 119.463 52.0262C110.08 53.7324 106.599 46.5253 106.599 46.5253C106.269 46.7983 105.95 47.0712 105.633 47.3688C100.209 52.2411 95.2782 57.6361 90.9129 63.4758C88.5345 66.6601 86.336 69.9749 84.3281 73.4048" stroke="black" stroke-width="2" stroke-miterlimit="10"/>
<path d="M88.5136 200.598L77.9922 142.613L109.169 159.163C110.693 159.889 112.003 160.998 112.971 162.381C113.94 163.764 114.535 165.374 114.697 167.055L117.973 200.598" stroke="black" stroke-width="2" stroke-miterlimit="10"/>
<path d="M54.7748 200.601L50.1802 200.562C49.2132 200.533 48.296 200.126 47.6241 199.43C46.952 198.735 46.578 197.804 46.5821 196.836C46.5859 195.869 46.9673 194.941 47.6449 194.251C48.3227 193.56 49.243 193.162 50.2102 193.139H63.6173C47.5922 146.437 47.9334 117.625 47.9334 117.625C47.4666 108.561 50.4587 100.666 58.3292 97.4229C64.8512 94.7257 72.6508 96.492 78.8862 99.1592C84.0732 101.379 88.9216 104.294 93.5899 107.447C95.8804 108.995 98.1327 110.601 100.377 112.214C100.975 112.643 102.768 114.436 103.516 114.286C103.516 114.286 110.068 103.251 108.081 88.3047" stroke="black" stroke-width="2" stroke-miterlimit="10"/>
<path d="M110.909 82.5156C108.608 88.2022 97.2758 103.635 91.207 105.868" stroke="black" stroke-width="2" stroke-miterlimit="10"/>
<path d="M89.3221 85.7195L84.329 73.399C81.7464 67.7234 79.6306 61.3543 80.2012 55.0316C80.4387 52.4381 81.0994 49.7982 82.5435 47.5923C83.7147 45.7823 85.593 44.7722 87.3893 43.7021C88.2984 43.1561 89.6743 42.3371 89.8108 41.1878C90.051 39.1293 87.0371 38.4004 85.5465 38.4359C83.3953 38.4687 81.7464 39.5279 79.5979 38.9137C78.6235 38.662 77.7434 38.1323 77.0647 37.3892C76.386 36.6461 75.9383 35.7218 75.7759 34.7286C75.5739 33.4564 75.7458 32.1596 75.9479 30.8902C76.2645 28.9191 76.7669 26.0717 78.8826 25.2418C78.9574 25.2012 79.0371 25.1709 79.1201 25.1517C79.1351 25.1468 79.1515 25.1468 79.1665 25.1517C79.2053 25.1318 79.2487 25.1231 79.2921 25.1272C80.1327 24.9653 80.9959 24.9579 81.8392 25.1053" stroke="black" stroke-width="2" stroke-miterlimit="10"/>
<path d="M65.9373 96.2186C65.9373 96.2186 49.7976 73.5596 60.8868 41.8152C63.6059 34.0701 68.3397 21.7851 77.3487 19.9779C80.8622 19.2845 84.5259 20.1936 87.8128 21.4575C88.812 21.8425 90.6547 22.7761 90.5428 24.0729C90.4909 24.4772 90.2821 24.8449 89.9613 25.0966" stroke="black" stroke-width="2" stroke-miterlimit="10"/>
<path d="M10.082 200.598H173.871" stroke="black" stroke-width="2" stroke-miterlimit="10"/>
<path d="M100.661 25.0898H79.4023C78.7163 25.0898 78.1602 25.6459 78.1602 26.332V36.8944C78.1602 37.5804 78.7163 38.1365 79.4023 38.1365H100.661C101.347 38.1365 101.903 37.5804 101.903 36.8944V26.332C101.903 25.6459 101.347 25.0898 100.661 25.0898Z" fill="#D7E8F0"/>
<path d="M100.661 25.0898H79.4023C78.7163 25.0898 78.1602 25.6459 78.1602 26.332V36.8944C78.1602 37.5804 78.7163 38.1365 79.4023 38.1365H100.661C101.347 38.1365 101.903 37.5804 101.903 36.8944V26.332C101.903 25.6459 101.347 25.0898 100.661 25.0898Z" stroke="black" stroke-width="2" stroke-miterlimit="10"/>
<path d="M120.572 27.6055C120.572 27.6055 120.55 27.9931 120.449 28.6183C120.119 30.7559 118.934 35.6808 114.91 37.5809C111.063 39.3909 107.119 38.5255 105.309 37.9576L107.037 41.8342L107.856 43.677L107.891 43.7452C108.034 44.0685 108.073 44.428 108.004 44.7744C107.935 45.1209 107.76 45.4376 107.504 45.6808L106.641 46.4752L106.594 46.5216" stroke="black" stroke-width="2" stroke-miterlimit="10"/>
<path d="M112.546 24.2877C115.331 24.2877 117.589 22.0303 117.589 19.2454C117.589 16.4608 115.331 14.2031 112.546 14.2031C109.761 14.2031 107.504 16.4608 107.504 19.2454C107.504 22.0303 109.761 24.2877 112.546 24.2877Z" stroke="black" stroke-width="2" stroke-miterlimit="10"/>
<path d="M95.3496 25.0945C95.5355 24.5367 95.8123 24.0136 96.1686 23.5463C96.6444 22.9252 97.2584 22.4231 97.9619 22.08C98.6655 21.7371 99.4391 21.5627 100.222 21.5706C101.005 21.5782 101.775 21.7682 102.471 22.125C103.168 22.4821 103.771 22.9962 104.235 23.6268C104.698 24.2574 105.009 24.9874 105.141 25.7589C105.274 26.5302 105.225 27.3219 104.998 28.071C104.772 28.8201 104.374 29.5064 103.837 30.0753C103.299 30.6443 102.637 31.0803 101.902 31.3489" stroke="black" stroke-width="2" stroke-miterlimit="10"/>
<path d="M104.414 23.9286C104.414 23.9286 105.086 21.3515 108.08 21.5809" stroke="black" stroke-width="2" stroke-miterlimit="10"/>
<path d="M111.787 23.0552C112.633 23.0552 113.319 22.3697 113.319 21.5237C113.319 20.678 112.633 19.9922 111.787 19.9922C110.942 19.9922 110.256 20.678 110.256 21.5237C110.256 22.3697 110.942 23.0552 111.787 23.0552Z" fill="black"/>
<path d="M106.285 33.047C106.285 33.047 109.015 34.18 110.82 32.9023" stroke="black" stroke-width="2" stroke-miterlimit="10"/>
<path d="M97.9238 30.4608C98.6175 30.4608 99.1796 29.8987 99.1796 29.205C99.1796 28.5116 98.6175 27.9492 97.9238 27.9492C97.2304 27.9492 96.668 28.5116 96.668 29.205C96.668 29.8987 97.2304 30.4608 97.9238 30.4608Z" fill="black"/>
<path d="M114.698 167.055C114.351 165.261 111.883 150.312 112.546 142.613" stroke="black" stroke-width="2" stroke-miterlimit="10"/>
<path d="M212.731 99.6974C220.724 99.6974 227.203 93.2182 227.203 85.2256C227.203 77.233 220.724 70.7539 212.731 70.7539C204.739 70.7539 198.26 77.233 198.26 85.2256C198.26 93.2182 204.739 99.6974 212.731 99.6974Z" fill="#80B2FF"/>
<path d="M207.239 81.2568C207.361 80.7584 207.558 80.2814 207.823 79.8427C208.275 79.0778 208.989 78.5034 209.834 78.2274C210.678 77.9516 211.594 77.9929 212.41 78.3439C212.943 78.5746 213.414 78.9254 213.788 79.3693C214.162 79.8132 214.427 80.3379 214.564 80.9019C215.269 80.5023 216.084 80.342 216.888 80.4452C217.691 80.5487 218.44 80.9101 219.021 81.475C219.601 82.0401 219.983 82.7783 220.108 83.5787C220.234 84.3792 220.096 85.1987 219.715 85.9142C218.915 87.4185 217.327 88.5869 215.839 89.3622C215.059 89.7668 214.241 90.0906 213.395 90.3286C212.967 90.4515 210.537 91.2077 210.242 90.8746C208.299 88.7016 206.445 84.4373 207.239 81.2568Z" fill="white"/>
<path d="M57.2782 174.764C72.3135 174.764 84.5018 162.575 84.5018 147.54C84.5018 132.505 72.3135 120.316 57.2782 120.316C42.243 120.316 30.0547 132.505 30.0547 147.54C30.0547 162.575 42.243 174.764 57.2782 174.764Z" fill="#80B2FF"/>
<path d="M46.9411 140.068C47.1666 139.132 47.5348 138.236 48.0331 137.412C49.854 134.442 53.4521 133.203 56.6626 134.592C57.6642 135.026 58.5515 135.687 59.2544 136.522C59.9574 137.357 60.457 138.344 60.7139 139.405C62.0393 138.651 63.5739 138.348 65.0865 138.541C66.5992 138.735 68.0082 139.414 69.1013 140.477C70.1944 141.54 70.9126 142.93 71.1477 144.437C71.383 145.943 71.1226 147.486 70.4054 148.832C68.9012 151.666 65.9146 153.863 63.1108 155.321C61.6448 156.081 60.1054 156.69 58.5163 157.139C57.6973 157.369 53.1382 158.791 52.584 158.168C48.934 154.076 45.445 146.055 46.9411 140.068Z" fill="white"/>
<path d="M143.86 26.048C148.641 26.048 152.517 22.1723 152.517 17.3912C152.517 12.6102 148.641 8.73438 143.86 8.73438C139.079 8.73438 135.203 12.6102 135.203 17.3912C135.203 22.1723 139.079 26.048 143.86 26.048Z" fill="#80B2FF"/>
<path d="M140.572 15.0166C140.644 14.7179 140.761 14.4323 140.921 14.1703C141.191 13.716 141.616 13.375 142.118 13.2104C142.62 13.0458 143.165 13.0684 143.651 13.2748C143.97 13.4121 144.252 13.6221 144.476 13.8872C144.699 14.1525 144.858 14.4662 144.94 14.8036C145.362 14.5626 145.851 14.4656 146.333 14.5271C146.815 14.5885 147.264 14.8053 147.612 15.1443C147.96 15.4834 148.188 15.9265 148.262 16.4067C148.336 16.8872 148.252 17.3783 148.022 17.8066C147.544 18.7075 146.594 19.4064 145.701 19.8705C145.235 20.1124 144.746 20.3062 144.241 20.4493C143.984 20.523 142.529 20.9734 142.354 20.7769C141.205 19.4692 140.097 16.9194 140.572 15.0166Z" fill="white"/>
</g>
</svg>
