<svg width="263" height="203" viewBox="0 0 263 203" fill="none" xmlns="http://www.w3.org/2000/svg">
<g opacity="0.7">
<path d="M87.209 58.6478C87.209 58.6478 108.131 23.8125 149.953 37.4452C191.708 51.0802 181.842 102.84 181.815 102.976C181.997 102.028 189.231 101.124 189.997 101.013C211.335 97.859 227.207 117.706 228.781 137.266C230.735 161.527 211.97 178.71 190.598 186.108" stroke="#CCDDE2" stroke-width="2" stroke-miterlimit="10"/>
<path d="M187.844 197.488C187.212 199.712 186.753 200.983 186.753 200.983H186.424C186.945 199.849 187.418 198.684 187.844 197.488Z" fill="#353642"/>
<path d="M129.625 109.734C129.625 109.734 128.873 114.302 128.094 118.437C125.868 118.461 123.642 118.479 121.441 118.497C120.328 112.234 121.537 107.328 122.972 104.059C124.782 108.185 127.515 109.44 129.625 109.734Z" fill="#80B2FF"/>
<path d="M166.206 126.213C161.681 123.776 156.857 121.939 151.857 120.749L150.219 120.466C150.219 120.466 148.999 117.693 148.992 117.684C148.42 116.231 147.472 114.301 147.178 112.769C146.82 110.961 146.733 109.109 146.92 107.274C147.24 104.55 148.509 98.7873 150.802 96.971C152.714 95.4664 153.502 95.7825 154.585 93.4299C155.364 91.7516 155.681 88.9316 154.167 87.6941C152.489 86.3364 151.772 87.0263 149.764 87.2356C142.135 87.9923 137.774 82.5014 134.97 76.1557C134.525 75.1252 134.062 74.0368 133.334 73.1599C132.499 72.1494 131.344 71.9223 130.398 71.1055C129.995 70.7538 129.719 70.1796 129.913 69.681C130.027 69.4426 130.193 69.2327 130.398 69.0667C132.186 67.4198 134.333 66.2119 136.668 65.5389C140.362 64.4707 144.266 64.349 148.019 65.185C151.937 66.4826 155.458 68.9398 157.828 72.6947C161.098 77.8829 161.886 83.2648 160.054 88.6289C158.178 94.1221 156.083 100.575 159.609 105.861C164.303 112.883 167.132 117.822 166.206 126.213Z" fill="#80B2FF"/>
<path d="M128.102 118.438C125.876 118.462 123.651 118.48 121.449 118.498C104.676 118.584 88.6217 118.351 71.7949 121.369" stroke="black" stroke-width="2" stroke-miterlimit="10"/>
<path d="M149.955 120.301C150.594 120.441 151.226 120.588 151.858 120.746C154.322 121.342 156.748 122.085 159.123 122.972C161.56 123.878 163.927 124.96 166.208 126.208C166.21 126.206 166.213 126.205 166.216 126.205C166.22 126.205 166.223 126.206 166.225 126.208C169.813 128.152 173.129 130.56 176.088 133.37C178.561 135.781 180.7 138.512 182.447 141.492C182.462 141.504 182.473 141.519 182.48 141.537C183.897 143.915 185.127 146.4 186.159 148.969C189.24 156.556 190.987 165.292 191.254 173.986C191.497 182.197 190.415 190.372 187.855 197.49C187.43 198.686 186.956 199.851 186.435 200.985C186.402 201.071 186.357 201.149 186.324 201.236" stroke="black" stroke-width="2" stroke-miterlimit="10"/>
<path d="M159.625 201.126C159.625 201.126 159.625 201.108 159.625 201.099C159.639 201.062 159.651 201.023 159.659 200.984" stroke="black" stroke-width="2" stroke-miterlimit="10"/>
<path d="M153.75 151.078C153.75 151.078 158.593 153.431 161.776 160.776C163.376 164.468 164.563 169.434 164.494 176C164.494 176 164.494 176 164.494 176.018C164.458 180.204 163.906 185.039 162.624 190.61V190.641" stroke="black" stroke-width="2" stroke-miterlimit="10"/>
<path d="M62.0918 57.8288C62.9465 54.5947 64.3176 51.2605 65.3481 49.8583C66.9684 47.6771 69.0829 45.5982 71.8028 45.7852C73.55 45.8987 75.2661 46.8647 75.344 48.7788C75.4174 50.8554 73.2273 53.1613 72.5239 55.1133C71.8562 56.9963 71.5513 59.1887 71.9029 61.1696C72.2546 63.1505 74.033 64.6974 75.9516 65.1226C76.6794 65.3142 77.4533 65.2094 78.1039 64.831C79.9825 63.6424 79.5885 60.4774 79.5128 58.61C79.4238 56.5156 79.426 54.1473 81.2133 52.714C82.5265 51.6612 84.5186 52.3601 85.4868 53.5175C87.1694 55.5206 87.2518 58.5365 87.3364 61.0027C87.5879 68.4323 86.268 75.5547 81.9411 81.8091C79.7154 85.0387 77.4228 87.9366 76.5214 91.8985C73.7169 104.211 73.4053 112.747 71.7939 125.251" stroke="black" stroke-width="2" stroke-miterlimit="10"/>
<path d="M105.769 201.321C97.1689 176.877 101.242 150.173 101.242 150.173L55.0442 151.637C53.0773 151.7 51.1197 151.34 49.3037 150.581C47.4877 149.823 45.8554 148.685 44.5163 147.243C43.1775 145.8 42.1633 144.088 41.542 142.221C40.9208 140.353 40.707 138.374 40.9151 136.418L52.2308 95.152L54.6792 86.3491C55.46 83.5791 55.281 80.6267 54.1717 77.9713L53.0187 75.2203C53.0187 75.2203 50.9288 70.958 55.614 71.3586C58.1335 71.5812 60.6331 72.6518 62.7475 73.9961C64.408 75.0534 66.9409 77.0988 66.1574 79.3669C65.2315 82.0378 61.6013 82.7055 59.469 81.2031" stroke="black" stroke-width="2" stroke-miterlimit="10"/>
<path d="M54.0551 71.3356C54.0551 71.3356 50.0977 62.4325 60.9549 64.7362C71.8122 67.0399 74.4119 78.9032 66.1254 77.5677" stroke="black" stroke-width="2" stroke-miterlimit="10"/>
<path d="M57.6352 64.2271C57.6352 64.2271 54.163 60.0093 59.3534 57.995C64.5439 55.9807 83.3917 65.4936 71.3013 74.864" stroke="black" stroke-width="2" stroke-miterlimit="10"/>
<path d="M132.74 109.529C131.732 109.806 130.679 109.874 129.644 109.73C127.525 109.436 124.792 108.172 122.991 104.054C122.617 103.212 122.313 102.341 122.083 101.45C121.166 98.0421 120.765 93.3012 121.302 86.6907C121.406 85.4198 121.562 84.1288 121.778 82.8401C122.136 80.5983 122.712 78.3968 123.499 76.2675C123.499 76.2675 123.499 76.2497 123.516 76.2408C125.48 71.0503 128.932 66.67 134.736 64.9851C139.09 63.7293 143.718 63.7961 148.033 65.1765C151.951 66.4741 155.472 68.9314 157.842 72.6862C161.112 77.8745 161.9 83.2563 160.068 88.6204C158.192 94.1136 156.097 100.566 159.623 105.852C164.31 112.886 167.139 117.825 166.231 126.216" stroke="black" stroke-width="2" stroke-miterlimit="10"/>
<path d="M119.668 118.756C117.963 110.581 120.265 104.62 122.072 101.453" stroke="black" stroke-width="2" stroke-miterlimit="10"/>
<path d="M121.779 82.8313C121.779 82.8313 125.512 78.9295 129.837 85.0927" stroke="black" stroke-width="2" stroke-miterlimit="10"/>
<path d="M131.282 102.479C132.86 103.5 134.997 102.866 136.159 101.292C137.421 99.585 137.926 97.3059 138.2 95.2381C138.217 95.089 138.237 94.9421 138.251 94.793C136.326 97.8178 132.589 98.5434 129.299 98.8594C129.423 99.8488 129.791 100.792 130.369 101.604C130.617 101.949 130.926 102.246 131.282 102.479Z" stroke="black" stroke-width="2" stroke-linecap="round" stroke-linejoin="round"/>
<path d="M148.424 116.1L148.414 116.09" stroke="black" stroke-width="2" stroke-miterlimit="10"/>
<path d="M133.738 81.6323C133.738 81.6323 135.007 79.578 139.343 81.0915C143.679 82.605 143.73 85.0778 143.73 85.0778" stroke="black" stroke-width="2" stroke-miterlimit="10"/>
<path d="M123.885 86.7431C123.885 86.7431 125.888 85.7303 127.457 86.7431" stroke="black" stroke-width="2" stroke-miterlimit="10"/>
<path d="M134.68 87.6728C134.68 87.6728 136.683 86.66 138.241 87.6728" stroke="black" stroke-width="2" stroke-miterlimit="10"/>
<path d="M129.623 109.733C129.623 109.733 128.871 114.3 128.092 118.436C127.978 119.024 127.869 119.602 127.771 120.174C127.262 122.959 126.854 125.434 126.837 126.184C126.708 132.416 132.599 136.011 138.29 135.95C146.276 135.864 150.946 128.434 150.194 120.993C149.702 119.636 149.199 118.278 148.707 116.92C148.075 115.18 147.254 113.486 146.897 111.652C146.583 109.845 146.548 108 146.795 106.183C147.116 103.468 147.643 99.419 149.936 97.6028C151.848 96.0982 153.844 95.1099 154.935 92.7573C155.714 91.0791 155.678 88.9179 154.165 87.6804C152.486 86.3226 149.831 86.4874 147.823 86.6854C134.874 88.0098 132.719 74.9023 129.216 73.0616C126.345 71.5458 124.19 74.9468 123.516 76.2088L123.489 76.2622C123.488 76.2749 123.482 76.2867 123.474 76.2956C123.351 76.5182 123.291 76.6673 123.291 76.6673" stroke="black" stroke-width="2" stroke-miterlimit="10"/>
<path d="M129.292 88.25C129.292 88.25 127.938 92.6793 128.043 93.3425C128.147 94.0058 129.726 93.5429 129.726 93.5429" stroke="black" stroke-width="2" stroke-miterlimit="10"/>
<path d="M139.897 92.9253C141.97 90.8557 141.932 87.4563 139.812 85.3327C137.692 83.2091 134.293 83.1653 132.22 85.235C130.147 87.3045 130.185 90.7037 132.304 92.8273C134.424 94.9509 137.823 94.9948 139.897 92.9253Z" stroke="black" stroke-width="2" stroke-miterlimit="10"/>
<path d="M126.367 91.2805C128.44 89.211 128.403 85.8118 126.283 83.6882C124.163 81.5646 120.764 81.5208 118.691 83.5903C116.617 85.6598 116.655 89.059 118.775 91.1826C120.895 93.3062 124.294 93.35 126.367 91.2805Z" stroke="black" stroke-width="2" stroke-miterlimit="10"/>
<path d="M122.412 83.3096C123.002 83.307 123.587 83.428 124.129 83.6653C124.67 83.9026 125.155 84.2507 125.554 84.6872C125.952 85.1234 126.255 85.6387 126.442 86.1991C126.629 86.7596 126.697 87.3532 126.64 87.9414C126.547 88.9306 126.086 89.8489 125.35 90.5162C124.614 91.1833 123.654 91.551 122.661 91.5472C122.07 91.5499 121.485 91.4285 120.944 91.1913C120.403 90.9542 119.917 90.6061 119.518 90.1697C119.12 89.7332 118.818 89.2181 118.63 88.6577C118.443 88.097 118.376 87.5036 118.432 86.9154C118.526 85.9262 118.986 85.0079 119.722 84.3406C120.459 83.6735 121.418 83.3056 122.412 83.3096ZM122.412 82.6953C121.267 82.6924 120.162 83.1176 119.314 83.887C118.466 84.6567 117.936 85.7152 117.829 86.8553C117.714 88.1135 118.093 89.367 118.886 90.3506C119.679 91.3344 120.824 91.971 122.078 92.1259C122.27 92.1488 122.463 92.1606 122.656 92.1615C123.803 92.1659 124.909 91.7417 125.758 90.9718C126.608 90.2021 127.138 89.1427 127.246 88.0015C127.36 86.7433 126.981 85.4898 126.188 84.506C125.395 83.5224 124.251 82.8859 122.997 82.7309C122.805 82.708 122.612 82.6962 122.418 82.6953H122.412Z" fill="white"/>
<path d="M130.713 88.4231L127.873 88.0781" stroke="black" stroke-width="2" stroke-miterlimit="10"/>
<path d="M139.462 92.4933C141.3 90.6581 141.267 87.6444 139.387 85.7619C137.508 83.8791 134.494 83.8406 132.656 85.6758C130.818 87.5107 130.851 90.5246 132.73 92.4071C134.61 94.2897 137.624 94.3284 139.462 92.4933Z" fill="#80B2FF"/>
<path d="M125.932 90.8406C127.771 89.0048 127.738 85.9896 125.858 84.1061C123.978 82.2227 120.963 82.1842 119.123 84.02C117.284 85.856 117.318 88.8711 119.198 90.7545C121.078 92.6381 124.093 92.6767 125.932 90.8406Z" fill="#80B2FF"/>
<path d="M79.1292 13.498C72.6745 13.8274 67.3327 19.0001 66.8186 25.437C66.6652 27.2329 66.8876 29.0411 67.4716 30.7465C68.0556 32.4517 68.9884 34.0166 70.2106 35.3416C71.1118 36.333 72.1633 37.1765 73.3267 37.8411C73.6303 38.0163 73.9169 38.2188 74.1836 38.4465C75.9255 39.3259 77.849 39.7856 79.8003 39.7887C81.7518 39.7918 83.6767 39.3382 85.4215 38.4643C85.6752 38.2286 85.957 38.0254 86.2606 37.8589C87.4716 37.1665 88.566 36.2876 89.5035 35.2548C89.5273 35.2212 89.5534 35.1891 89.5814 35.1591C91.2821 33.234 92.3765 30.8498 92.7273 28.3053C93.0783 25.761 92.6701 23.1696 91.5541 20.8561C90.4381 18.5427 88.6637 16.6103 86.4538 15.3013C84.2438 13.9923 81.6966 13.3649 79.1315 13.498H79.1292ZM87.2087 33.8882C87.184 33.9067 87.1638 33.9302 87.1486 33.9572C86.4222 34.7516 85.5757 35.4275 84.6402 35.9604C84.4074 36.0879 84.1919 36.245 83.9992 36.4278C82.6539 37.1011 81.17 37.4516 79.6656 37.4516C78.1612 37.4516 76.6773 37.1011 75.3321 36.4278C75.1238 36.2499 74.9003 36.0906 74.6644 35.9515C72.8666 34.9174 71.4328 33.3527 70.5594 31.4714C69.6862 29.5905 69.4162 27.4853 69.7868 25.4448C70.1572 23.4042 71.1501 21.5283 72.6289 20.0742C74.1077 18.6204 76 17.6593 78.0466 17.3234C80.093 16.9875 82.1934 17.2929 84.0595 18.1979C85.9256 19.1029 87.4658 20.563 88.4692 22.3779C89.4726 24.193 89.8899 26.2739 89.6638 28.3356C89.4378 30.3971 88.5794 32.3382 87.2065 33.8926L87.2087 33.8882Z" fill="#80B2FF"/>
<path d="M85.4179 38.4648C84.9055 38.9295 84.4966 39.4969 84.2175 40.1301C83.9384 40.7631 83.7953 41.4475 83.7975 42.1395V42.736C83.7975 44.8193 82.2884 46.6868 80.2363 46.896C79.6816 46.9527 79.1214 46.8929 78.5912 46.7201C78.0613 46.5472 77.5734 46.2654 77.1587 45.8926C76.7443 45.5198 76.4124 45.0644 76.1847 44.5556C75.9568 44.0468 75.838 43.4959 75.836 42.9386V42.1395C75.8349 41.4438 75.688 40.756 75.4051 40.1205C75.1222 39.4849 74.7095 38.9155 74.1934 38.4492C75.9352 39.3259 77.8581 39.784 79.8083 39.7867C81.7585 39.7893 83.6824 39.3366 85.4268 38.4648H85.4179Z" fill="#353642"/>
<path d="M85.4179 38.4648C84.9055 38.9295 84.4966 39.4969 84.2175 40.1301C83.9384 40.7631 83.7953 41.4475 83.7975 42.1395V42.736C83.7975 44.8193 82.2884 46.6868 80.2363 46.896C79.6816 46.9527 79.1214 46.8929 78.5912 46.7201C78.0613 46.5472 77.5734 46.2654 77.1587 45.8926C76.7443 45.5198 76.4124 45.0644 76.1847 44.5556C75.9568 44.0468 75.838 43.4959 75.836 42.9386V42.1395C75.8349 41.4438 75.688 40.756 75.4051 40.1205C75.1222 39.4849 74.7095 38.9155 74.1934 38.4492C75.9352 39.3259 77.8581 39.784 79.8083 39.7867C81.7585 39.7893 83.6824 39.3366 85.4268 38.4648H85.4179Z" stroke="black" stroke-width="2" stroke-miterlimit="10"/>
<path d="M92.8503 26.5225C92.8569 29.7071 91.6924 32.7831 89.5784 35.1651C89.5519 35.1938 89.5274 35.2243 89.5049 35.2564C88.5659 36.2909 87.469 37.1705 86.2553 37.8627C85.9537 38.0312 85.6731 38.2344 85.4185 38.4681C83.6741 39.3402 81.7502 39.7927 79.8 39.79C77.8498 39.7874 75.9271 39.3293 74.185 38.4526C73.9191 38.2213 73.6313 38.0163 73.3259 37.8405C71.176 36.6045 69.4226 34.7821 68.2705 32.5863C67.1183 30.3904 66.6152 27.912 66.82 25.4408C67.0911 22.0821 68.652 18.9591 71.1754 16.7262C73.6989 14.4934 76.9888 13.3244 80.3553 13.4644C83.7218 13.6042 86.9035 15.0422 89.233 17.4765C91.5624 19.9111 92.8587 23.1529 92.8503 26.5225Z" stroke="black" stroke-width="2" stroke-miterlimit="10"/>
<path d="M76.1294 39.7893L73.1424 29.8891L72.3945 27.0847C72.3945 27.0003 72.4224 26.9184 72.4735 26.8514C72.525 26.7846 72.5969 26.7366 72.6783 26.7147C72.7598 26.6929 72.8461 26.6985 72.924 26.7308C73.0019 26.763 73.0669 26.8203 73.109 26.8933C73.7767 28.0729 74.8317 29.553 75.8823 29.5152C77.6251 29.4529 76.1939 24.1622 74.7694 24.7165C73.3449 25.2707 76.0759 28.7673 78.8893 29.2036C81.7027 29.6398 80.9325 24.9101 78.8893 24.7231C76.8461 24.5362 78.255 28.5203 81.9275 29.2036C85.6 29.8869 84.9144 25.8427 83.9195 25.0347C82.9246 24.2268 83.234 28.892 85.5399 29.6398C86.2699 29.878 86.8508 29.3683 87.1357 28.734C87.3005 28.3645 87.2159 26.4948 86.8776 27.0713C86.1876 28.2532 86.0518 29.7289 85.7135 31.0332C84.9946 33.7931 83.895 36.4351 83.2651 39.2195" stroke="black" stroke-miterlimit="10"/>
<path d="M56.498 201.317C58.0739 200.578 203.398 201.317 203.398 201.317" stroke="black" stroke-width="2" stroke-miterlimit="10"/>
<path d="M79.8029 8.84135L79.6738 1" stroke="black" stroke-width="2" stroke-miterlimit="10"/>
<path d="M64.8486 16.1366L59.4199 10.4766" stroke="black" stroke-width="2" stroke-miterlimit="10"/>
<path d="M94.8145 16.4836L100.363 10.9414" stroke="black" stroke-width="2" stroke-miterlimit="10"/>
<path d="M177.998 190.622L178.187 190.64C178.084 190.657 177.964 190.675 177.86 190.7H177.699L162.629 190.622H160.926L135.606 190.493C135.51 190.493 135.414 190.493 135.319 190.493C135.296 190.497 135.273 190.497 135.25 190.493C135.25 190.493 135.25 190.493 135.234 190.493C135.075 190.494 134.915 190.483 134.758 190.459C136.112 190.306 137.395 189.773 138.459 188.921C138.626 188.781 138.798 188.648 138.953 188.496L138.971 188.478C139.007 188.449 139.042 188.417 139.074 188.383C140.36 187.11 141.131 185.406 141.237 183.6C141.237 183.513 141.237 183.417 141.237 183.33V183.192C141.229 181.506 140.641 179.873 139.571 178.568C138.502 177.264 137.016 176.368 135.363 176.03C135.361 176.028 135.358 176.026 135.354 176.026C135.351 176.026 135.348 176.028 135.345 176.03C135.181 175.987 134.992 175.961 134.818 175.934L135.19 175.91C135.25 175.905 135.311 175.905 135.372 175.91C135.475 175.91 135.57 175.91 135.666 175.91L157.058 176.021L160.995 176.039L164.49 176.056H166.117H166.315C166.341 176.056 166.357 176.056 166.384 176.056C168.188 176.238 169.861 177.083 171.078 178.426C172.296 179.77 172.972 181.517 172.976 183.33C172.976 183.675 172.95 184.02 172.898 184.361C172.646 186.055 171.808 187.608 170.53 188.749C169.252 189.89 167.615 190.547 165.903 190.606C165.825 190.606 165.747 190.606 165.68 190.606H178.389C178.205 190.613 178.084 190.613 177.998 190.622Z" fill="white"/>
<path d="M143.965 199.467C144.446 199.95 145.017 200.334 145.647 200.595C146.277 200.856 146.952 200.99 147.633 200.989H135.218C132.841 200.989 131.55 200.411 130.608 199.467C129.636 198.493 129.088 197.175 129.086 195.799C129.086 192.954 131.421 190.617 135.218 190.617H147.633C146.607 190.616 145.604 190.919 144.75 191.488C143.897 192.057 143.231 192.867 142.838 193.815C142.445 194.762 142.343 195.806 142.543 196.812C142.744 197.818 143.239 198.742 143.965 199.467Z" fill="#D7E8F0"/>
<path d="M178.05 190.637C178.06 190.634 178.07 190.635 178.079 190.639C178.07 190.638 178.06 190.638 178.05 190.637C178.016 190.635 177.983 190.629 177.95 190.621H165.904C167.471 190.537 168.968 189.951 170.176 188.949C170.357 188.801 170.531 188.642 170.696 188.475C170.834 188.341 170.964 188.199 171.086 188.05C171.179 187.947 171.265 187.837 171.344 187.723C171.395 187.66 171.44 187.6 171.482 187.54C171.564 187.43 171.639 187.314 171.705 187.193C171.806 187.052 171.896 186.903 171.974 186.748C172.057 186.6 172.131 186.446 172.197 186.289C172.23 186.22 172.257 186.142 172.301 186.067C172.361 185.911 172.412 185.755 172.464 185.6C172.535 185.377 172.604 185.141 172.655 184.91C172.686 184.784 172.709 184.657 172.724 184.529C172.734 184.498 172.74 184.466 172.742 184.433C172.752 184.408 172.758 184.382 172.76 184.355C172.76 184.268 172.784 184.19 172.793 184.104V184.052C172.826 183.811 172.84 183.568 172.838 183.325C172.84 183.212 172.835 183.1 172.82 182.989V182.911C172.82 182.8 172.811 182.69 172.793 182.581C172.734 181.981 172.597 181.39 172.386 180.825C172.269 180.486 172.12 180.159 171.941 179.848C171.777 179.535 171.587 179.237 171.371 178.958C171.315 178.876 171.254 178.798 171.188 178.724C171.162 178.697 171.137 178.662 171.101 178.628C170.986 178.477 170.859 178.335 170.721 178.203C170.618 178.101 170.498 177.996 170.394 177.885C170.289 177.774 170.115 177.642 169.969 177.538C169.822 177.433 169.726 177.358 169.597 177.271C169.405 177.131 169.203 177.007 168.991 176.899C168.795 176.784 168.589 176.685 168.377 176.603C168.131 176.498 167.88 176.406 167.625 176.327C167.538 176.294 167.447 176.271 167.355 176.258C167.117 176.19 166.875 176.138 166.63 176.102C166.507 176.075 166.387 176.066 166.258 176.051H166.24C166.224 176.055 166.206 176.055 166.189 176.051H166.24H166.258C166.387 176.066 166.507 176.075 166.63 176.102C166.875 176.138 167.117 176.19 167.355 176.258C167.447 176.271 167.538 176.294 167.625 176.327C167.88 176.406 168.131 176.498 168.377 176.603C168.589 176.685 168.795 176.784 168.991 176.899C169.203 177.007 169.405 177.131 169.597 177.271C169.726 177.358 169.822 177.433 169.969 177.538C170.115 177.642 170.289 177.774 170.394 177.885C170.498 177.996 170.618 178.101 170.721 178.203C170.859 178.335 170.986 178.477 171.101 178.628C171.137 178.662 171.162 178.697 171.188 178.724C171.254 178.798 171.315 178.876 171.371 178.958C171.587 179.237 171.777 179.535 171.941 179.848C172.12 180.159 172.269 180.486 172.386 180.825C172.597 181.39 172.734 181.981 172.793 182.581C172.811 182.69 172.82 182.8 172.82 182.911V182.989C172.835 183.1 172.84 183.212 172.838 183.325C172.84 183.568 172.826 183.811 172.793 184.052V184.104C172.784 184.19 172.76 184.268 172.76 184.355C172.758 184.382 172.752 184.408 172.742 184.433C172.74 184.466 172.734 184.498 172.724 184.529C172.709 184.657 172.686 184.784 172.655 184.91C172.604 185.141 172.535 185.377 172.464 185.6C172.412 185.755 172.361 185.911 172.301 186.067C172.257 186.142 172.23 186.22 172.197 186.289C172.131 186.446 172.057 186.6 171.974 186.748C171.896 186.903 171.806 187.052 171.705 187.193C171.639 187.314 171.564 187.43 171.482 187.54C171.44 187.6 171.395 187.66 171.344 187.723C171.265 187.837 171.179 187.947 171.086 188.05C170.964 188.199 170.834 188.341 170.696 188.475C170.531 188.642 170.357 188.801 170.176 188.949C168.968 189.951 167.471 190.537 165.904 190.621H177.95C177.979 190.616 178.008 190.616 178.037 190.621H177.95C177.983 190.629 178.016 190.635 178.05 190.637Z" fill="#3FBDF1"/>
<path d="M185.004 183.434C185.004 183.572 185.004 183.719 184.987 183.857C184.969 184.09 184.944 184.315 184.909 184.54C184.891 184.66 184.866 184.783 184.84 184.903C184.789 185.125 184.728 185.37 184.659 185.595C184.582 185.843 184.489 186.086 184.381 186.323C184.347 186.416 184.304 186.505 184.252 186.59C184.252 186.617 184.234 186.634 184.217 186.659C184.165 186.772 184.105 186.881 184.045 186.988C183.949 187.162 183.845 187.333 183.734 187.498C183.602 187.698 183.455 187.879 183.308 188.061C183.159 188.242 183 188.415 182.832 188.58C182.656 188.759 182.469 188.927 182.271 189.083L182.049 189.263C181.796 189.454 181.529 189.628 181.252 189.782C181.123 189.851 180.985 189.922 180.847 189.991C180.834 190 180.818 190.006 180.802 190.006C180.646 190.084 180.491 190.147 180.335 190.207C180.179 190.267 180.023 190.327 179.861 190.378C179.696 190.423 179.531 190.474 179.367 190.509L179.231 190.534C179.102 190.563 178.973 190.587 178.841 190.607C178.609 190.647 178.374 190.675 178.138 190.69C177.995 190.705 177.85 190.711 177.706 190.707C177.706 190.707 177.679 190.707 177.671 190.707L162.624 190.634L159.079 190.616L135.446 190.496C135.359 190.494 135.272 190.488 135.185 190.478C134.987 190.478 134.796 190.46 134.598 190.445C136.31 190.241 137.896 189.442 139.08 188.189C140.264 186.935 140.971 185.306 141.077 183.585C141.077 183.498 141.077 183.403 141.077 183.307V183.213C141.079 181.518 140.494 179.873 139.422 178.56C138.35 177.246 136.856 176.344 135.194 176.006C135.021 175.971 134.847 175.946 134.667 175.92C134.839 175.9 135.012 175.888 135.185 175.886C135.246 175.882 135.307 175.882 135.368 175.886H135.515L159.148 176.006L164.49 176.033H166.237H166.384L177.735 176.093C178.108 176.094 178.48 176.124 178.848 176.18C179.788 176.334 180.69 176.669 181.503 177.166C181.608 177.226 181.701 177.295 181.797 177.355C182.086 177.553 182.36 177.77 182.618 178.005C182.705 178.083 182.783 178.161 182.87 178.248C183.529 178.916 184.058 179.702 184.428 180.565L184.559 180.903C184.603 181.013 184.64 181.125 184.671 181.239C184.893 181.949 185.005 182.689 185.004 183.434Z" stroke="black" stroke-width="2" stroke-linecap="square" stroke-linejoin="round"/>
<path d="M172.824 183.304C172.825 183.547 172.814 183.79 172.788 184.032C172.788 184.049 172.788 184.065 172.788 184.083C172.771 184.196 172.755 184.305 172.737 184.412C172.735 184.445 172.729 184.477 172.719 184.508C172.705 184.636 172.682 184.763 172.65 184.889C172.599 185.111 172.53 185.354 172.459 185.579C172.408 185.734 172.357 185.89 172.297 186.046C172.252 186.124 172.225 186.202 172.192 186.269C172.127 186.426 172.052 186.579 171.969 186.727C171.891 186.882 171.801 187.031 171.7 187.172C171.634 187.293 171.56 187.409 171.477 187.519C171.435 187.58 171.391 187.64 171.339 187.702C171.26 187.816 171.174 187.926 171.081 188.029C170.96 188.178 170.83 188.32 170.692 188.454C170.526 188.618 170.352 188.773 170.171 188.919C168.966 189.926 167.469 190.518 165.902 190.607C165.824 190.607 165.746 190.607 165.679 190.607H135.478C135.202 190.607 134.917 190.591 134.63 190.564C134.816 190.542 135.001 190.51 135.184 190.469C135.199 190.474 135.214 190.474 135.229 190.469H135.244C136.648 190.176 137.935 189.48 138.948 188.465L138.966 188.448C140.254 187.146 141.007 185.408 141.076 183.578C141.076 183.491 141.076 183.395 141.076 183.299V183.291C141.062 181.507 140.399 179.789 139.211 178.457C138.024 177.126 136.392 176.273 134.621 176.057C134.813 176.032 135.002 176.023 135.193 176.014C135.242 176.006 135.291 176.006 135.34 176.014C135.342 176.012 135.346 176.011 135.349 176.011C135.352 176.011 135.355 176.012 135.358 176.014C135.395 176.01 135.432 176.01 135.469 176.014H165.512C165.722 176.014 165.92 176.015 166.12 176.041H166.189C166.206 176.046 166.224 176.046 166.24 176.041H166.276L166.63 176.092C166.875 176.128 167.117 176.18 167.355 176.248C167.442 176.266 167.538 176.29 167.625 176.317C167.88 176.396 168.131 176.488 168.377 176.593C168.584 176.68 168.793 176.785 168.991 176.889C169.201 177.001 169.403 177.125 169.597 177.261C169.726 177.348 169.848 177.432 169.968 177.528C170.089 177.624 170.253 177.751 170.394 177.875C170.534 178 170.616 178.098 170.721 178.194C170.852 178.334 170.981 178.472 171.101 178.619C171.137 178.652 171.161 178.688 171.188 178.714L171.371 178.948C171.579 179.233 171.769 179.53 171.94 179.838C172.108 180.155 172.257 180.481 172.386 180.815C172.59 181.383 172.727 181.972 172.793 182.572C172.793 182.685 172.811 182.794 172.82 182.901V182.979C172.824 183.079 172.824 183.193 172.824 183.304Z" stroke="black" stroke-width="2" stroke-linecap="square" stroke-linejoin="round"/>
<path d="M178.378 200.983H135.212C134.25 201.009 133.291 200.872 132.374 200.578C132.192 200.509 132.02 200.44 131.856 200.355C131.691 200.269 131.544 200.182 131.397 200.095C131.25 200.008 131.121 199.897 130.99 199.792C130.861 199.679 130.74 199.57 130.627 199.454C130.034 198.862 129.595 198.135 129.347 197.335C129.19 196.837 129.111 196.317 129.113 195.795C129.112 195.592 129.124 195.39 129.149 195.189C129.182 194.907 129.242 194.629 129.329 194.359C129.45 193.932 129.637 193.526 129.884 193.157C130.024 192.916 130.192 192.692 130.384 192.49C130.502 192.358 130.627 192.233 130.758 192.116C131.813 191.174 133.345 190.593 135.239 190.593H178.378C178.205 190.593 178.085 190.593 177.998 190.593C177.969 190.589 177.94 190.589 177.911 190.593C177.824 190.593 177.842 190.593 177.884 190.593C177.887 190.595 177.89 190.597 177.893 190.597C177.897 190.597 177.9 190.595 177.902 190.593C177.922 190.597 177.942 190.597 177.962 190.593C177.98 190.593 177.989 190.593 178.007 190.593C177.911 190.611 177.815 190.62 177.72 190.644H177.7C177.7 190.644 177.673 190.644 177.664 190.644C176.484 190.879 175.422 191.515 174.657 192.443C173.892 193.372 173.472 194.536 173.468 195.739C173.475 197.008 173.943 198.23 174.785 199.179C175.627 200.128 176.786 200.738 178.045 200.896C177.833 200.976 177.635 200.983 178.378 200.983Z" stroke="black" stroke-width="2" stroke-linecap="square" stroke-linejoin="round"/>
<path d="M178.031 200.961C177.833 200.979 177.635 200.985 177.434 200.985H147.625C146.945 200.985 146.271 200.85 145.643 200.589C145.016 200.328 144.445 199.945 143.966 199.463C143.373 198.871 142.934 198.144 142.686 197.344C142.532 196.845 142.457 196.326 142.463 195.804C142.466 194.43 143.012 193.112 143.983 192.139C144.954 191.167 146.27 190.618 147.645 190.613H177.434C177.581 190.613 177.737 190.613 177.88 190.631C177.905 190.635 177.932 190.635 177.957 190.631C177.975 190.631 177.984 190.631 178.002 190.631C177.906 190.649 177.811 190.658 177.715 190.682H177.699C177.699 190.682 177.673 190.682 177.664 190.682C176.484 190.917 175.422 191.553 174.657 192.481C173.892 193.41 173.472 194.574 173.468 195.777C173.475 197.046 173.943 198.269 174.785 199.217C175.627 200.166 176.786 200.777 178.044 200.934L178.031 200.961Z" stroke="black" stroke-width="2" stroke-linecap="square" stroke-linejoin="round"/>
<path d="M142.445 195.804C142.445 197.178 142.991 198.496 143.962 199.468C144.934 200.44 146.252 200.985 147.626 200.985H135.213C132.843 200.985 131.545 200.407 130.601 199.463C130.12 198.983 129.739 198.412 129.479 197.784C129.22 197.157 129.087 196.484 129.088 195.804C129.088 192.95 131.416 190.613 135.213 190.613H147.626C146.252 190.618 144.935 191.167 143.964 192.139C142.993 193.112 142.447 194.43 142.445 195.804Z" stroke="black" stroke-width="2" stroke-linecap="square" stroke-linejoin="round"/>
<path d="M178.38 200.982H177.436C177.636 200.982 177.834 200.982 178.032 200.957C177.834 200.975 177.636 200.982 178.38 200.982Z" stroke="black" stroke-width="2" stroke-linecap="square" stroke-linejoin="round"/>
<path d="M177.963 190.636C177.792 190.636 177.609 190.609 177.436 190.609H178.38C177.721 190.614 177.798 190.636 177.963 190.636Z" stroke="black" stroke-width="2" stroke-linecap="square" stroke-linejoin="round"/>
<path opacity="0.54" d="M48.6063 181.46L33.1551 141.877C32.9636 141.111 32.9493 140.311 33.113 139.539C33.2768 138.767 33.6143 138.042 34.1001 137.42C34.5859 136.798 35.207 136.295 35.9164 135.948C36.6258 135.602 37.4048 135.422 38.1942 135.422H99.5762C100.954 135.422 102.292 135.885 103.375 136.738C104.457 137.591 105.221 138.783 105.543 140.123L122.459 179.701C122.643 180.465 122.65 181.261 122.482 182.028C122.314 182.795 121.974 183.514 121.487 184.131C121.001 184.748 120.381 185.246 119.674 185.589C118.967 185.932 118.192 186.109 117.407 186.109H54.5558C53.1876 186.109 51.8586 185.651 50.7804 184.809C49.7025 183.966 48.937 182.787 48.6063 181.46Z" fill="white"/>
<path d="M48.6063 181.46L33.1551 141.877C32.9636 141.111 32.9493 140.311 33.113 139.539C33.2768 138.767 33.6143 138.042 34.1001 137.42C34.5859 136.798 35.207 136.295 35.9164 135.948C36.6258 135.602 37.4048 135.422 38.1942 135.422H99.5762C100.954 135.422 102.292 135.885 103.375 136.738C104.457 137.591 105.221 138.783 105.543 140.123L122.459 179.701C122.643 180.465 122.65 181.261 122.482 182.028C122.314 182.795 121.974 183.514 121.487 184.131C121.001 184.748 120.381 185.246 119.674 185.589C118.967 185.932 118.192 186.109 117.407 186.109H54.5558C53.1876 186.109 51.8586 185.651 50.7804 184.809C49.7025 183.966 48.937 182.787 48.6063 181.46Z" fill="#80B2FF"/>
<path d="M48.6063 181.46L33.1551 141.877C32.9636 141.111 32.9493 140.311 33.113 139.539C33.2768 138.767 33.6143 138.042 34.1001 137.42C34.5859 136.798 35.207 136.295 35.9164 135.948C36.6258 135.602 37.4048 135.422 38.1942 135.422H99.5762C100.954 135.422 102.292 135.885 103.375 136.738C104.457 137.591 105.221 138.783 105.543 140.123L122.459 179.701C122.643 180.465 122.65 181.261 122.482 182.028C122.314 182.795 121.974 183.514 121.487 184.131C121.001 184.748 120.381 185.246 119.674 185.589C118.967 185.932 118.192 186.109 117.407 186.109H54.5558C53.1876 186.109 51.8586 185.651 50.7804 184.809C49.7025 183.966 48.937 182.787 48.6063 181.46Z" stroke="black" stroke-width="2" stroke-linecap="square" stroke-linejoin="round"/>
<path d="M50.863 179.857L36.6181 143.339C36.4413 142.633 36.4277 141.896 36.5783 141.184C36.7288 140.471 37.0397 139.803 37.4872 139.229C37.9348 138.655 38.5072 138.19 39.1611 137.87C39.815 137.55 40.5332 137.384 41.2611 137.383H97.88C99.1513 137.383 100.386 137.811 101.384 138.598C102.382 139.385 103.087 140.485 103.384 141.721L118.989 178.223C119.158 178.928 119.166 179.662 119.01 180.37C118.855 181.078 118.541 181.741 118.093 182.31C117.644 182.88 117.072 183.34 116.42 183.656C115.768 183.972 115.053 184.137 114.328 184.137H56.3562C55.0946 184.138 53.8689 183.717 52.8738 182.941C51.8786 182.166 51.1711 181.081 50.863 179.857Z" fill="#80B2FF"/>
<path d="M93.7882 144.102C93.0381 142.973 91.8117 142.472 91.046 142.989C90.2804 143.505 90.2693 144.825 91.0193 145.953C91.1375 146.125 91.2702 146.287 91.4155 146.436L85.8511 158.182C84.9608 157.59 83.9882 157.443 83.2893 157.91C83.0636 158.074 82.8766 158.286 82.7417 158.53C82.6066 158.774 82.5269 159.045 82.508 159.323L78.7064 158.039L75.3834 156.926L74.2972 156.57C74.161 156.162 73.9718 155.774 73.7341 155.415C72.6791 153.83 70.9563 153.127 69.8813 153.841C68.8062 154.556 68.7951 156.383 69.8212 157.957L63.4978 166.6C62.1178 165.467 60.4908 165.117 59.3646 165.865C57.8332 166.887 57.8065 169.546 59.3134 171.808C59.3735 171.897 59.4425 171.972 59.5048 172.057L55.2825 177.826L55.2447 177.882C55.1258 178.042 55.0406 178.225 54.9947 178.42C54.9487 178.614 54.9426 178.816 54.9771 179.012C55.0116 179.209 55.0858 179.397 55.195 179.564C55.3043 179.731 55.4463 179.874 55.6128 179.984C55.7791 180.095 55.9663 180.17 56.1628 180.206C56.3591 180.242 56.5608 180.237 56.7555 180.192C56.9501 180.148 57.1337 180.064 57.2948 179.946C57.456 179.828 57.5915 179.679 57.693 179.507L61.4479 173.855C62.632 174.543 63.8962 174.675 64.8155 174.06C66.28 173.085 66.349 170.619 65.038 168.429L71.1032 159.275C71.9935 159.882 72.9862 160.038 73.694 159.568C74.0898 159.289 74.3593 158.865 74.4441 158.389L74.8892 158.516L78.2702 159.439L82.5971 160.606C82.7286 161.124 82.9467 161.616 83.2425 162.061C84.2953 163.644 86.0203 164.349 87.0953 163.635C88.1704 162.92 88.1837 161.057 87.1309 159.475C86.9756 159.245 86.8013 159.028 86.6101 158.827L91.9052 146.855C92.544 147.3 93.2406 147.4 93.7548 147.064C94.5316 146.568 94.5427 145.232 93.7882 144.102Z" fill="white"/>
<path d="M53.5013 144.745H45.2994C44.9221 144.747 44.5526 144.638 44.2363 144.432C43.9198 144.227 43.6706 143.933 43.5188 143.588C43.472 143.482 43.4471 143.367 43.4453 143.251C43.4478 143.028 43.5379 142.814 43.6966 142.657C43.8555 142.499 44.0699 142.411 44.2933 142.41H53.0161C52.611 143.102 52.8336 144.064 53.5013 144.745Z" fill="#2E2E2E"/>
<path d="M58.8142 143.904C58.8131 144.127 58.7236 144.34 58.5658 144.498C58.4078 144.656 58.1939 144.744 57.9707 144.745H53.5036C52.8225 144.064 52.6133 143.102 53.025 142.41H56.9646C57.3412 142.408 57.7102 142.516 58.0263 142.72C58.3426 142.925 58.5925 143.217 58.7452 143.561C58.7913 143.669 58.8147 143.786 58.8142 143.904Z" fill="#D7E8F0"/>
<path d="M56.7615 144.748C56.7375 144.793 56.7108 144.836 56.6814 144.877C56.0938 145.676 54.8251 145.752 53.8391 145.031C53.7211 144.946 53.6101 144.851 53.5075 144.748C52.8264 144.067 52.6172 143.106 53.0289 142.413C53.0512 142.368 53.0781 142.325 53.109 142.284C53.69 141.481 54.9587 141.412 55.9447 142.126C56.0644 142.212 56.177 142.309 56.2808 142.413C56.9574 143.097 57.1666 144.049 56.7615 144.748Z" fill="white"/>
<path d="M60.8769 149.056C60.8751 149.28 60.785 149.494 60.6263 149.651C60.4674 149.809 60.2526 149.897 60.0289 149.897H51.4174C51.8337 149.198 51.6267 148.246 50.9434 147.563H59.0318C59.409 147.561 59.7785 147.67 60.0948 147.875C60.4113 148.081 60.6606 148.374 60.8124 148.72C60.856 148.826 60.878 148.941 60.8769 149.056Z" fill="#D7E8F0"/>
<path d="M51.4167 149.905H47.3658C46.9892 149.907 46.6202 149.799 46.3041 149.595C45.9878 149.391 45.7379 149.099 45.5852 148.754C45.5384 148.647 45.5135 148.531 45.5117 148.414C45.5111 148.303 45.5324 148.193 45.5745 148.091C45.6166 147.988 45.6784 147.895 45.7568 147.817C45.8349 147.738 45.928 147.676 46.0301 147.634C46.1325 147.592 46.2422 147.57 46.3531 147.57H50.9426C51.6259 148.247 51.8329 149.2 51.4167 149.905Z" fill="#2E2E2E"/>
<path d="M51.4169 149.906C51.3984 149.952 51.3737 149.996 51.3434 150.035C50.7625 150.841 49.4916 150.91 48.5056 150.195C48.3836 150.108 48.2683 150.011 48.1606 149.906C47.4929 149.225 47.2703 148.27 47.6821 147.571C47.7039 147.526 47.7308 147.483 47.7622 147.444C48.3476 146.643 49.6162 146.569 50.6045 147.288C50.7213 147.374 50.8315 147.469 50.9339 147.571C51.6261 148.248 51.8331 149.2 51.4169 149.906Z" fill="white"/>
<path d="M54.2863 155.021H49.1314C48.7548 155.022 48.386 154.913 48.0699 154.709C47.7539 154.504 47.5039 154.212 47.3508 153.868C47.3041 153.762 47.2791 153.647 47.2773 153.532C47.278 153.307 47.3675 153.092 47.5264 152.933C47.6853 152.774 47.9006 152.684 48.1254 152.684H53.7966C53.4004 153.371 53.6096 154.326 54.2863 155.021Z" fill="#2E2E2E"/>
<path d="M62.6417 154.172C62.6406 154.395 62.5512 154.608 62.3929 154.765C62.2349 154.922 62.021 155.01 61.7982 155.009H54.2862C53.6185 154.326 53.3959 153.371 53.8055 152.672H60.7966C61.1721 152.672 61.5395 152.781 61.854 152.987C62.1683 153.192 62.4158 153.485 62.5661 153.829C62.6144 153.937 62.6402 154.054 62.6417 154.172Z" fill="#D7E8F0"/>
<path d="M57.5381 155.023C57.5163 155.068 57.4893 155.11 57.4579 155.15C56.877 155.955 55.6083 156.024 54.6223 155.31C54.5039 155.222 54.3917 155.126 54.2862 155.023C53.6185 154.339 53.3959 153.385 53.8055 152.686C53.8288 152.641 53.8558 152.599 53.8856 152.559C54.4732 151.76 55.7419 151.689 56.7279 152.403C56.845 152.489 56.9558 152.584 57.0595 152.686C57.7317 153.358 57.9543 154.317 57.5381 155.023Z" fill="white"/>
<path d="M87.6169 179.134H82.4598C82.0832 179.135 81.7144 179.026 81.3983 178.822C81.0821 178.617 80.8323 178.325 80.6792 177.981C80.6307 177.875 80.6049 177.761 80.6035 177.645C80.6042 177.42 80.6937 177.205 80.8526 177.046C81.0115 176.887 81.2267 176.797 81.4515 176.797H87.125C86.731 177.5 86.9403 178.451 87.6169 179.134Z" fill="#2E2E2E"/>
<path d="M108.084 178.297C108.084 178.407 108.062 178.516 108.019 178.618C107.977 178.72 107.915 178.812 107.837 178.89C107.759 178.967 107.666 179.029 107.564 179.071C107.462 179.113 107.353 179.134 107.243 179.134H87.6183C86.9505 178.451 86.728 177.496 87.1375 176.797H106.239C106.614 176.797 106.982 176.906 107.296 177.112C107.611 177.317 107.858 177.61 108.008 177.954C108.057 178.062 108.083 178.179 108.084 178.297Z" fill="#D7E8F0"/>
<path d="M90.8701 179.136C90.8483 179.181 90.8214 179.224 90.79 179.263C90.2091 180.069 88.9404 180.138 87.9544 179.423C87.8355 179.336 87.7233 179.24 87.6183 179.136C86.9505 178.453 86.728 177.498 87.1375 176.799C87.1609 176.755 87.1878 176.712 87.2176 176.672C87.8052 175.873 89.0739 175.802 90.0599 176.516C90.177 176.603 90.2879 176.697 90.3916 176.799C91.0727 177.482 91.2819 178.442 90.8701 179.136Z" fill="white"/>
</g>
</svg>
