<svg width="51" height="50" viewBox="0 0 51 50" fill="none" xmlns="http://www.w3.org/2000/svg">
<path d="M18.7549 17.1875C18.7549 19.7763 16.6562 21.875 14.0674 21.875C11.4785 21.875 9.37988 19.7763 9.37988 17.1875C9.37988 14.5987 11.4785 12.5 14.0674 12.5C16.6562 12.5 18.7549 14.5987 18.7549 17.1875Z" fill="black"/>
<path d="M6.25488 3.125C2.8031 3.125 0.00488281 5.92322 0.00488281 9.375V40.625C0.00488281 44.0768 2.8031 46.875 6.25488 46.875H43.7549C47.2067 46.875 50.0049 44.0768 50.0049 40.625V9.375C50.0049 5.92322 47.2067 3.125 43.7549 3.125H6.25488ZM43.7549 6.25C45.4808 6.25 46.8799 7.64911 46.8799 9.375V29.6875L35.0787 23.6025C34.4771 23.3017 33.7506 23.4196 33.275 23.8952L21.6808 35.4894L13.3716 29.95C12.7519 29.5368 11.9267 29.6185 11.4 30.1452L3.12988 37.5V9.375C3.12988 7.64911 4.52899 6.25 6.25488 6.25H43.7549Z" fill="black"/>
</svg>
