<svg width="27" height="27" viewBox="0 0 27 27" fill="none" xmlns="http://www.w3.org/2000/svg">
<path d="M13.5 25.3125C6.97614 25.3125 1.6875 20.0239 1.6875 13.5C1.6875 6.97614 6.97614 1.6875 13.5 1.6875C20.0239 1.6875 25.3125 6.97614 25.3125 13.5C25.3125 20.0239 20.0239 25.3125 13.5 25.3125ZM13.5 27C20.9558 27 27 20.9558 27 13.5C27 6.04416 20.9558 0 13.5 0C6.04416 0 0 6.04416 0 13.5C0 20.9558 6.04416 27 13.5 27Z" fill="#0065FF"/>
<path d="M15.0706 11.1171L11.2045 11.6016L11.066 12.2443L11.8274 12.3827C12.3218 12.5013 12.4207 12.6793 12.3119 13.1737L11.066 19.0272C10.7398 20.54 11.244 21.252 12.4305 21.252C13.3501 21.252 14.418 20.8268 14.9025 20.2434L15.0508 19.5414C14.7146 19.838 14.2202 19.9567 13.8939 19.9567C13.4292 19.9567 13.2611 19.6304 13.3798 19.0569L15.0706 11.1171Z" fill="#0065FF"/>
<path d="M15.1875 7.59375C15.1875 8.52573 14.432 9.28125 13.5 9.28125C12.568 9.28125 11.8125 8.52573 11.8125 7.59375C11.8125 6.66177 12.568 5.90625 13.5 5.90625C14.432 5.90625 15.1875 6.66177 15.1875 7.59375Z" fill="#0065FF"/>
</svg>
